NotoSans-Italic.ufo
<glyph name="exclam" format="2">
  <advance width="523.515625"/>
  <unicode hex="0021"/>
  <outline>
    <contour>
      <point x="158.0" y="405.875" type="line"/>
      <point x="292.5" y="405.875" type="line"/>
      <point x="550.53125" y="1462.0" type="line"/>
      <point x="349.140625" y="1462.0" type="line"/>
    </contour>
    <contour>
      <point x="145.953125" y="-27.578125" type="curve" smooth="yes"/>
      <point x="241.0625" y="-27.578125"/>
      <point x="285.109375" y="53.9375"/>
      <point x="285.109375" y="129.234375" type="curve" smooth="yes"/>
      <point x="285.109375" y="195.765625"/>
      <point x="245.5" y="233.015625"/>
      <point x="187.5625" y="233.015625" type="curve" smooth="yes"/>
      <point x="87.78125" y="233.015625"/>
      <point x="43.734375" y="156.84375"/>
      <point x="43.734375" y="76.203125" type="curve" smooth="yes"/>
      <point x="43.734375" y="10.687499999999998"/>
      <point x="80.4375" y="-27.578125"/>
    </contour>
  </outline>
</glyph>
<glyph name="numbersign" format="2">
  <advance width="1315.78125"/>
  <unicode hex="0023"/>
  <outline>
    <contour>
      <point x="201.1875" y="0.0" type="line"/>
      <point x="332.34375" y="0.0" type="line"/>
      <point x="458.546875" y="432.046875" type="line"/>
      <point x="763.609375" y="432.046875" type="line"/>
      <point x="633.40625" y="0.0" type="line"/>
      <point x="770.234375" y="0.0" type="line"/>
      <point x="894.984375" y="432.046875" type="line"/>
      <point x="1203.109375" y="432.046875" type="line"/>
      <point x="1215.125" y="557.640625" type="line"/>
      <point x="931.03125" y="557.640625" type="line"/>
      <point x="1029.765625" y="900.578125" type="line"/>
      <point x="1319.421875" y="900.578125" type="line"/>
      <point x="1332.328125" y="1024.390625" type="line"/>
      <point x="1067.59375" y="1024.390625" type="line"/>
      <point x="1191.90625" y="1462.0" type="line"/>
      <point x="1062.53125" y="1462.0" type="line"/>
      <point x="934.65625" y="1024.390625" type="line"/>
      <point x="630.25" y="1024.390625" type="line"/>
      <point x="756.125" y="1462.0" type="line"/>
      <point x="618.734375" y="1462.0" type="line"/>
      <point x="495.3125" y="1024.390625" type="line"/>
      <point x="195.875" y="1024.390625" type="line"/>
      <point x="183.859375" y="900.578125" type="line"/>
      <point x="460.828125" y="900.578125" type="line"/>
      <point x="358.765625" y="557.640625" type="line"/>
      <point x="74.21875" y="557.640625" type="line"/>
      <point x="62.203125" y="432.046875" type="line"/>
      <point x="322.609375" y="432.046875" type="line"/>
    </contour>
    <contour>
      <point x="494.59375" y="557.640625" type="line"/>
      <point x="592.203125" y="900.578125" type="line"/>
      <point x="894.828125" y="900.578125" type="line"/>
      <point x="799.65625" y="557.640625" type="line"/>
    </contour>
  </outline>
</glyph>
<glyph name="ampersand" format="2">
  <advance width="1380.078125"/>
  <unicode hex="0026"/>
  <outline>
    <contour>
      <point x="443.640625" y="-20.0" type="curve" smooth="yes"/>
      <point x="655.046875" y="-20.0"/>
      <point x="789.90625" y="57.515625"/>
      <point x="921.09375" y="166.015625" type="curve"/>
      <point x="1037.921875" y="0.0" type="line"/>
      <point x="1234.515625" y="0.0" type="line"/>
      <point x="1034.6875" y="269.375" type="line"/>
      <point x="1153.03125" y="384.8125"/>
      <point x="1249.46875" y="521.8125"/>
      <point x="1319.90625" y="689.8125" type="curve"/>
      <point x="1153.46875" y="689.8125" type="line"/>
      <point x="1108.28125" y="577.65625"/>
      <point x="1042.34375" y="465.15625"/>
      <point x="951.140625" y="384.96875" type="curve"/>
      <point x="671.296875" y="775.859375" type="line"/>
      <point x="889.46875" y="885.1875"/>
      <point x="1071.6875" y="985.21875"/>
      <point x="1071.6875" y="1195.390625" type="curve" smooth="yes"/>
      <point x="1071.6875" y="1372.0"/>
      <point x="945.5625" y="1485.0"/>
      <point x="751.9375" y="1485.0" type="curve" smooth="yes"/>
      <point x="503.546875" y="1485.0"/>
      <point x="361.0" y="1324.3125"/>
      <point x="361.0" y="1117.09375" type="curve" smooth="yes"/>
      <point x="361.0" y="1003.078125"/>
      <point x="408.21875" y="900.171875"/>
      <point x="465.9375" y="810.78125" type="curve"/>
      <point x="214.1875" y="691.78125"/>
      <point x="69.28125" y="562.3125"/>
      <point x="69.28125" y="339.078125" type="curve" smooth="yes"/>
      <point x="69.28125" y="105.125"/>
      <point x="224.171875" y="-20.0"/>
    </contour>
    <contour>
      <point x="475.46875" y="118.28124999999999" type="curve" smooth="yes"/>
      <point x="335.296875" y="118.28124999999999"/>
      <point x="233.9375" y="207.15625"/>
      <point x="233.9375" y="350.203125" type="curve" smooth="yes"/>
      <point x="233.9375" y="537.65625"/>
      <point x="374.765625" y="626.71875"/>
      <point x="535.90625" y="707.875" type="curve"/>
      <point x="841.328125" y="276.046875" type="line"/>
      <point x="734.40625" y="188.25"/>
      <point x="628.796875" y="118.28124999999999"/>
    </contour>
    <contour>
      <point x="603.78125" y="880.4375" type="curve"/>
      <point x="547.390625" y="958.703125"/>
      <point x="520.203125" y="1033.34375"/>
      <point x="520.203125" y="1117.3125" type="curve" smooth="yes"/>
      <point x="520.203125" y="1262.21875"/>
      <point x="604.65625" y="1349.390625"/>
      <point x="743.046875" y="1349.390625" type="curve" smooth="yes"/>
      <point x="850.234375" y="1349.390625"/>
      <point x="910.703125" y="1282.09375"/>
      <point x="910.703125" y="1182.921875" type="curve" smooth="yes"/>
      <point x="910.703125" y="1027.953125"/>
      <point x="737.265625" y="946.421875"/>
    </contour>
  </outline>
</glyph>
<glyph name="three" format="2">
  <advance width="1127.78125"/>
  <unicode hex="0033"/>
  <outline>
    <contour>
      <point x="430.0" y="-20.0" type="curve" smooth="yes"/>
      <point x="799.421875" y="-20.0"/>
      <point x="963.21875" y="195.390625"/>
      <point x="963.21875" y="429.78125" type="curve" smooth="yes"/>
      <point x="963.21875" y="606.21875"/>
      <point x="853.3125" y="718.09375"/>
      <point x="696.984375" y="746.421875" type="curve"/>
      <point x="696.984375" y="754.875" type="line"/>
      <point x="929.953125" y="797.0"/>
      <point x="1075.0" y="950.46875"/>
      <point x="1075.0" y="1160.859375" type="curve" smooth="yes"/>
      <point x="1075.0" y="1352.4375"/>
      <point x="943.34375" y="1483.0"/>
      <point x="703.140625" y="1483.0" type="curve" smooth="yes"/>
      <point x="522.453125" y="1483.0"/>
      <point x="387.265625" y="1421.21875"/>
      <point x="272.078125" y="1338.125" type="curve"/>
      <point x="349.734375" y="1220.3125" type="line"/>
      <point x="457.21875" y="1294.71875"/>
      <point x="561.265625" y="1342.046875"/>
      <point x="688.671875" y="1342.046875" type="curve" smooth="yes"/>
      <point x="816.15625" y="1342.046875"/>
      <point x="905.109375" y="1269.328125"/>
      <point x="905.109375" y="1141.484375" type="curve" smooth="yes"/>
      <point x="905.109375" y="937.515625"/>
      <point x="720.140625" y="824.296875"/>
      <point x="513.609375" y="824.296875" type="curve" smooth="yes"/>
      <point x="377.4375" y="824.296875" type="line"/>
      <point x="348.734375" y="686.015625" type="line"/>
      <point x="483.015625" y="686.015625" type="line" smooth="yes"/>
      <point x="676.28125" y="686.015625"/>
      <point x="786.984375" y="594.921875"/>
      <point x="786.984375" y="422.65625" type="curve" smooth="yes"/>
      <point x="786.984375" y="238.859375"/>
      <point x="659.09375" y="120.06249999999999"/>
      <point x="432.0" y="120.06249999999999" type="curve" smooth="yes"/>
      <point x="289.140625" y="120.06249999999999"/>
      <point x="139.90625" y="168.40625"/>
      <point x="45.0" y="221.1875" type="curve"/>
      <point x="45.0" y="59.984375" type="line"/>
      <point x="149.921875" y="10.875"/>
      <point x="271.125" y="-20.0"/>
    </contour>
  </outline>
</glyph>
<glyph name="colon" format="2">
  <advance width="513.71875"/>
  <unicode hex="003A"/>
  <outline>
    <contour>
      <point x="310.421875" y="862.359375" type="curve" smooth="yes"/>
      <point x="406.3125" y="862.359375"/>
      <point x="452.25" y="940.3125"/>
      <point x="452.25" y="1020.84375" type="curve" smooth="yes"/>
      <point x="452.25" y="1089.265625"/>
      <point x="414.421875" y="1122.0625"/>
      <point x="357.375" y="1122.0625" type="curve" smooth="yes"/>
      <point x="256.703125" y="1122.0625"/>
      <point x="210.765625" y="1046.671875"/>
      <point x="210.765625" y="959.90625" type="curve" smooth="yes"/>
      <point x="210.765625" y="898.84375"/>
      <point x="247.578125" y="862.359375"/>
    </contour>
    <contour>
      <point x="143.28125" y="-27.578125" type="curve" smooth="yes"/>
      <point x="239.28125" y="-27.578125"/>
      <point x="285.109375" y="52.15625"/>
      <point x="285.109375" y="131.015625" type="curve" smooth="yes"/>
      <point x="285.109375" y="197.546875"/>
      <point x="247.28125" y="233.015625"/>
      <point x="191.125" y="233.015625" type="curve" smooth="yes"/>
      <point x="89.5625" y="233.015625"/>
      <point x="43.734375" y="156.84375"/>
      <point x="43.734375" y="72.640625" type="curve" smooth="yes"/>
      <point x="43.734375" y="8.906249999999998"/>
      <point x="80.4375" y="-27.578125"/>
    </contour>
  </outline>
</glyph>
<glyph name="C" format="2">
  <advance width="1203.640625"/>
  <unicode hex="0043"/>
  <anchor x="610.671875" y="0.0" name="bottom"/>
  <anchor x="897.625" y="1462.0" name="top"/>
  <anchor x="1357.75" y="1462.0" name="topright"/>
  <outline>
    <contour>
      <point x="668.0" y="-20.0" type="curve" smooth="yes"/>
      <point x="818.125" y="-20.0"/>
      <point x="919.53125" y="2.656250000000001"/>
      <point x="1024.0" y="41.21875" type="curve"/>
      <point x="1024.0" y="188.859375" type="line"/>
      <point x="920.65625" y="154.078125"/>
      <point x="812.5625" y="128.96875"/>
      <point x="696.71875" y="128.96875" type="curve" smooth="yes"/>
      <point x="466.03125" y="128.96875"/>
      <point x="329.203125" y="287.78125"/>
      <point x="329.203125" y="544.09375" type="curve" smooth="yes"/>
      <point x="329.203125" y="929.15625"/>
      <point x="531.859375" y="1333.140625"/>
      <point x="940.953125" y="1333.140625" type="curve" smooth="yes"/>
      <point x="1060.3125" y="1333.140625"/>
      <point x="1150.171875" y="1301.671875"/>
      <point x="1226.578125" y="1260.703125" type="curve"/>
      <point x="1294.21875" y="1401.65625" type="line"/>
      <point x="1192.875" y="1456.21875"/>
      <point x="1078.640625" y="1483.0"/>
      <point x="940.953125" y="1483.0" type="curve" smooth="yes"/>
      <point x="415.796875" y="1483.0"/>
      <point x="149.734375" y="993.109375"/>
      <point x="149.734375" y="540.09375" type="curve" smooth="yes"/>
      <point x="149.734375" y="194.3125"/>
      <point x="343.3125" y="-20.0"/>
    </contour>
  </outline>
</glyph>
<glyph name="D" format="2">
  <advance width="1368.1875"/>
  <unicode hex="0044"/>
  <anchor x="568.421875" y="0.0" name="bottom"/>
  <anchor x="759.046875" y="731.0" name="center"/>
  <anchor x="880.3125" y="1462.0" name="top"/>
  <anchor x="1522.40625" y="1462.0" name="topright"/>
  <outline>
    <contour>
      <point x="85.96875" y="0.0" type="line"/>
      <point x="439.296875" y="0.0" type="line" smooth="yes"/>
      <point x="999.296875" y="0.0"/>
      <point x="1303.21875" y="376.578125"/>
      <point x="1303.21875" y="878.015625" type="curve" smooth="yes"/>
      <point x="1303.21875" y="1273.5625"/>
      <point x="1090.796875" y="1462.0"/>
      <point x="735.71875" y="1462.0" type="curve" smooth="yes"/>
      <point x="395.078125" y="1462.0" type="line"/>
    </contour>
    <contour>
      <point x="284.671875" y="146.296875" type="line"/>
      <point x="533.59375" y="1316.59375" type="line"/>
      <point x="713.828125" y="1316.59375" type="line" smooth="yes"/>
      <point x="964.171875" y="1316.59375"/>
      <point x="1125.203125" y="1186.671875"/>
      <point x="1125.203125" y="879.796875" type="curve" smooth="yes"/>
      <point x="1125.203125" y="468.515625"/>
      <point x="887.96875" y="146.296875"/>
      <point x="449.3125" y="146.296875" type="curve" smooth="yes"/>
    </contour>
  </outline>
</glyph>
<glyph name="F" format="2">
  <advance width="979.1875"/>
  <unicode hex="0046"/>
  <anchor x="374.3125" y="0.0" name="bottom"/>
  <anchor x="685.3125" y="1462.0" name="top"/>
  <anchor x="1132.515625" y="1462.0" name="topright"/>
  <outline>
    <contour>
      <point x="85.96875" y="0.0" type="line"/>
      <point x="254.1875" y="0.0" type="line"/>
      <point x="386.28125" y="624.125" type="line"/>
      <point x="924.1875" y="624.125" type="line"/>
      <point x="955.78125" y="773.984375" type="line"/>
      <point x="418.765625" y="773.984375" type="line"/>
      <point x="531.8125" y="1312.140625" type="line"/>
      <point x="1105.828125" y="1312.140625" type="line"/>
      <point x="1136.3125" y="1462.0" type="line"/>
      <point x="395.078125" y="1462.0" type="line"/>
    </contour>
  </outline>
</glyph>
<glyph name="H" format="2">
  <advance width="1393.21875"/>
  <unicode hex="0048"/>
  <anchor x="603.59375" y="0.0" name="bottom"/>
  <anchor x="770.171875" y="731.0" name="center"/>
  <anchor x="887.875" y="1462.0" name="top"/>
  <anchor x="1546.4375" y="1462.0" name="topright"/>
  <outline>
    <contour>
      <point x="87.75" y="0.0" type="line"/>
      <point x="255.96875" y="0.0" type="line"/>
      <point x="401.390625" y="688.671875" type="line"/>
      <point x="1068.453125" y="688.671875" type="line"/>
      <point x="922.921875" y="0.0" type="line"/>
      <point x="1090.140625" y="0.0" type="line"/>
      <point x="1399.140625" y="1462.0" type="line"/>
      <point x="1232.8125" y="1462.0" type="line"/>
      <point x="1100.71875" y="838.640625" type="line"/>
      <point x="432.875" y="838.640625" type="line"/>
      <point x="565.859375" y="1462.0" type="line"/>
      <point x="396.859375" y="1462.0" type="line"/>
    </contour>
  </outline>
</glyph>
<glyph name="I" format="2">
  <advance width="554.9375"/>
  <unicode hex="0049"/>
  <anchor x="170.203125" y="0.0" name="bottom"/>
  <anchor x="481.203125" y="1462.0" name="top"/>
  <anchor x="708.71875" y="1462.0" name="topright"/>
  <outline>
    <contour>
      <point x="85.75" y="0.0" type="line"/>
      <point x="251.96875" y="0.0" type="line"/>
      <point x="562.96875" y="1462.0" type="line"/>
      <point x="396.859375" y="1462.0" type="line"/>
    </contour>
  </outline>
</glyph>
<glyph name="J" format="2">
  <advance width="549.59375"/>
  <unicode hex="004A"/>
  <anchor x="-165.75" y="-385.390625" name="bottom"/>
  <anchor x="479.421875" y="1462.0" name="top"/>
  <anchor x="703.8125" y="1462.0" name="topright"/>
  <outline>
    <contour>
      <point x="-165.75" y="-385.390625" type="curve" smooth="yes"/>
      <point x="49.64062499999999" y="-385.390625"/>
      <point x="198.28125" y="-275.828125"/>
      <point x="255.96875" y="-4.7343750000000036" type="curve" smooth="yes"/>
      <point x="566.515625" y="1462.0" type="line"/>
      <point x="397.515625" y="1462.0" type="line"/>
      <point x="89.75" y="14.062499999999993" type="line" smooth="yes"/>
      <point x="52.859375" y="-161.5"/>
      <point x="-42.29687499999999" y="-235.3125"/>
      <point x="-169.09375" y="-235.3125" type="curve" smooth="yes"/>
      <point x="-223.65625" y="-235.3125"/>
      <point x="-274.515625" y="-227.3125"/>
      <point x="-316.609375" y="-214.875" type="curve"/>
      <point x="-322.171875" y="-361.171875" type="line"/>
      <point x="-291.1875" y="-375.171875"/>
      <point x="-230.421875" y="-385.390625"/>
    </contour>
  </outline>
</glyph>
<glyph name="L" format="2">
  <advance width="981.953125"/>
  <unicode hex="004C"/>
  <anchor x="447.78125" y="0.0" name="bottom"/>
  <anchor x="564.59375" y="731.0" name="center"/>
  <anchor x="536.125" y="1462.0" name="top"/>
  <anchor x="945.828125" y="1462.0" name="topright"/>
  <outline>
    <contour>
      <point x="85.96875" y="0.0" type="line"/>
      <point x="825.65625" y="0.0" type="line"/>
      <point x="858.03125" y="151.640625" type="line"/>
      <point x="284.671875" y="151.640625" type="line"/>
      <point x="563.1875" y="1462.0" type="line"/>
      <point x="395.078125" y="1462.0" type="line"/>
    </contour>
  </outline>
</glyph>
<glyph name="N" format="2">
  <advance width="1440.5625"/>
  <unicode hex="004E"/>
  <anchor x="604.390625" y="0.0" name="bottom"/>
  <anchor x="925.296875" y="1462.0" name="top"/>
  <anchor x="1594.78125" y="1462.0" name="topright"/>
  <outline>
    <contour>
      <point x="84.1875" y="0.0" type="line"/>
      <point x="243.5" y="0.0" type="line"/>
      <point x="416.859375" y="820.484375" type="line" smooth="yes"/>
      <point x="448.65625" y="965.109375"/>
      <point x="477.234375" y="1137.484375"/>
      <point x="489.65625" y="1227.09375" type="curve"/>
      <point x="495.4375" y="1227.09375" type="line"/>
      <point x="961.21875" y="0.0" type="line"/>
      <point x="1139.375" y="0.0" type="line"/>
      <point x="1448.375" y="1462.0" type="line"/>
      <point x="1287.609375" y="1462.0" type="line"/>
      <point x="1110.46875" y="632.390625" type="line" smooth="yes"/>
      <point x="1080.5625" y="499.875"/>
      <point x="1053.21875" y="337.234375"/>
      <point x="1039.34375" y="238.359375" type="curve"/>
      <point x="1033.5625" y="238.359375" type="line"/>
      <point x="571.234375" y="1462.0" type="line"/>
      <point x="393.296875" y="1462.0" type="line"/>
    </contour>
  </outline>
</glyph>
<glyph name="P" format="2">
  <advance width="1159.03125"/>
  <unicode hex="0050"/>
  <anchor x="464.125" y="0.0" name="bottom"/>
  <anchor x="764.4375" y="1462.0" name="top"/>
  <anchor x="1313.140625" y="1462.0" name="topright"/>
  <outline>
    <contour>
      <point x="85.96875" y="0.0" type="line"/>
      <point x="254.1875" y="0.0" type="line"/>
      <point x="376.28125" y="576.90625" type="line"/>
      <point x="524.5625" y="576.90625" type="line" smooth="yes"/>
      <point x="941.171875" y="576.90625"/>
      <point x="1159.03125" y="759.765625"/>
      <point x="1159.03125" y="1083.296875" type="curve" smooth="yes"/>
      <point x="1159.03125" y="1312.28125"/>
      <point x="1033.515625" y="1462.0"/>
      <point x="723.65625" y="1462.0" type="curve" smooth="yes"/>
      <point x="395.078125" y="1462.0" type="line"/>
    </contour>
    <contour>
      <point x="406.984375" y="719.640625" type="line"/>
      <point x="533.59375" y="1316.59375" type="line"/>
      <point x="700.296875" y="1316.59375" type="line" smooth="yes"/>
      <point x="892.546875" y="1316.59375"/>
      <point x="987.25" y="1245.75"/>
      <point x="987.25" y="1077.734375" type="curve" smooth="yes"/>
      <point x="987.25" y="835.75"/>
      <point x="823.328125" y="719.640625"/>
      <point x="551.265625" y="719.640625" type="curve" smooth="yes"/>
    </contour>
  </outline>
</glyph>
<glyph name="U" format="2">
  <advance width="1389.390625"/>
  <unicode hex="0055"/>
  <anchor x="608.25" y="0.0" name="bottom"/>
  <anchor x="890.75" y="1462.0" name="top"/>
  <anchor x="1543.609375" y="1462.0" name="topright"/>
  <outline>
    <contour>
      <point x="614.0" y="-20.0" type="curve" smooth="yes"/>
      <point x="965.203125" y="-20.0"/>
      <point x="1137.21875" y="173.953125"/>
      <point x="1205.640625" y="499.96875" type="curve" smooth="yes"/>
      <point x="1410.09375" y="1462.0" type="line"/>
      <point x="1241.984375" y="1462.0" type="line"/>
      <point x="1039.203125" y="513.53125" type="line" smooth="yes"/>
      <point x="984.234375" y="259.796875"/>
      <point x="868.953125" y="128.96875"/>
      <point x="624.015625" y="128.96875" type="curve" smooth="yes"/>
      <point x="432.203125" y="128.96875"/>
      <point x="332.40625" y="224.140625"/>
      <point x="332.40625" y="386.125" type="curve" smooth="yes"/>
      <point x="332.40625" y="429.125"/>
      <point x="340.1875" y="502.390625"/>
      <point x="354.640625" y="564.078125" type="curve" smooth="yes"/>
      <point x="545.625" y="1462.0" type="line"/>
      <point x="377.40625" y="1462.0" type="line"/>
      <point x="187.203125" y="573.4375" type="line" smooth="yes"/>
      <point x="171.75" y="498.171875"/>
      <point x="163.96875" y="430.6875"/>
      <point x="163.96875" y="383.90625" type="curve" smooth="yes"/>
      <point x="163.96875" y="124.34375"/>
      <point x="313.703125" y="-20.0"/>
    </contour>
  </outline>
</glyph>
<glyph name="V" format="2">
  <advance width="1126.28125"/>
  <unicode hex="0056"/>
  <anchor x="442.90625" y="0.0" name="bottom"/>
  <anchor x="736.09375" y="1462.0" name="top"/>
  <anchor x="1280.390625" y="1462.0" name="topright"/>
  <outline>
    <contour>
      <point x="352.015625" y="0.0" type="line"/>
      <point x="530.9375" y="0.0" type="line"/>
      <point x="1311.34375" y="1462.0" type="line"/>
      <point x="1124.09375" y="1462.0" type="line"/>
      <point x="631.8125" y="512.3125" type="line" smooth="yes"/>
      <point x="567.453125" y="387.359375"/>
      <point x="518.203125" y="286.625"/>
      <point x="478.296875" y="192.671875" type="curve"/>
      <point x="474.296875" y="192.671875" type="line"/>
      <point x="475.640625" y="287.0625"/>
      <point x="467.640625" y="402.234375"/>
      <point x="455.859375" y="510.96875" type="curve" smooth="yes"/>
      <point x="357.953125" y="1462.0" type="line"/>
      <point x="191.171875" y="1462.0" type="line"/>
    </contour>
  </outline>
</glyph>
<glyph name="e" format="2">
  <advance width="1020.25"/>
  <unicode hex="0065"/>
  <anchor x="453.125" y="0.0" name="bottom"/>
  <anchor x="640.265625" y="1096.140625" name="top"/>
  <anchor x="1095.921875" y="1096.140625" name="topright"/>
  <outline>
    <contour>
      <point x="496.875" y="-20.0" type="curve" smooth="yes"/>
      <point x="632.921875" y="-20.0"/>
      <point x="723.875" y="12.0"/>
      <point x="823.0625" y="57.46875" type="curve"/>
      <point x="823.0625" y="200.421875" type="line"/>
      <point x="719.65625" y="150.15625"/>
      <point x="631.0" y="118.28124999999999"/>
      <point x="526.46875" y="118.28124999999999" type="curve" smooth="yes"/>
      <point x="354.640625" y="118.28124999999999"/>
      <point x="270.171875" y="223.234375"/>
      <point x="270.171875" y="398.78125" type="curve" smooth="yes"/>
      <point x="270.171875" y="424.40625"/>
      <point x="272.390625" y="455.703125"/>
      <point x="274.609375" y="480.359375" type="curve"/>
      <point x="312.546875" y="480.359375" type="line" smooth="yes"/>
      <point x="754.796875" y="480.359375"/>
      <point x="958.484375" y="642.078125"/>
      <point x="958.484375" y="862.65625" type="curve" smooth="yes"/>
      <point x="958.484375" y="1020.25"/>
      <point x="851.8125" y="1116.25"/>
      <point x="650.828125" y="1116.25" type="curve" smooth="yes"/>
      <point x="314.0" y="1116.25"/>
      <point x="101.171875" y="746.6875"/>
      <point x="101.171875" y="393.4375" type="curve" smooth="yes"/>
      <point x="101.171875" y="134.515625"/>
      <point x="249.546875" y="-20.0"/>
    </contour>
    <contour>
      <point x="298.75" y="615.96875" type="line"/>
      <point x="358.859375" y="845.828125"/>
      <point x="502.609375" y="977.96875"/>
      <point x="641.046875" y="977.96875" type="curve" smooth="yes"/>
      <point x="745.09375" y="977.96875"/>
      <point x="794.828125" y="924.015625"/>
      <point x="794.828125" y="849.96875" type="curve" smooth="yes"/>
      <point x="794.828125" y="678.46875"/>
      <point x="578.4375" y="615.96875"/>
      <point x="322.828125" y="615.96875" type="curve" smooth="yes"/>
    </contour>
  </outline>
</glyph>
<glyph name="g" format="2">
  <advance width="1063.15625"/>
  <unicode hex="0067"/>
  <note>
g
</note>
  <anchor x="380.140625" y="-492.0" name="bottom"/>
  <anchor x="627.265625" y="1096.140625" name="top"/>
  <anchor x="1154.859375" y="1096.140625" name="topright"/>
  <outline>
    <contour>
      <point x="317.0" y="-492.0" type="curve" smooth="yes"/>
      <point x="658.625" y="-492.0"/>
      <point x="871.265625" y="-355.375"/>
      <point x="871.265625" y="-108.078125" type="curve" smooth="yes"/>
      <point x="871.265625" y="59.85937499999999"/>
      <point x="765.96875" y="142.953125"/>
      <point x="526.9375" y="170.53125" type="curve" smooth="yes"/>
      <point x="409.171875" y="183.984375" type="line" smooth="yes"/>
      <point x="321.78125" y="193.765625"/>
      <point x="277.109375" y="208.921875"/>
      <point x="277.109375" y="264.359375" type="curve" smooth="yes"/>
      <point x="277.109375" y="316.140625"/>
      <point x="323.0" y="363.859375"/>
      <point x="420.046875" y="399.078125" type="curve"/>
      <point x="439.8125" y="393.96875"/>
      <point x="467.8125" y="390.859375"/>
      <point x="504.046875" y="390.859375" type="curve" smooth="yes"/>
      <point x="764.921875" y="390.859375"/>
      <point x="929.3125" y="553.75"/>
      <point x="930.078125" y="805.46875" type="curve" smooth="yes"/>
      <point x="930.515625" y="872.640625"/>
      <point x="914.984375" y="928.59375"/>
      <point x="885.25" y="971.125" type="curve"/>
      <point x="1102.265625" y="992.609375" type="line"/>
      <point x="1125.734375" y="1094.25" type="line"/>
      <point x="755.5" y="1094.25" type="line"/>
      <point x="706.25" y="1107.359375"/>
      <point x="656.453125" y="1114.46875"/>
      <point x="605.328125" y="1114.46875" type="curve" smooth="yes"/>
      <point x="358.09375" y="1114.46875"/>
      <point x="182.953125" y="934.859375"/>
      <point x="182.078125" y="679.25" type="curve" smooth="yes"/>
      <point x="181.640625" y="568.03125"/>
      <point x="238.890625" y="479.078125"/>
      <point x="324.421875" y="434.765625" type="curve"/>
      <point x="204.078125" y="378.75"/>
      <point x="133.9375" y="316.09375"/>
      <point x="133.9375" y="226.171875" type="curve" smooth="yes"/>
      <point x="133.9375" y="173.28125"/>
      <point x="159.609375" y="131.625"/>
      <point x="211.0625" y="104.625" type="curve"/>
      <point x="-1.531249999999993" y="33.71875"/>
      <point x="-93.828125" y="-69.03125"/>
      <point x="-93.828125" y="-212.09375" type="curve" smooth="yes"/>
      <point x="-93.828125" y="-390.328125"/>
      <point x="60.078125" y="-492.0"/>
    </contour>
    <contour>
      <point x="323.65625" y="-370.640625" type="curve" smooth="yes"/>
      <point x="149.046875" y="-370.640625"/>
      <point x="56.578124999999986" y="-306.3125"/>
      <point x="56.578124999999986" y="-197.296875" type="curve" smooth="yes"/>
      <point x="56.578124999999986" y="-75.890625"/>
      <point x="145.234375" y="14.953125000000004"/>
      <point x="311.796875" y="50.90625000000001" type="curve"/>
      <point x="472.109375" y="35.12500000000001" type="line" smooth="yes"/>
      <point x="648.0625" y="18.234375000000007"/>
      <point x="719.078125" y="-30.640624999999993"/>
      <point x="719.078125" y="-120.859375" type="curve" smooth="yes"/>
      <point x="719.078125" y="-278.046875"/>
      <point x="571.90625" y="-370.640625"/>
    </contour>
    <contour>
      <point x="511.140625" y="500.640625" type="curve" smooth="yes"/>
      <point x="399.109375" y="500.640625"/>
      <point x="332.609375" y="564.8125"/>
      <point x="333.265625" y="684.375" type="curve" smooth="yes"/>
      <point x="334.03125" y="852.984375"/>
      <point x="432.53125" y="997.5625"/>
      <point x="602.015625" y="997.5625" type="curve" smooth="yes"/>
      <point x="715.9375" y="997.5625"/>
      <point x="780.546875" y="933.75"/>
      <point x="779.890625" y="819.171875" type="curve" smooth="yes"/>
      <point x="779.125" y="647.0"/>
      <point x="682.40625" y="500.640625"/>
    </contour>
  </outline>
</glyph>
<glyph name="i" format="2">
  <advance width="516.625"/>
  <unicode hex="0069"/>
  <anchor x="141.640625" y="0.0" name="bottom"/>
  <anchor x="462.765625" y="1503.71875" name="top"/>
  <anchor x="679.96875" y="1503.71875" name="topright"/>
  <outline>
    <contour>
      <point x="57.984375" y="0.0" type="line"/>
      <point x="224.984375" y="0.0" type="line"/>
      <point x="457.546875" y="1096.140625" type="line"/>
      <point x="291.4375" y="1096.140625" type="line"/>
    </contour>
    <contour>
      <point x="430.640625" y="1287.65625" type="curve" smooth="yes"/>
      <point x="486.5625" y="1287.65625"/>
      <point x="541.296875" y="1338.0"/>
      <point x="541.296875" y="1416.859375" type="curve" smooth="yes"/>
      <point x="541.296875" y="1470.921875"/>
      <point x="512.375" y="1503.71875"/>
      <point x="452.65625" y="1503.71875" type="curve" smooth="yes"/>
      <point x="378.703125" y="1503.71875"/>
      <point x="338.21875" y="1444.46875"/>
      <point x="338.21875" y="1378.078125" type="curve" smooth="yes"/>
      <point x="338.21875" y="1320.578125"/>
      <point x="376.703125" y="1287.65625"/>
    </contour>
  </outline>
</glyph>
<glyph name="k" format="2">
  <advance width="1001.421875"/>
  <unicode hex="006B"/>
  <anchor x="440.203125" y="0.0" name="bottom"/>
  <anchor x="495.890625" y="1556.0" name="top"/>
  <anchor x="1175.421875" y="1556.0" name="topright"/>
  <outline>
    <contour>
      <point x="56.203125" y="0.0" type="line"/>
      <point x="224.984375" y="0.0" type="line"/>
      <point x="305.21875" y="392.078125" type="line"/>
      <point x="463.609375" y="520.671875" type="line"/>
      <point x="701.171875" y="0.0" type="line"/>
      <point x="884.859375" y="0.0" type="line"/>
      <point x="589.890625" y="625.140625" type="line"/>
      <point x="1064.28125" y="1096.140625" type="line"/>
      <point x="867.140625" y="1096.140625" type="line"/>
      <point x="326.796875" y="550.703125" type="line"/>
      <point x="323.015625" y="550.703125" type="line"/>
      <point x="337.203125" y="599.546875"/>
      <point x="372.671875" y="711.5625"/>
      <point x="417.703125" y="921.375" type="curve" smooth="yes"/>
      <point x="554.09375" y="1556.0" type="line"/>
      <point x="386.09375" y="1556.0" type="line"/>
    </contour>
  </outline>
</glyph>
<glyph name="r" format="2">
  <advance width="808.765625"/>
  <unicode hex="0072"/>
  <anchor x="166.03125" y="0.0" name="bottom"/>
  <anchor x="579.5" y="1096.140625" name="top"/>
  <anchor x="884.4375" y="1096.140625" name="topright"/>
  <outline>
    <contour>
      <point x="57.984375" y="0.0" type="line"/>
      <point x="224.984375" y="0.0" type="line"/>
      <point x="331.859375" y="506.703125" type="line" smooth="yes"/>
      <point x="378.5" y="730.375"/>
      <point x="526.5" y="964.171875"/>
      <point x="729.859375" y="964.171875" type="curve" smooth="yes"/>
      <point x="765.953125" y="964.171875"/>
      <point x="799.390625" y="959.84375"/>
      <point x="835.296875" y="951.84375" type="curve"/>
      <point x="871.34375" y="1101.484375" type="line"/>
      <point x="834.78125" y="1111.59375"/>
      <point x="791.78125" y="1115.8125"/>
      <point x="752.125" y="1115.8125" type="curve" smooth="yes"/>
      <point x="592.40625" y="1115.8125"/>
      <point x="494.28125" y="997.828125"/>
      <point x="410.796875" y="884.28125" type="curve"/>
      <point x="401.453125" y="884.28125" type="line"/>
      <point x="427.28125" y="1096.140625" type="line"/>
      <point x="291.4375" y="1096.140625" type="line"/>
    </contour>
  </outline>
</glyph>
<glyph name="w" format="2">
  <advance width="1464.8125"/>
  <unicode hex="0077"/>
  <anchor x="605.546875" y="0.0" name="bottom"/>
  <anchor x="831.875" y="1096.140625" name="top"/>
  <anchor x="1539.703125" y="1096.140625" name="topright"/>
  <outline>
    <contour>
      <point x="163.75" y="0.0" type="line"/>
      <point x="358.59375" y="0.0" type="line"/>
      <point x="659.484375" y="634.015625" type="line" smooth="yes"/>
      <point x="720.984375" y="765.375"/>
      <point x="749.65625" y="833.0625"/>
      <point x="786.4375" y="931.109375" type="curve"/>
      <point x="793.78125" y="931.109375" type="line"/>
      <point x="794.21875" y="808.125"/>
      <point x="791.09375" y="719.9375"/>
      <point x="797.421875" y="616.203125" type="curve" smooth="yes"/>
      <point x="834.0" y="0.0" type="line"/>
      <point x="1032.40625" y="0.0" type="line"/>
      <point x="1541.0625" y="1096.140625" type="line"/>
      <point x="1364.828125" y="1096.140625" type="line"/>
      <point x="1111.484375" y="532.75" type="line" smooth="yes"/>
      <point x="1047.796875" y="387.578125"/>
      <point x="994.078125" y="249.75"/>
      <point x="960.390625" y="150.125" type="curve"/>
      <point x="952.828125" y="150.125" type="line"/>
      <point x="956.171875" y="249.96875"/>
      <point x="951.953125" y="388.671875"/>
      <point x="949.078125" y="489.109375" type="curve" smooth="yes"/>
      <point x="909.15625" y="1096.140625" type="line"/>
      <point x="731.0" y="1096.140625" type="line"/>
      <point x="430.40625" y="459.71875" type="line" smooth="yes"/>
      <point x="386.671875" y="369.5625"/>
      <point x="330.15625" y="233.71875"/>
      <point x="299.375" y="150.125" type="curve"/>
      <point x="291.8125" y="150.125" type="line"/>
      <point x="297.15625" y="226.8125"/>
      <point x="302.28125" y="345.921875"/>
      <point x="298.0625" y="490.890625" type="curve" smooth="yes"/>
      <point x="278.890625" y="1096.140625" type="line"/>
      <point x="116.34375" y="1096.140625" type="line"/>
    </contour>
  </outline>
</glyph>
<glyph name="cent" format="2">
  <advance width="1127.78125"/>
  <unicode hex="00A2"/>
  <outline>
    <contour>
      <point x="454.9375" y="-20.0" type="line"/>
      <point x="577.296875" y="-20.0" type="line"/>
      <point x="618.515625" y="178.875" type="line"/>
      <point x="735.453125" y="180.65625"/>
      <point x="827.90625" y="205.140625"/>
      <point x="904.296875" y="244.21875" type="curve"/>
      <point x="904.296875" y="385.84375" type="line"/>
      <point x="821.640625" y="346.40625"/>
      <point x="737.421875" y="317.9375"/>
      <point x="641.859375" y="317.9375" type="curve" smooth="yes"/>
      <point x="484.734375" y="317.9375"/>
      <point x="388.890625" y="421.953125"/>
      <point x="388.890625" y="592.21875" type="curve" smooth="yes"/>
      <point x="388.890625" y="909.5625"/>
      <point x="554.03125" y="1176.625"/>
      <point x="795.578125" y="1176.625" type="curve" smooth="yes"/>
      <point x="882.046875" y="1176.625"/>
      <point x="960.234375" y="1151.9375"/>
      <point x="1016.65625" y="1125.84375" type="curve"/>
      <point x="1063.828125" y="1265.015625" type="line"/>
      <point x="1000.828125" y="1291.5625"/>
      <point x="923.734375" y="1308.5625"/>
      <point x="843.515625" y="1314.125" type="curve"/>
      <point x="880.515625" y="1483.0" type="line"/>
      <point x="760.046875" y="1483.0" type="line"/>
      <point x="726.609375" y="1314.125" type="line"/>
      <point x="414.875" y="1270.1875"/>
      <point x="219.0" y="958.546875"/>
      <point x="219.0" y="590.21875" type="curve" smooth="yes"/>
      <point x="219.0" y="372.53125"/>
      <point x="328.4375" y="235.921875"/>
      <point x="498.15625" y="194.453125" type="curve"/>
    </contour>
  </outline>
</glyph>
<glyph name="ordfeminine" format="2">
  <advance width="690.171875"/>
  <unicode hex="00AA"/>
  <anchor x="387.6875" y="785.609375" name="bottom"/>
  <anchor x="538.703125" y="1473.0" name="top"/>
  <outline>
    <contour>
      <point x="351.171875" y="787.390625" type="curve" smooth="yes"/>
      <point x="448.296875" y="787.390625"/>
      <point x="510.484375" y="844.921875"/>
      <point x="563.265625" y="917.5625" type="curve"/>
      <point x="568.828125" y="917.5625" type="line"/>
      <point x="553.40625" y="799.84375" type="line"/>
      <point x="643.609375" y="799.84375" type="line"/>
      <point x="784.0625" y="1466.0" type="line"/>
      <point x="697.421875" y="1466.0" type="line"/>
      <point x="660.859375" y="1373.375" type="line"/>
      <point x="653.296875" y="1373.375" type="line"/>
      <point x="631.1875" y="1430.796875"/>
      <point x="585.75" y="1479.0"/>
      <point x="498.875" y="1479.0" type="curve" smooth="yes"/>
      <point x="288.578125" y="1479.0"/>
      <point x="169.75" y="1249.265625"/>
      <point x="169.75" y="1015.96875" type="curve" smooth="yes"/>
      <point x="169.75" y="866.953125"/>
      <point x="249.75" y="787.390625"/>
    </contour>
    <contour>
      <point x="385.90625" y="890.046875" type="curve" smooth="yes"/>
      <point x="322.390625" y="890.046875"/>
      <point x="283.640625" y="934.0"/>
      <point x="283.640625" y="1028.4375" type="curve" smooth="yes"/>
      <point x="283.640625" y="1202.3125"/>
      <point x="371.4375" y="1378.015625"/>
      <point x="502.0" y="1378.015625" type="curve" smooth="yes"/>
      <point x="580.40625" y="1378.015625"/>
      <point x="617.171875" y="1325.1875"/>
      <point x="617.171875" y="1243.65625" type="curve" smooth="yes"/>
      <point x="617.171875" y="1107.953125"/>
      <point x="536.484375" y="890.046875"/>
    </contour>
  </outline>
</glyph>
<glyph name="guillemotleft" format="2">
  <advance width="953.265625"/>
  <unicode hex="00AB"/>
  <outline>
    <contour>
      <point x="308.546875" y="118.328125" type="line"/>
      <point x="423.921875" y="167.828125" type="line"/>
      <point x="253.62499999999997" y="550.53125" type="line"/>
      <point x="554.75" y="883.453125" type="line"/>
      <point x="472.984375" y="965.21875" type="line"/>
      <point x="81.734375" y="582.21875" type="line"/>
      <point x="81.078125" y="555.21875" type="line"/>
    </contour>
    <contour>
      <point x="691.984375" y="118.328125" type="line"/>
      <point x="806.46875" y="167.828125" type="line"/>
      <point x="647.75" y="519.359375" type="line"/>
      <point x="937.1875" y="883.453125" type="line"/>
      <point x="848.40625" y="955.421875" type="line"/>
      <point x="476.75" y="547.484375" type="line"/>
      <point x="476.09375" y="518.703125" type="line"/>
    </contour>
  </outline>
</glyph>
<glyph name="plusminus" format="2">
  <advance width="1170.5625"/>
  <unicode hex="00B1"/>
  <outline>
    <contour>
      <point x="144.203125" y="0.0" type="line"/>
      <point x="1106.6875" y="0.0" type="line"/>
      <point x="1106.6875" y="134.5" type="line"/>
      <point x="144.203125" y="134.5" type="line"/>
    </contour>
    <component base="plus" yOffset="5.343749999999999"/>
  </outline>
</glyph>
<glyph name="threesuperior" format="2">
  <advance width="713.8125"/>
  <unicode hex="00B3"/>
  <outline>
    <contour>
      <point x="395.640625" y="838.65625" type="curve" smooth="yes"/>
      <point x="629.15625" y="838.65625"/>
      <point x="744.53125" y="954.9375"/>
      <point x="744.53125" y="1117.53125" type="curve" smooth="yes"/>
      <point x="744.53125" y="1209.421875"/>
      <point x="690.640625" y="1280.875"/>
      <point x="598.609375" y="1303.65625" type="curve"/>
      <point x="598.609375" y="1311.21875" type="line"/>
      <point x="726.546875" y="1345.015625"/>
      <point x="806.515625" y="1418.125"/>
      <point x="806.515625" y="1543.3125" type="curve" smooth="yes"/>
      <point x="806.515625" y="1661.875"/>
      <point x="724.515625" y="1748.34375"/>
      <point x="564.34375" y="1748.34375" type="curve" smooth="yes"/>
      <point x="451.4375" y="1748.34375"/>
      <point x="356.65625" y="1710.0"/>
      <point x="291.6875" y="1660.78125" type="curve"/>
      <point x="344.640625" y="1568.578125" type="line"/>
      <point x="405.265625" y="1610.234375"/>
      <point x="466.34375" y="1635.0"/>
      <point x="540.96875" y="1636.78125" type="curve" smooth="yes"/>
      <point x="626.9375" y="1638.5625"/>
      <point x="674.703125" y="1595.703125"/>
      <point x="674.703125" y="1516.828125" type="curve" smooth="yes"/>
      <point x="674.703125" y="1417.90625"/>
      <point x="585.78125" y="1361.046875"/>
      <point x="458.046875" y="1361.046875" type="curve" smooth="yes"/>
      <point x="363.828125" y="1361.046875" type="line"/>
      <point x="340.46875" y="1254.828125" type="line"/>
      <point x="434.6875" y="1254.828125" type="line" smooth="yes"/>
      <point x="550.75" y="1254.828125"/>
      <point x="611.828125" y="1208.515625"/>
      <point x="611.828125" y="1121.09375" type="curve" smooth="yes"/>
      <point x="611.828125" y="1012.859375"/>
      <point x="540.703125" y="947.546875"/>
      <point x="400.09375" y="947.546875" type="curve" smooth="yes"/>
      <point x="319.21875" y="947.546875"/>
      <point x="233.078125" y="977.671875"/>
      <point x="161.078125" y="1017.90625" type="curve"/>
      <point x="161.078125" y="893.21875" type="line"/>
      <point x="223.640625" y="860.4375"/>
      <point x="305.640625" y="838.65625"/>
    </contour>
  </outline>
</glyph>
<glyph name="micro" format="2">
  <advance width="1190.5625"/>
  <unicode hex="00B5"/>
  <outline>
    <contour>
      <point x="-45.0" y="-490.140625" type="line"/>
      <point x="117.54687499999999" y="-490.140625" type="line"/>
      <point x="183.328125" y="-176.21875" type="line" smooth="yes"/>
      <point x="195.296875" y="-112.24999999999999"/>
      <point x="217.1875" y="19.687500000000007"/>
      <point x="226.734375" y="82.53125000000001" type="curve"/>
      <point x="234.296875" y="82.53125000000001" type="line"/>
      <point x="268.421875" y="14.015625000000007"/>
      <point x="325.28125" y="-20.0"/>
      <point x="406.359375" y="-20.0" type="curve" smooth="yes"/>
      <point x="582.703125" y="-20.0"/>
      <point x="698.53125" y="102.484375"/>
      <point x="778.09375" y="211.96875" type="curve"/>
      <point x="787.4375" y="211.96875" type="line"/>
      <point x="761.609375" y="0.0" type="line"/>
      <point x="897.453125" y="0.0" type="line"/>
      <point x="1130.90625" y="1096.140625" type="line"/>
      <point x="968.359375" y="1096.140625" type="line"/>
      <point x="862.265625" y="612.25" type="line" smooth="yes"/>
      <point x="783.140625" y="255.546875"/>
      <point x="589.75" y="118.28124999999999"/>
      <point x="445.3125" y="118.28124999999999" type="curve" smooth="yes"/>
      <point x="339.5" y="118.28124999999999"/>
      <point x="292.234375" y="175.546875"/>
      <point x="292.234375" y="270.0625" type="curve" smooth="yes"/>
      <point x="292.234375" y="300.953125"/>
      <point x="297.796875" y="343.515625"/>
      <point x="311.125" y="405.046875" type="curve" smooth="yes"/>
      <point x="456.453125" y="1096.140625" type="line"/>
      <point x="290.34375" y="1096.140625" type="line"/>
    </contour>
  </outline>
</glyph>
<glyph name="paragraph" format="2">
  <advance width="1341.0"/>
  <unicode hex="00B6"/>
  <outline>
    <contour>
      <point x="757.703125" y="-260.0" type="line"/>
      <point x="869.59375" y="-260.0" type="line"/>
      <point x="869.59375" y="1408.8125" type="line"/>
      <point x="1084.8125" y="1408.8125" type="line"/>
      <point x="1084.8125" y="-260.0" type="line"/>
      <point x="1196.59375" y="-260.0" type="line"/>
      <point x="1196.59375" y="1556.0" type="line"/>
      <point x="642.8125" y="1556.0" type="line" smooth="yes"/>
      <point x="376.5625" y="1556.0"/>
      <point x="201.671875" y="1430.609375"/>
      <point x="201.671875" y="1052.828125" type="curve" smooth="yes"/>
      <point x="201.671875" y="693.046875"/>
      <point x="360.765625" y="559.375"/>
      <point x="611.8125" y="559.375" type="curve" smooth="yes"/>
      <point x="669.921875" y="559.375"/>
      <point x="716.265625" y="565.375"/>
      <point x="757.703125" y="577.375" type="curve"/>
    </contour>
  </outline>
</glyph>
<glyph name="onesuperior" format="2">
  <advance width="713.8125"/>
  <unicode hex="00B9"/>
  <outline>
    <contour>
      <point x="389.4375" y="850.21875" type="line"/>
      <point x="525.59375" y="850.21875" type="line"/>
      <point x="711.59375" y="1726.328125" type="line"/>
      <point x="593.78125" y="1726.328125" type="line"/>
      <point x="301.90625" y="1542.484375" type="line"/>
      <point x="355.078125" y="1452.0625" type="line"/>
      <point x="461.421875" y="1519.09375" type="line" smooth="yes"/>
      <point x="498.359375" y="1545.1875"/>
      <point x="531.125" y="1574.984375"/>
      <point x="556.96875" y="1595.96875" type="curve"/>
      <point x="540.53125" y="1536.671875"/>
      <point x="513.96875" y="1439.765625"/>
      <point x="499.75" y="1370.453125" type="curve" smooth="yes"/>
    </contour>
  </outline>
</glyph>
<glyph name="ordmasculine" format="2">
  <advance width="696.953125"/>
  <unicode hex="00BA"/>
  <anchor x="395.0" y="786.734375" name="bottom"/>
  <anchor x="537.0" y="1491.0" name="top"/>
  <outline>
    <contour>
      <point x="425.125" y="786.734375" type="curve" smooth="yes"/>
      <point x="657.515625" y="786.734375"/>
      <point x="760.21875" y="1005.015625"/>
      <point x="760.21875" y="1218.96875" type="curve" smooth="yes"/>
      <point x="760.21875" y="1369.09375"/>
      <point x="686.0" y="1479.65625"/>
      <point x="516.734375" y="1479.65625" type="curve" smooth="yes"/>
      <point x="294.796875" y="1479.65625"/>
      <point x="177.859375" y="1270.484375"/>
      <point x="177.859375" y="1053.875" type="curve" smooth="yes"/>
      <point x="177.859375" y="876.703125"/>
      <point x="283.578125" y="786.734375"/>
    </contour>
    <contour>
      <point x="434.25" y="887.609375" type="curve" smooth="yes"/>
      <point x="343.734375" y="887.609375"/>
      <point x="291.640625" y="945.34375"/>
      <point x="291.640625" y="1057.4375" type="curve" smooth="yes"/>
      <point x="291.640625" y="1227.234375"/>
      <point x="367.875" y="1377.0"/>
      <point x="512.734375" y="1377.0" type="curve" smooth="yes"/>
      <point x="596.234375" y="1377.0"/>
      <point x="648.0" y="1325.515625"/>
      <point x="648.0" y="1212.296875" type="curve" smooth="yes"/>
      <point x="648.0" y="1046.703125"/>
      <point x="574.421875" y="887.609375"/>
    </contour>
  </outline>
</glyph>
<glyph name="Eth" format="2">
  <advance width="1368.1875"/>
  <unicode hex="00D0"/>
  <anchor x="568.421875" y="0.0" name="bottom"/>
  <anchor x="880.3125" y="1462.0" name="top"/>
  <outline>
    <contour>
      <point x="85.96875" y="0.0" type="line"/>
      <point x="439.296875" y="0.0" type="line" smooth="yes"/>
      <point x="999.296875" y="0.0"/>
      <point x="1303.21875" y="376.578125"/>
      <point x="1303.21875" y="878.015625" type="curve" smooth="yes"/>
      <point x="1303.21875" y="1273.5625"/>
      <point x="1090.796875" y="1462.0"/>
      <point x="735.71875" y="1462.0" type="curve" smooth="yes"/>
      <point x="395.078125" y="1462.0" type="line"/>
      <point x="253.09375" y="797.640625" type="line"/>
      <point x="101.78125" y="797.640625" type="line"/>
      <point x="70.40625" y="651.234375" type="line"/>
      <point x="220.828125" y="651.234375" type="line"/>
    </contour>
    <contour>
      <point x="284.671875" y="146.296875" type="line"/>
      <point x="390.71875" y="651.234375" type="line"/>
      <point x="721.03125" y="651.234375" type="line"/>
      <point x="753.515625" y="797.640625" type="line"/>
      <point x="422.984375" y="797.640625" type="line"/>
      <point x="533.59375" y="1316.59375" type="line"/>
      <point x="713.828125" y="1316.59375" type="line" smooth="yes"/>
      <point x="964.171875" y="1316.59375"/>
      <point x="1125.203125" y="1186.671875"/>
      <point x="1125.203125" y="879.796875" type="curve" smooth="yes"/>
      <point x="1125.203125" y="468.515625"/>
      <point x="887.96875" y="146.296875"/>
      <point x="449.3125" y="146.296875" type="curve" smooth="yes"/>
    </contour>
  </outline>
</glyph>
<glyph name="Oslash" format="2">
  <advance width="1475.796875"/>
  <unicode hex="00D8"/>
  <anchor x="622.453125" y="0.0" name="bottom"/>
  <anchor x="933.5625" y="1462.0" name="top"/>
  <outline>
    <contour>
      <point x="217.359375" y="-80.609375" type="line"/>
      <point x="351.578125" y="83.18750000000001" type="line"/>
      <point x="441.265625" y="14.265625000000007"/>
      <point x="549.890625" y="-20.0"/>
      <point x="689.34375" y="-20.0" type="curve" smooth="yes"/>
      <point x="1171.09375" y="-20.0"/>
      <point x="1409.828125" y="423.890625"/>
      <point x="1409.828125" y="909.4375" type="curve" smooth="yes"/>
      <point x="1409.828125" y="1052.3125"/>
      <point x="1375.375" y="1182.4375"/>
      <point x="1313.359375" y="1266.65625" type="curve"/>
      <point x="1465.171875" y="1449.828125" type="line"/>
      <point x="1354.921875" y="1537.375" type="line"/>
      <point x="1220.125" y="1371.328125" type="line"/>
      <point x="1128.78125" y="1447.8125"/>
      <point x="1021.390625" y="1485.0"/>
      <point x="886.5625" y="1485.0" type="curve" smooth="yes"/>
      <point x="422.609375" y="1485.0"/>
      <point x="149.734375" y="1046.953125"/>
      <point x="149.734375" y="548.96875" type="curve" smooth="yes"/>
      <point x="149.734375" y="403.953125"/>
      <point x="181.859375" y="277.171875"/>
      <point x="252.21875" y="180.734375" type="curve"/>
      <point x="110.0" y="7.1562499999999964" type="line"/>
    </contour>
    <contour>
      <point x="694.90625" y="128.96875" type="curve" smooth="yes"/>
      <point x="592.375" y="128.96875"/>
      <point x="509.671875" y="159.90625"/>
      <point x="452.59375" y="209.6875" type="curve"/>
      <point x="1197.875" y="1119.453125" type="line"/>
      <point x="1218.828125" y="1065.0625"/>
      <point x="1232.8125" y="992.578125"/>
      <point x="1232.8125" y="912.78125" type="curve" smooth="yes"/>
      <point x="1232.8125" y="509.84375"/>
      <point x="1039.859375" y="128.96875"/>
    </contour>
    <contour>
      <point x="369.59375" y="326.15625" type="line"/>
      <point x="342.40625" y="386.328125"/>
      <point x="327.640625" y="466.046875"/>
      <point x="327.640625" y="552.75" type="curve" smooth="yes"/>
      <point x="327.640625" y="970.984375"/>
      <point x="530.375" y="1336.921875"/>
      <point x="874.546875" y="1336.921875" type="curve" smooth="yes"/>
      <point x="976.984375" y="1336.921875"/>
      <point x="1056.578125" y="1302.96875"/>
      <point x="1116.328125" y="1244.828125" type="curve"/>
    </contour>
  </outline>
</glyph>
<glyph name="oslash" format="2">
  <advance width="1153.4375"/>
  <unicode hex="00F8"/>
  <anchor x="461.4375" y="0.0" name="bottom"/>
  <anchor x="694.0" y="1096.140625" name="top"/>
  <outline>
    <contour>
      <point x="152.796875" y="-75.921875" type="line"/>
      <point x="258.234375" y="54.00000000000001" type="line"/>
      <point x="323.25" y="8.734375000000004"/>
      <point x="408.34375" y="-16.4375"/>
      <point x="507.265625" y="-16.4375" type="curve" smooth="yes"/>
      <point x="868.0625" y="-16.4375"/>
      <point x="1052.015625" y="361.78125"/>
      <point x="1052.015625" y="703.578125" type="curve" smooth="yes"/>
      <point x="1052.015625" y="795.140625"/>
      <point x="1033.125" y="892.953125"/>
      <point x="991.0" y="958.953125" type="curve"/>
      <point x="1112.015625" y="1091.09375" type="line"/>
      <point x="1010.890625" y="1167.28125" type="line"/>
      <point x="904.21875" y="1038.6875" type="line"/>
      <point x="838.65625" y="1085.953125"/>
      <point x="756.015625" y="1110.90625"/>
      <point x="650.390625" y="1110.90625" type="curve" smooth="yes"/>
      <point x="292.984375" y="1110.90625"/>
      <point x="101.421875" y="749.96875"/>
      <point x="101.421875" y="404.578125" type="curve" smooth="yes"/>
      <point x="101.421875" y="299.21875"/>
      <point x="123.65625" y="213.875"/>
      <point x="169.5625" y="144.421875" type="curve"/>
      <point x="51.67187499999999" y="2.8281249999999964" type="line"/>
    </contour>
    <contour>
      <point x="515.15625" y="118.28124999999999" type="curve" smooth="yes"/>
      <point x="449.59375" y="118.28124999999999"/>
      <point x="390.09375" y="135.453125"/>
      <point x="352.125" y="169.59375" type="curve"/>
      <point x="875.40625" y="805.0625" type="line"/>
      <point x="885.265625" y="778.78125"/>
      <point x="891.03125" y="734.828125"/>
      <point x="891.03125" y="686.875" type="curve" smooth="yes"/>
      <point x="891.03125" y="342.25"/>
      <point x="722.84375" y="118.28124999999999"/>
    </contour>
    <contour>
      <point x="281.59375" y="282.28125" type="line"/>
      <point x="270.171875" y="309.234375"/>
      <point x="262.40625" y="356.859375"/>
      <point x="262.40625" y="415.265625" type="curve" smooth="yes"/>
      <point x="262.40625" y="716.625"/>
      <point x="418.171875" y="974.40625"/>
      <point x="651.734375" y="974.40625" type="curve" smooth="yes"/>
      <point x="728.328125" y="974.40625"/>
      <point x="776.03125" y="950.78125"/>
      <point x="809.328125" y="921.53125" type="curve"/>
    </contour>
  </outline>
</glyph>
<glyph name="dcroat" format="2">
  <advance width="1183.484375"/>
  <unicode hex="0111"/>
  <anchor x="475.90625" y="0.0" name="bottom"/>
  <anchor x="807.6875" y="1556.0" name="top"/>
  <outline>
    <contour>
      <point x="397.953125" y="-20.0" type="curve" smooth="yes"/>
      <point x="558.40625" y="-20.0"/>
      <point x="675.78125" y="88.453125"/>
      <point x="771.59375" y="211.96875" type="curve"/>
      <point x="779.15625" y="211.96875" type="line"/>
      <point x="752.4375" y="0.0" type="line"/>
      <point x="889.171875" y="0.0" type="line"/>
      <point x="1152.265625" y="1242.796875" type="line"/>
      <point x="1302.046875" y="1242.796875" type="line"/>
      <point x="1328.296875" y="1368.609375" type="line"/>
      <point x="1179.515625" y="1368.609375" type="line"/>
      <point x="1219.171875" y="1556.0" type="line"/>
      <point x="1053.953125" y="1556.0" type="line"/>
      <point x="1016.96875" y="1368.609375" type="line"/>
      <point x="636.34375" y="1368.609375" type="line"/>
      <point x="611.203125" y="1242.796875" type="line"/>
      <point x="986.15625" y="1242.796875" type="line"/>
      <point x="959.84375" y="1113.78125" type="line" smooth="yes"/>
      <point x="947.1875" y="1050.046875"/>
      <point x="937.765625" y="974.984375"/>
      <point x="930.890625" y="921.28125" type="curve"/>
      <point x="920.65625" y="921.28125" type="line"/>
      <point x="878.609375" y="1023.109375"/>
      <point x="789.84375" y="1116.25"/>
      <point x="634.609375" y="1116.25" type="curve" smooth="yes"/>
      <point x="297.46875" y="1116.25"/>
      <point x="98.65625" y="747.65625"/>
      <point x="98.65625" y="355.203125" type="curve" smooth="yes"/>
      <point x="98.65625" y="108.953125"/>
      <point x="219.65625" y="-20.0"/>
    </contour>
    <contour>
      <point x="453.828125" y="118.28124999999999" type="curve" smooth="yes"/>
      <point x="332.8125" y="118.28124999999999"/>
      <point x="269.546875" y="198.296875"/>
      <point x="269.546875" y="351.640625" type="curve" smooth="yes"/>
      <point x="269.546875" y="660.171875"/>
      <point x="416.84375" y="977.96875"/>
      <point x="648.640625" y="977.96875" type="curve" smooth="yes"/>
      <point x="795.15625" y="977.96875"/>
      <point x="864.0625" y="886.546875"/>
      <point x="864.0625" y="744.5625" type="curve" smooth="yes"/>
      <point x="864.0625" y="415.078125"/>
      <point x="643.53125" y="118.28124999999999"/>
    </contour>
  </outline>
</glyph>
<glyph name="kgreenlandic" format="2">
  <advance width="1001.421875"/>
  <unicode hex="0138"/>
  <anchor x="384.984375" y="0.0" name="bottom"/>
  <anchor x="618.4375" y="1096.140625" name="top"/>
  <outline>
    <contour>
      <point x="56.203125" y="0.0" type="line"/>
      <point x="224.984375" y="0.0" type="line"/>
      <point x="305.21875" y="392.078125" type="line"/>
      <point x="463.609375" y="520.671875" type="line"/>
      <point x="701.171875" y="0.0" type="line"/>
      <point x="884.859375" y="0.0" type="line"/>
      <point x="589.890625" y="625.140625" type="line"/>
      <point x="1064.28125" y="1096.140625" type="line"/>
      <point x="867.140625" y="1096.140625" type="line"/>
      <point x="326.796875" y="548.921875" type="line"/>
      <point x="323.015625" y="548.921875" type="line"/>
      <point x="340.546875" y="611.8125"/>
      <point x="372.671875" y="711.78125"/>
      <point x="394.546875" y="817.171875" type="curve" smooth="yes"/>
      <point x="455.765625" y="1096.140625" type="line"/>
      <point x="287.875" y="1096.140625" type="line"/>
    </contour>
  </outline>
</glyph>
<glyph name="eng" format="2">
  <advance width="1180.203125"/>
  <unicode hex="014B"/>
  <anchor x="370.265625" y="-492.0" name="bottom"/>
  <anchor x="707.828125" y="1096.140625" name="top"/>
  <anchor x="1255.875" y="1096.140625" name="topright"/>
  <outline>
    <contour>
      <point x="537.875" y="-492.0" type="curve" smooth="yes"/>
      <point x="733.015625" y="-492.0"/>
      <point x="821.234375" y="-367.46875"/>
      <point x="863.359375" y="-169.40625" type="curve" smooth="yes"/>
      <point x="1042.875" y="671.5" type="line" smooth="yes"/>
      <point x="1054.765625" y="731.078125"/>
      <point x="1064.328125" y="785.421875"/>
      <point x="1064.328125" y="846.6875" type="curve" smooth="yes"/>
      <point x="1064.328125" y="1022.46875"/>
      <point x="957.3125" y="1116.25"/>
      <point x="788.21875" y="1116.25" type="curve" smooth="yes"/>
      <point x="606.625" y="1116.25"/>
      <point x="487.59375" y="987.453125"/>
      <point x="410.796875" y="884.28125" type="curve"/>
      <point x="401.453125" y="884.28125" type="line"/>
      <point x="427.28125" y="1096.140625" type="line"/>
      <point x="291.4375" y="1096.140625" type="line"/>
      <point x="57.984375" y="0.0" type="line"/>
      <point x="224.984375" y="0.0" type="line"/>
      <point x="327.0625" y="482.625" type="line" smooth="yes"/>
      <point x="400.546875" y="831.921875"/>
      <point x="594.1875" y="976.1875"/>
      <point x="742.8125" y="976.1875" type="curve" smooth="yes"/>
      <point x="848.625" y="976.1875"/>
      <point x="898.109375" y="920.4375"/>
      <point x="898.109375" y="828.78125" type="curve" smooth="yes"/>
      <point x="898.109375" y="791.21875"/>
      <point x="890.546875" y="750.21875"/>
      <point x="877.875" y="690.078125" type="curve" smooth="yes"/>
      <point x="699.140625" y="-149.828125" type="line" smooth="yes"/>
      <point x="671.359375" y="-283.953125"/>
      <point x="614.265625" y="-352.71875"/>
      <point x="530.078125" y="-352.71875" type="curve" smooth="yes"/>
      <point x="485.734375" y="-352.71875"/>
      <point x="448.078125" y="-343.15625"/>
      <point x="412.40625" y="-329.828125" type="curve"/>
      <point x="412.40625" y="-471.0" type="line"/>
      <point x="445.859375" y="-483.0"/>
      <point x="488.203125" y="-492.0"/>
    </contour>
  </outline>
</glyph>
<glyph name="oe" format="2">
  <advance width="1779.359375"/>
  <unicode hex="0153"/>
  <anchor x="772.953125" y="0.0" name="bottom"/>
  <anchor x="1006.40625" y="1096.140625" name="top"/>
  <outline>
    <contour>
      <point x="494.828125" y="-16.4375" type="curve" smooth="yes"/>
      <point x="675.96875" y="-16.4375"/>
      <point x="809.921875" y="73.578125"/>
      <point x="895.703125" y="211.109375" type="curve"/>
      <point x="951.421875" y="55.734375"/>
      <point x="1082.0" y="-20.0"/>
      <point x="1255.3125" y="-20.0" type="curve" smooth="yes"/>
      <point x="1375.4375" y="-20.0"/>
      <point x="1475.21875" y="4.875000000000001"/>
      <point x="1579.1875" y="55.0" type="curve"/>
      <point x="1578.3125" y="201.296875" type="line"/>
      <point x="1474.125" y="153.71875"/>
      <point x="1389.4375" y="118.28124999999999"/>
      <point x="1285.796875" y="118.28124999999999" type="curve" smooth="yes"/>
      <point x="1112.875" y="118.28124999999999"/>
      <point x="1026.421875" y="224.109375"/>
      <point x="1026.421875" y="398.78125" type="curve" smooth="yes"/>
      <point x="1026.421875" y="424.40625"/>
      <point x="1028.640625" y="455.703125"/>
      <point x="1030.859375" y="480.359375" type="curve"/>
      <point x="1076.8125" y="480.359375" type="line" smooth="yes"/>
      <point x="1519.0625" y="480.359375"/>
      <point x="1714.734375" y="642.078125"/>
      <point x="1714.734375" y="863.859375" type="curve" smooth="yes"/>
      <point x="1714.734375" y="1032.71875"/>
      <point x="1592.140625" y="1115.59375"/>
      <point x="1419.96875" y="1115.59375" type="curve" smooth="yes"/>
      <point x="1251.65625" y="1115.59375"/>
      <point x="1108.03125" y="1025.03125"/>
      <point x="1010.359375" y="875.71875" type="curve"/>
      <point x="960.734375" y="1011.90625"/>
      <point x="857.53125" y="1110.90625"/>
      <point x="656.5625" y="1110.90625" type="curve" smooth="yes"/>
      <point x="291.234375" y="1110.90625"/>
      <point x="99.640625" y="749.96875"/>
      <point x="99.640625" y="404.578125" type="curve" smooth="yes"/>
      <point x="99.640625" y="145.546875"/>
      <point x="251.046875" y="-16.4375"/>
    </contour>
    <contour>
      <point x="504.390625" y="121.84374999999999" type="curve" smooth="yes"/>
      <point x="356.390625" y="121.84374999999999"/>
      <point x="268.640625" y="222.765625"/>
      <point x="268.640625" y="408.140625" type="curve" smooth="yes"/>
      <point x="268.640625" y="714.84375"/>
      <point x="416.203125" y="972.625"/>
      <point x="649.0" y="972.625" type="curve" smooth="yes"/>
      <point x="808.140625" y="972.625"/>
      <point x="882.09375" y="866.265625"/>
      <point x="882.09375" y="707.359375" type="curve" smooth="yes"/>
      <point x="882.09375" y="376.984375"/>
      <point x="750.625" y="121.84374999999999"/>
    </contour>
    <contour>
      <point x="1050.4375" y="615.96875" type="line"/>
      <point x="1111.984375" y="854.40625"/>
      <point x="1257.765625" y="977.203125"/>
      <point x="1417.3125" y="977.203125" type="curve" smooth="yes"/>
      <point x="1506.015625" y="977.203125"/>
      <point x="1551.859375" y="924.015625"/>
      <point x="1551.859375" y="856.515625" type="curve" smooth="yes"/>
      <point x="1551.859375" y="678.46875"/>
      <point x="1335.578125" y="615.96875"/>
      <point x="1079.078125" y="615.96875" type="curve" smooth="yes"/>
    </contour>
  </outline>
</glyph>
<glyph name="Tbar" format="2">
  <advance width="1022.390625"/>
  <unicode hex="0166"/>
  <anchor x="395.46875" y="0.0" name="bottom"/>
  <anchor x="707.359375" y="1462.0" name="top"/>
  <outline>
    <contour>
      <point x="315.484375" y="0.0" type="line"/>
      <point x="486.375" y="0.0" type="line"/>
      <point x="628.6875" y="676.234375" type="line"/>
      <point x="923.921875" y="676.234375" type="line"/>
      <point x="951.84375" y="814.515625" type="line"/>
      <point x="657.390625" y="814.515625" type="line"/>
      <point x="764.890625" y="1312.140625" type="line"/>
      <point x="1173.453125" y="1312.140625" type="line"/>
      <point x="1203.15625" y="1462.0" type="line"/>
      <point x="217.03125" y="1462.0" type="line"/>
      <point x="184.65625" y="1312.140625" type="line"/>
      <point x="593.109375" y="1312.140625" type="line"/>
      <point x="484.828125" y="814.515625" type="line"/>
      <point x="200.921875" y="814.515625" type="line"/>
      <point x="170.4375" y="676.234375" type="line"/>
      <point x="458.796875" y="676.234375" type="line"/>
    </contour>
  </outline>
</glyph>
<glyph name="longs" format="2">
  <advance width="575.734375"/>
  <unicode hex="017F"/>
  <anchor x="67.921875" y="-492.0" name="bottom"/>
  <anchor x="505.703125" y="1567.0" name="top"/>
  <outline>
    <contour>
      <point x="-136.140625" y="-492.0" type="curve" smooth="yes"/>
      <point x="56.515624999999986" y="-492.0"/>
      <point x="148.984375" y="-361.90625"/>
      <point x="197.109375" y="-138.625" type="curve" smooth="yes"/>
      <point x="481.828125" y="1209.0" type="line" smooth="yes"/>
      <point x="515.28125" y="1375.171875"/>
      <point x="576.15625" y="1429.609375"/>
      <point x="691.59375" y="1429.609375" type="curve" smooth="yes"/>
      <point x="740.8125" y="1429.609375"/>
      <point x="789.796875" y="1416.15625"/>
      <point x="827.90625" y="1401.71875" type="curve"/>
      <point x="872.515625" y="1529.3125" type="line"/>
      <point x="829.03125" y="1548.0"/>
      <point x="752.4375" y="1567.0"/>
      <point x="681.125" y="1567.0" type="curve" smooth="yes"/>
      <point x="481.734375" y="1567.0"/>
      <point x="371.1875" y="1481.359375"/>
      <point x="313.265625" y="1209.875" type="curve" smooth="yes"/>
      <point x="33.0" y="-119.93750000000001" type="line" smooth="yes"/>
      <point x="1.3437499999999991" y="-278.359375"/>
      <point x="-61.765625" y="-352.71875"/>
      <point x="-148.609375" y="-352.71875" type="curve" smooth="yes"/>
      <point x="-190.953125" y="-352.71875"/>
      <point x="-227.046875" y="-342.71875"/>
      <point x="-260.953125" y="-329.828125" type="curve"/>
      <point x="-260.953125" y="-471.0" type="line"/>
      <point x="-229.265625" y="-482.78125"/>
      <point x="-185.609375" y="-492.0"/>
    </contour>
  </outline>
</glyph>
<glyph name="uni0190" format="2">
  <advance width="1092.8125"/>
  <unicode hex="0190"/>
  <anchor x="429.734375" y="0.0" name="bottom"/>
  <anchor x="740.84375" y="1462.0" name="top"/>
  <outline>
    <contour>
      <point x="536.21875" y="-20.0" type="curve" smooth="yes"/>
      <point x="695.078125" y="-20.0"/>
      <point x="830.34375" y="8.078125000000004"/>
      <point x="950.203125" y="65.453125" type="curve"/>
      <point x="950.203125" y="220.09375" type="line"/>
      <point x="824.046875" y="160.625"/>
      <point x="681.078125" y="120.06249999999999"/>
      <point x="541.5625" y="120.06249999999999" type="curve" smooth="yes"/>
      <point x="347.0625" y="120.06249999999999"/>
      <point x="246.40625" y="210.328125"/>
      <point x="246.40625" y="358.03125" type="curve" smooth="yes"/>
      <point x="246.40625" y="591.3125"/>
      <point x="427.09375" y="685.796875"/>
      <point x="715.078125" y="685.796875" type="curve" smooth="yes"/>
      <point x="908.484375" y="685.796875" type="line"/>
      <point x="938.40625" y="828.53125" type="line"/>
      <point x="756.625" y="828.53125" type="line" smooth="yes"/>
      <point x="543.84375" y="828.53125"/>
      <point x="454.671875" y="917.296875"/>
      <point x="454.671875" y="1055.40625" type="curve" smooth="yes"/>
      <point x="454.671875" y="1243.015625"/>
      <point x="585.203125" y="1342.046875"/>
      <point x="760.34375" y="1342.046875" type="curve" smooth="yes"/>
      <point x="905.8125" y="1342.046875"/>
      <point x="999.03125" y="1301.484375"/>
      <point x="1095.421875" y="1230.5625" type="curve"/>
      <point x="1173.625" y="1346.25" type="line"/>
      <point x="1036.609375" y="1441.5625"/>
      <point x="943.9375" y="1483.0"/>
      <point x="762.890625" y="1483.0" type="curve" smooth="yes"/>
      <point x="490.3125" y="1483.0"/>
      <point x="283.0" y="1336.15625"/>
      <point x="283.0" y="1065.65625" type="curve" smooth="yes"/>
      <point x="283.0" y="910.78125"/>
      <point x="369.140625" y="813.0"/>
      <point x="498.171875" y="778.90625" type="curve"/>
      <point x="496.390625" y="771.34375" type="line"/>
      <point x="250.4375" y="734.5625"/>
      <point x="71.0625" y="627.171875"/>
      <point x="71.0625" y="348.6875" type="curve" smooth="yes"/>
      <point x="71.0625" y="143.46875"/>
      <point x="209.65625" y="-20.0"/>
    </contour>
  </outline>
</glyph>
<glyph name="uni0191" format="2">
  <advance width="1141.4375"/>
  <unicode hex="0191"/>
  <anchor x="163.953125" y="0.0" name="bottom"/>
  <anchor x="869.859375" y="1462.0" name="top"/>
  <anchor x="1317.84375" y="1462.0" name="topright"/>
  <outline>
    <contour>
      <point x="189.171875" y="-23.0" type="curve" smooth="yes"/>
      <point x="377.609375" y="-23.0"/>
      <point x="485.46875" y="100.265625"/>
      <point x="540.03125" y="363.859375" type="curve" smooth="yes"/>
      <point x="608.234375" y="688.671875" type="line"/>
      <point x="1100.65625" y="688.671875" type="line"/>
      <point x="1133.140625" y="838.640625" type="line"/>
      <point x="640.71875" y="838.640625" type="line"/>
      <point x="738.546875" y="1312.140625" type="line"/>
      <point x="1267.96875" y="1312.140625" type="line"/>
      <point x="1297.5625" y="1462.0" type="line"/>
      <point x="602.703125" y="1462.0" type="line"/>
      <point x="375.484375" y="383.0" type="line" smooth="yes"/>
      <point x="337.828125" y="207.171875"/>
      <point x="286.71875" y="126.96874999999999"/>
      <point x="194.296875" y="126.96874999999999" type="curve" smooth="yes"/>
      <point x="115.76562499999999" y="126.96874999999999"/>
      <point x="76.79687499999999" y="186.65625"/>
      <point x="76.79687499999999" y="249.921875" type="curve" smooth="yes"/>
      <point x="76.79687499999999" y="279.4375"/>
      <point x="81.45312499999999" y="299.1875"/>
      <point x="88.10937499999999" y="319.046875" type="curve"/>
      <point x="-55.734375" y="374.5625" type="line"/>
      <point x="-75.75" y="332.4375"/>
      <point x="-85.96875" y="291.21875"/>
      <point x="-85.96875" y="241.5625" type="curve" smooth="yes"/>
      <point x="-85.96875" y="97.09375"/>
      <point x="12.640624999999993" y="-23.0"/>
    </contour>
  </outline>
</glyph>
<glyph name="florin" format="2">
  <advance width="1127.78125"/>
  <unicode hex="0192"/>
  <anchor x="-54.99999999999994" y="-492.21875" name="bottom"/>
  <anchor x="364.10937500000006" y="1483.0" name="top"/>
  <outline>
    <contour>
      <point x="128.5625" y="-492.21875" type="curve" smooth="yes"/>
      <point x="319.03125" y="-492.21875"/>
      <point x="411.25" y="-362.5625"/>
      <point x="458.71875" y="-141.578125" type="curve" smooth="yes"/>
      <point x="665.4375" y="839.5" type="line"/>
      <point x="903.203125" y="839.5" type="line"/>
      <point x="928.5625" y="965.421875" type="line"/>
      <point x="691.578125" y="965.421875" type="line"/>
      <point x="723.890625" y="1118.21875" type="line" smooth="yes"/>
      <point x="759.984375" y="1292.265625"/>
      <point x="820.515625" y="1345.609375"/>
      <point x="936.625" y="1345.609375" type="curve" smooth="yes"/>
      <point x="987.515625" y="1345.609375"/>
      <point x="1033.171875" y="1331.9375"/>
      <point x="1072.171875" y="1317.71875" type="curve"/>
      <point x="1115.78125" y="1445.09375" type="line"/>
      <point x="1073.0" y="1464.65625"/>
      <point x="996.171875" y="1483.0"/>
      <point x="927.71875" y="1483.0" type="curve" smooth="yes"/>
      <point x="725.703125" y="1483.0"/>
      <point x="609.0" y="1391.609375"/>
      <point x="556.109375" y="1119.09375" type="curve" smooth="yes"/>
      <point x="527.140625" y="970.765625" type="line"/>
      <point x="321.921875" y="909.4375" type="line"/>
      <point x="310.140625" y="839.5" type="line"/>
      <point x="501.109375" y="839.5" type="line"/>
      <point x="296.171875" y="-123.76562500000001" type="line" smooth="yes"/>
      <point x="265.609375" y="-277.046875"/>
      <point x="200.5" y="-352.9375"/>
      <point x="116.3125" y="-352.9375" type="curve" smooth="yes"/>
      <point x="71.96875" y="-352.9375"/>
      <point x="36.09375" y="-343.375"/>
      <point x="1.3125000000000018" y="-330.046875" type="curve"/>
      <point x="1.3125000000000018" y="-471.4375" type="line"/>
      <point x="33.875" y="-483.4375"/>
      <point x="78.0" y="-492.21875"/>
    </contour>
  </outline>
</glyph>
<glyph name="uni0195" format="2">
  <advance width="1787.71875"/>
  <unicode hex="0195"/>
  <anchor x="777.078125" y="0.0" name="bottom"/>
  <anchor x="1010.640625" y="1096.140625" name="top"/>
  <outline>
    <contour>
      <point x="1131.609375" y="-19.34375" type="curve" smooth="yes"/>
      <point x="1399.140625" y="-19.34375"/>
      <point x="1533.765625" y="102.515625"/>
      <point x="1602.125" y="424.609375" type="curve" smooth="yes"/>
      <point x="1742.90625" y="1096.140625" type="line"/>
      <point x="1575.015625" y="1096.140625" type="line"/>
      <point x="1433.34375" y="435.296875" type="line" smooth="yes"/>
      <point x="1388.125" y="216.546875"/>
      <point x="1309.015625" y="118.93749999999999"/>
      <point x="1144.96875" y="118.93749999999999" type="curve" smooth="yes"/>
      <point x="1015.5625" y="118.93749999999999"/>
      <point x="944.9375" y="179.359375"/>
      <point x="944.9375" y="298.59375" type="curve" smooth="yes"/>
      <point x="944.9375" y="329.09375"/>
      <point x="949.8125" y="362.125"/>
      <point x="959.796875" y="404.703125" type="curve" smooth="yes"/>
      <point x="1016.390625" y="669.09375" type="line" smooth="yes"/>
      <point x="1028.390625" y="729.4375"/>
      <point x="1038.5" y="782.4375"/>
      <point x="1038.5" y="837.3125" type="curve" smooth="yes"/>
      <point x="1038.5" y="1020.6875"/>
      <point x="936.828125" y="1114.46875"/>
      <point x="773.078125" y="1114.46875" type="curve" smooth="yes"/>
      <point x="599.5" y="1114.46875"/>
      <point x="482.46875" y="987.671875"/>
      <point x="408.796875" y="882.5" type="curve"/>
      <point x="399.453125" y="882.5" type="line"/>
      <point x="421.890625" y="970.6875"/>
      <point x="449.109375" y="1066.078125"/>
      <point x="465.984375" y="1151.6875" type="curve" smooth="yes"/>
      <point x="554.09375" y="1556.0" type="line"/>
      <point x="387.875" y="1556.0" type="line"/>
      <point x="57.984375" y="0.0" type="line"/>
      <point x="224.984375" y="0.0" type="line"/>
      <point x="327.0625" y="482.625" type="line" smooth="yes"/>
      <point x="400.546875" y="831.921875"/>
      <point x="579.9375" y="976.1875"/>
      <point x="725.0" y="976.1875" type="curve" smooth="yes"/>
      <point x="824.578125" y="976.1875"/>
      <point x="870.5" y="920.4375"/>
      <point x="870.5" y="824.859375" type="curve" smooth="yes"/>
      <point x="870.5" y="790.671875"/>
      <point x="866.28125" y="753.78125"/>
      <point x="852.5" y="688.65625" type="curve" smooth="yes"/>
      <point x="791.015625" y="394.234375" type="line" smooth="yes"/>
      <point x="783.703125" y="353.875"/>
      <point x="776.9375" y="312.609375"/>
      <point x="776.9375" y="278.671875" type="curve" smooth="yes"/>
      <point x="776.9375" y="90.6875"/>
      <point x="900.40625" y="-19.34375"/>
    </contour>
  </outline>
</glyph>
<glyph name="uni019C" format="2">
  <advance width="1953.5"/>
  <unicode hex="019C"/>
  <anchor x="860.859375" y="0.0" name="bottom"/>
  <anchor x="1172.75" y="1462.0" name="top"/>
  <outline>
    <contour>
      <point x="470.34375" y="-20.546875" type="curve" smooth="yes"/>
      <point x="642.140625" y="-20.546875"/>
      <point x="777.171875" y="53.093750000000014"/>
      <point x="878.046875" y="190.5625" type="curve"/>
      <point x="885.609375" y="190.5625" type="line"/>
      <point x="920.5625" y="53.531250000000014"/>
      <point x="1012.40625" y="-20.546875"/>
      <point x="1172.140625" y="-20.546875" type="curve" smooth="yes"/>
      <point x="1330.53125" y="-20.546875"/>
      <point x="1449.5625" y="46.828125"/>
      <point x="1533.046875" y="169.53125" type="curve"/>
      <point x="1540.390625" y="169.53125" type="line"/>
      <point x="1523.078125" y="0.0" type="line"/>
      <point x="1646.890625" y="0.0" type="line"/>
      <point x="1955.453125" y="1462.0" type="line"/>
      <point x="1789.34375" y="1462.0" type="line"/>
      <point x="1599.921875" y="570.78125" type="line" smooth="yes"/>
      <point x="1542.390625" y="302.015625"/>
      <point x="1438.34375" y="126.74999999999999"/>
      <point x="1207.765625" y="126.74999999999999" type="curve" smooth="yes"/>
      <point x="1084.078125" y="126.74999999999999"/>
      <point x="1023.671875" y="198.0625"/>
      <point x="1023.671875" y="316.75" type="curve" smooth="yes"/>
      <point x="1023.671875" y="348.71875"/>
      <point x="1027.671875" y="385.6875"/>
      <point x="1037.765625" y="430.265625" type="curve" smooth="yes"/>
      <point x="1255.890625" y="1462.0" type="line"/>
      <point x="1087.0" y="1462.0" type="line"/>
      <point x="889.46875" y="529.125" type="line" smooth="yes"/>
      <point x="833.265625" y="265.765625"/>
      <point x="719.203125" y="126.74999999999999"/>
      <point x="498.171875" y="126.74999999999999" type="curve" smooth="yes"/>
      <point x="375.8125" y="126.74999999999999"/>
      <point x="312.296875" y="196.9375"/>
      <point x="312.296875" y="320.53125" type="curve" smooth="yes"/>
      <point x="312.296875" y="352.71875"/>
      <point x="316.734375" y="388.125"/>
      <point x="325.5" y="428.953125" type="curve" smooth="yes"/>
      <point x="543.84375" y="1462.0" type="line"/>
      <point x="375.84375" y="1462.0" type="line"/>
      <point x="157.5" y="428.953125" type="line" smooth="yes"/>
      <point x="146.171875" y="381.0"/>
      <point x="141.734375" y="338.6875"/>
      <point x="141.734375" y="297.828125" type="curve" smooth="yes"/>
      <point x="141.734375" y="87.125"/>
      <point x="276.921875" y="-20.546875"/>
    </contour>
  </outline>
</glyph>
<glyph name="Ohorn" format="2">
  <advance width="1471.578125"/>
  <unicode hex="01A0"/>
  <anchor x="620.453125" y="0.0" name="bottom"/>
  <anchor x="893.265625" y="1462.0" name="top"/>
  <outline>
    <contour>
      <point x="689.34375" y="-20.0" type="curve" smooth="yes"/>
      <point x="1171.09375" y="-20.0"/>
      <point x="1409.828125" y="423.890625"/>
      <point x="1409.828125" y="909.4375" type="curve" smooth="yes"/>
      <point x="1409.828125" y="1007.53125"/>
      <point x="1394.046875" y="1092.1875"/>
      <point x="1366.828125" y="1165.734375" type="curve"/>
      <point x="1556.6875" y="1240.34375"/>
      <point x="1655.15625" y="1351.015625"/>
      <point x="1699.9375" y="1534.4375" type="curve"/>
      <point x="1691.9375" y="1556.0" type="line"/>
      <point x="1511.34375" y="1556.0" type="line"/>
      <point x="1487.921875" y="1406.515625"/>
      <point x="1442.21875" y="1311.203125"/>
      <point x="1322.78125" y="1264.390625" type="curve"/>
      <point x="1235.65625" y="1406.5625"/>
      <point x="1085.0" y="1485.0"/>
      <point x="886.5625" y="1485.0" type="curve" smooth="yes"/>
      <point x="422.609375" y="1485.0"/>
      <point x="149.734375" y="1046.953125"/>
      <point x="149.734375" y="548.96875" type="curve" smooth="yes"/>
      <point x="149.734375" y="202.359375"/>
      <point x="336.390625" y="-20.0"/>
    </contour>
    <contour>
      <point x="694.90625" y="128.96875" type="curve" smooth="yes"/>
      <point x="462.640625" y="128.96875"/>
      <point x="329.421875" y="288.515625"/>
      <point x="329.421875" y="552.75" type="curve" smooth="yes"/>
      <point x="329.421875" y="970.984375"/>
      <point x="530.375" y="1335.140625"/>
      <point x="874.546875" y="1335.140625" type="curve" smooth="yes"/>
      <point x="1097.828125" y="1335.140625"/>
      <point x="1231.03125" y="1180.453125"/>
      <point x="1231.03125" y="912.78125" type="curve" smooth="yes"/>
      <point x="1231.03125" y="509.84375"/>
      <point x="1038.078125" y="128.96875"/>
    </contour>
  </outline>
</glyph>
<glyph name="ohorn" format="2">
  <advance width="1161.6875"/>
  <unicode hex="01A1"/>
  <anchor x="464.5625" y="0.0" name="bottom"/>
  <anchor x="665.0625" y="1096.140625" name="top"/>
  <outline>
    <contour>
      <point x="505.484375" y="-16.4375" type="curve" smooth="yes"/>
      <point x="868.0625" y="-16.4375"/>
      <point x="1055.578125" y="348.421875"/>
      <point x="1055.578125" y="688.4375" type="curve" smooth="yes"/>
      <point x="1055.578125" y="756.140625"/>
      <point x="1046.015625" y="815.390625"/>
      <point x="1024.4375" y="869.078125" type="curve"/>
      <point x="1218.078125" y="938.8125"/>
      <point x="1314.328125" y="1052.71875"/>
      <point x="1357.328125" y="1234.25" type="curve"/>
      <point x="1349.21875" y="1256.8125" type="line"/>
      <point x="1170.40625" y="1256.8125" type="line"/>
      <point x="1146.984375" y="1112.359375"/>
      <point x="1103.609375" y="1008.546875"/>
      <point x="977.265625" y="959.15625" type="curve"/>
      <point x="909.34375" y="1055.859375"/>
      <point x="797.234375" y="1110.90625"/>
      <point x="650.390625" y="1110.90625" type="curve" smooth="yes"/>
      <point x="292.984375" y="1110.90625"/>
      <point x="99.640625" y="749.96875"/>
      <point x="99.640625" y="404.578125" type="curve" smooth="yes"/>
      <point x="99.640625" y="145.546875"/>
      <point x="251.703125" y="-16.4375"/>
    </contour>
    <contour>
      <point x="515.15625" y="121.84374999999999" type="curve" smooth="yes"/>
      <point x="357.046875" y="121.84374999999999"/>
      <point x="268.640625" y="222.765625"/>
      <point x="268.640625" y="398.34375" type="curve" smooth="yes"/>
      <point x="268.640625" y="714.84375"/>
      <point x="418.171875" y="972.625"/>
      <point x="651.734375" y="972.625" type="curve" smooth="yes"/>
      <point x="820.875" y="972.625"/>
      <point x="884.796875" y="836.875"/>
      <point x="884.796875" y="707.359375" type="curve" smooth="yes"/>
      <point x="884.796875" y="344.03125"/>
      <point x="722.84375" y="121.84374999999999"/>
    </contour>
  </outline>
</glyph>
<glyph name="uni01A3" format="2">
  <advance width="1625.546875"/>
  <unicode hex="01A3"/>
  <anchor x="592.828125" y="-492.0" name="bottom"/>
  <anchor x="930.390625" y="1096.140625" name="top"/>
  <outline>
    <contour>
      <point x="1073.453125" y="-492.0" type="line"/>
      <point x="1241.453125" y="-492.0" type="line"/>
      <point x="1497.671875" y="708.65625" type="line" smooth="yes"/>
      <point x="1506.765625" y="755.484375"/>
      <point x="1512.3125" y="802.78125"/>
      <point x="1512.3125" y="842.1875" type="curve" smooth="yes"/>
      <point x="1512.3125" y="1013.125"/>
      <point x="1421.859375" y="1115.59375"/>
      <point x="1251.71875" y="1115.59375" type="curve" smooth="yes"/>
      <point x="1143.421875" y="1115.59375"/>
      <point x="1031.15625" y="1064.8125"/>
      <point x="947.34375" y="970.0625" type="curve"/>
      <point x="884.5625" y="1061.21875"/>
      <point x="781.421875" y="1110.90625"/>
      <point x="650.390625" y="1110.90625" type="curve" smooth="yes"/>
      <point x="292.984375" y="1110.90625"/>
      <point x="99.640625" y="749.96875"/>
      <point x="99.640625" y="404.578125" type="curve" smooth="yes"/>
      <point x="99.640625" y="145.546875"/>
      <point x="242.796875" y="-16.4375"/>
      <point x="486.78125" y="-16.4375" type="curve" smooth="yes"/>
      <point x="839.5625" y="-16.4375"/>
      <point x="1027.96875" y="348.421875"/>
      <point x="1027.96875" y="688.4375" type="curve" smooth="yes"/>
      <point x="1027.96875" y="760.265625"/>
      <point x="1016.4375" y="822.65625"/>
      <point x="996.375" y="877.40625" type="curve"/>
      <point x="1051.796875" y="938.75"/>
      <point x="1125.5625" y="975.421875"/>
      <point x="1206.078125" y="975.421875" type="curve" smooth="yes"/>
      <point x="1298.34375" y="975.421875"/>
      <point x="1345.09375" y="927.359375"/>
      <point x="1345.09375" y="825.046875" type="curve" smooth="yes"/>
      <point x="1345.09375" y="788.984375"/>
      <point x="1340.65625" y="750.578125"/>
      <point x="1329.671875" y="701.53125" type="curve" smooth="yes"/>
    </contour>
    <contour>
      <point x="497.34375" y="121.84374999999999" type="curve" smooth="yes"/>
      <point x="347.25" y="121.84374999999999"/>
      <point x="268.640625" y="222.765625"/>
      <point x="268.640625" y="398.34375" type="curve" smooth="yes"/>
      <point x="268.640625" y="714.84375"/>
      <point x="418.171875" y="972.625"/>
      <point x="651.734375" y="972.625" type="curve" smooth="yes"/>
      <point x="801.28125" y="972.625"/>
      <point x="858.078125" y="836.875"/>
      <point x="858.078125" y="707.359375" type="curve" smooth="yes"/>
      <point x="858.078125" y="344.03125"/>
      <point x="695.234375" y="121.84374999999999"/>
    </contour>
  </outline>
</glyph>
<glyph name="uni01A8" format="2">
  <advance width="882.046875"/>
  <unicode hex="01A8"/>
  <anchor x="324.796875" y="0.0" name="bottom"/>
  <anchor x="557.46875" y="1096.140625" name="top"/>
  <outline>
    <contour>
      <point x="376.0" y="-20.0" type="curve" smooth="yes"/>
      <point x="517.546875" y="-20.0"/>
      <point x="614.71875" y="8.953125000000004"/>
      <point x="700.875" y="52.640625" type="curve"/>
      <point x="700.875" y="199.15625" type="line"/>
      <point x="609.984375" y="155.9375"/>
      <point x="510.453125" y="114.71874999999999"/>
      <point x="390.578125" y="114.71874999999999" type="curve" smooth="yes"/>
      <point x="254.375" y="114.71874999999999"/>
      <point x="191.296875" y="174.8125"/>
      <point x="191.296875" y="269.765625" type="curve" smooth="yes"/>
      <point x="191.296875" y="402.171875"/>
      <point x="317.453125" y="446.546875"/>
      <point x="471.390625" y="495.125" type="curve" smooth="yes"/>
      <point x="705.609375" y="567.3125"/>
      <point x="865.140625" y="635.28125"/>
      <point x="865.140625" y="851.609375" type="curve" smooth="yes"/>
      <point x="865.140625" y="1013.5625"/>
      <point x="745.078125" y="1115.8125"/>
      <point x="542.34375" y="1115.8125" type="curve" smooth="yes"/>
      <point x="425.953125" y="1115.8125"/>
      <point x="312.375" y="1085.515625"/>
      <point x="211.4375" y="1038.71875" type="curve"/>
      <point x="255.59375" y="907.78125" type="line"/>
      <point x="346.171875" y="947.0"/>
      <point x="438.5" y="979.3125"/>
      <point x="524.4375" y="979.3125" type="curve" smooth="yes"/>
      <point x="639.046875" y="979.3125"/>
      <point x="698.703125" y="926.234375"/>
      <point x="698.703125" y="841.9375" type="curve" smooth="yes"/>
      <point x="698.703125" y="736.640625"/>
      <point x="634.96875" y="693.8125"/>
      <point x="400.859375" y="626.515625" type="curve" smooth="yes"/>
      <point x="222.796875" y="574.15625"/>
      <point x="22.296875000000004" y="490.984375"/>
      <point x="22.296875000000004" y="272.0" type="curve" smooth="yes"/>
      <point x="22.296875000000004" y="87.59375"/>
      <point x="155.265625" y="-20.0"/>
    </contour>
  </outline>
</glyph>
<glyph name="uni01AB" format="2">
  <advance width="674.859375"/>
  <unicode hex="01AB"/>
  <anchor x="116.703125" y="-492.0" name="bottom"/>
  <anchor x="507.703125" y="1348.21875" name="top"/>
  <outline>
    <contour>
      <point x="219.890625" y="-492.0" type="curve" smooth="yes"/>
      <point x="338.890625" y="-492.0"/>
      <point x="425.96875" y="-435.8125"/>
      <point x="463.328125" y="-262.484375" type="curve" smooth="yes"/>
      <point x="549.578125" y="141.640625" type="line"/>
      <point x="500.078125" y="125.84374999999999"/>
      <point x="446.46875" y="116.49999999999999"/>
      <point x="399.65625" y="116.49999999999999" type="curve" smooth="yes"/>
      <point x="314.984375" y="116.49999999999999"/>
      <point x="282.453125" y="167.03125"/>
      <point x="282.453125" y="233.875" type="curve" smooth="yes"/>
      <point x="282.453125" y="272.4375"/>
      <point x="291.796875" y="319.65625"/>
      <point x="300.234375" y="357.84375" type="curve" smooth="yes"/>
      <point x="429.75" y="968.546875" type="line"/>
      <point x="711.203125" y="968.546875" type="line"/>
      <point x="737.453125" y="1096.140625" type="line"/>
      <point x="455.109375" y="1096.140625" type="line"/>
      <point x="510.328125" y="1348.21875" type="line"/>
      <point x="411.21875" y="1348.21875" type="line"/>
      <point x="290.5625" y="1115.734375" type="line"/>
      <point x="108.515625" y="1045.609375" type="line"/>
      <point x="93.171875" y="968.546875" type="line"/>
      <point x="261.75" y="968.546875" type="line"/>
      <point x="133.90625" y="359.75" type="line" smooth="yes"/>
      <point x="122.125" y="305.859375"/>
      <point x="116.125" y="255.078125"/>
      <point x="116.125" y="214.734375" type="curve" smooth="yes"/>
      <point x="116.125" y="48.53125"/>
      <point x="216.984375" y="-16.21875"/>
      <point x="364.453125" y="-20.0" type="curve"/>
      <point x="319.703125" y="-228.875" type="line" smooth="yes"/>
      <point x="299.03125" y="-318.4375"/>
      <point x="270.25" y="-349.15625"/>
      <point x="206.078125" y="-349.15625" type="curve" smooth="yes"/>
      <point x="171.765625" y="-349.15625"/>
      <point x="140.546875" y="-340.28125"/>
      <point x="111.640625" y="-328.953125" type="curve"/>
      <point x="110.21875" y="-468.34375" type="line"/>
      <point x="132.765625" y="-480.5625"/>
      <point x="174.671875" y="-492.0"/>
    </contour>
  </outline>
</glyph>
<glyph name="uni01AE" format="2">
  <advance width="1022.390625"/>
  <unicode hex="01AE"/>
  <anchor x="294.53125" y="-477.125" name="bottom"/>
  <anchor x="707.359375" y="1462.0" name="top"/>
  <outline>
    <contour>
      <point x="502.625" y="-477.125" type="curve" smooth="yes"/>
      <point x="555.40625" y="-477.125"/>
      <point x="614.0" y="-466.015625"/>
      <point x="643.4375" y="-450.453125" type="curve"/>
      <point x="643.4375" y="-305.9375" type="line"/>
      <point x="616.0" y="-318.828125"/>
      <point x="585.125" y="-327.265625"/>
      <point x="549.828125" y="-327.265625" type="curve" smooth="yes"/>
      <point x="486.75" y="-327.265625"/>
      <point x="448.0" y="-294.734375"/>
      <point x="448.0" y="-223.921875" type="curve" smooth="yes"/>
      <point x="448.0" y="-199.109375"/>
      <point x="451.09375" y="-170.53124999999997"/>
      <point x="458.296875" y="-137.39062499999997" type="curve" smooth="yes"/>
      <point x="764.890625" y="1312.140625" type="line"/>
      <point x="1173.453125" y="1312.140625" type="line"/>
      <point x="1203.15625" y="1462.0" type="line"/>
      <point x="217.03125" y="1462.0" type="line"/>
      <point x="184.65625" y="1312.140625" type="line"/>
      <point x="593.328125" y="1312.140625" type="line"/>
      <point x="284.171875" y="-144.51562499999997" type="line" smooth="yes"/>
      <point x="275.1875" y="-184.32812499999997"/>
      <point x="270.3125" y="-219.81249999999997"/>
      <point x="270.3125" y="-251.96875" type="curve" smooth="yes"/>
      <point x="270.3125" y="-397.890625"/>
      <point x="362.921875" y="-477.125"/>
    </contour>
  </outline>
</glyph>
<glyph name="Uhorn" format="2">
  <advance width="1489.0"/>
  <unicode hex="01AF"/>
  <anchor x="629.21875" y="0.0" name="bottom"/>
  <anchor x="889.453125" y="1462.0" name="top"/>
  <outline>
    <contour>
      <point x="620.234375" y="-20.0" type="curve" smooth="yes"/>
      <point x="970.546875" y="-20.0"/>
      <point x="1137.21875" y="173.953125"/>
      <point x="1205.640625" y="499.96875" type="curve" smooth="yes"/>
      <point x="1343.078125" y="1145.265625" type="line"/>
      <point x="1558.515625" y="1186.484375"/>
      <point x="1716.203125" y="1318.75"/>
      <point x="1763.203125" y="1534.4375" type="curve"/>
      <point x="1754.3125" y="1556.0" type="line"/>
      <point x="1576.390625" y="1556.0" type="line"/>
      <point x="1546.734375" y="1372.21875"/>
      <point x="1472.078125" y="1286.03125"/>
      <point x="1366.65625" y="1262.828125" type="curve"/>
      <point x="1410.09375" y="1462.0" type="line"/>
      <point x="1241.984375" y="1462.0" type="line"/>
      <point x="1039.203125" y="515.3125" type="line" smooth="yes"/>
      <point x="982.453125" y="256.234375"/>
      <point x="861.828125" y="128.96875"/>
      <point x="624.015625" y="128.96875" type="curve" smooth="yes"/>
      <point x="419.734375" y="128.96875"/>
      <point x="332.40625" y="233.9375"/>
      <point x="332.40625" y="396.8125" type="curve" smooth="yes"/>
      <point x="332.40625" y="438.03125"/>
      <point x="340.1875" y="497.046875"/>
      <point x="354.640625" y="562.296875" type="curve" smooth="yes"/>
      <point x="545.625" y="1462.0" type="line"/>
      <point x="377.40625" y="1462.0" type="line"/>
      <point x="187.203125" y="573.4375" type="line" smooth="yes"/>
      <point x="173.53125" y="508.859375"/>
      <point x="163.96875" y="436.03125"/>
      <point x="163.96875" y="387.46875" type="curve" smooth="yes"/>
      <point x="163.96875" y="127.90625"/>
      <point x="317.265625" y="-20.0"/>
    </contour>
  </outline>
</glyph>
<glyph name="uni01B2" format="2">
  <advance width="1389.390625"/>
  <unicode hex="01B2"/>
  <anchor x="579.3125" y="0.0" name="bottom"/>
  <anchor x="890.3125" y="1462.0" name="top"/>
  <anchor x="1543.609375" y="1462.0" name="topright"/>
  <outline>
    <contour>
      <point x="614.0" y="-20.0" type="curve" smooth="yes"/>
      <point x="965.203125" y="-20.0"/>
      <point x="1137.21875" y="173.953125"/>
      <point x="1205.640625" y="499.96875" type="curve" smooth="yes"/>
      <point x="1340.5625" y="1137.78125" type="line" smooth="yes"/>
      <point x="1350.875" y="1181.125"/>
      <point x="1354.40625" y="1216.265625"/>
      <point x="1354.40625" y="1251.96875" type="curve" smooth="yes"/>
      <point x="1354.40625" y="1409.65625"/>
      <point x="1251.53125" y="1483.0"/>
      <point x="1126.71875" y="1483.0" type="curve" smooth="yes"/>
      <point x="1063.0625" y="1483.0"/>
      <point x="998.671875" y="1465.125"/>
      <point x="950.109375" y="1442.46875" type="curve"/>
      <point x="950.109375" y="1294.0625" type="line"/>
      <point x="995.109375" y="1319.9375"/>
      <point x="1040.109375" y="1333.140625"/>
      <point x="1082.421875" y="1333.140625" type="curve" smooth="yes"/>
      <point x="1146.625" y="1333.140625"/>
      <point x="1183.625" y="1295.15625"/>
      <point x="1183.625" y="1221.703125" type="curve" smooth="yes"/>
      <point x="1183.625" y="1195.546875"/>
      <point x="1178.53125" y="1164.859375"/>
      <point x="1170.671875" y="1127.09375" type="curve" smooth="yes"/>
      <point x="1039.203125" y="513.53125" type="line" smooth="yes"/>
      <point x="984.234375" y="260.015625"/>
      <point x="868.953125" y="128.96875"/>
      <point x="624.015625" y="128.96875" type="curve" smooth="yes"/>
      <point x="432.203125" y="128.96875"/>
      <point x="332.40625" y="224.140625"/>
      <point x="332.40625" y="386.125" type="curve" smooth="yes"/>
      <point x="332.40625" y="429.125"/>
      <point x="340.1875" y="502.390625"/>
      <point x="354.640625" y="564.078125" type="curve" smooth="yes"/>
      <point x="545.625" y="1462.0" type="line"/>
      <point x="377.40625" y="1462.0" type="line"/>
      <point x="187.203125" y="573.4375" type="line" smooth="yes"/>
      <point x="171.75" y="498.171875"/>
      <point x="163.96875" y="430.6875"/>
      <point x="163.96875" y="383.90625" type="curve" smooth="yes"/>
      <point x="163.96875" y="124.34375"/>
      <point x="313.703125" y="-20.0"/>
    </contour>
  </outline>
</glyph>
<glyph name="uni01B9" format="2">
  <advance width="950.4375"/>
  <unicode hex="01B9"/>
  <anchor x="254.4375" y="-492.0" name="bottom"/>
  <anchor x="592.0" y="1096.140625" name="top"/>
  <outline>
    <contour>
      <point x="360.875" y="-492.0" type="curve" smooth="yes"/>
      <point x="511.078125" y="-492.0"/>
      <point x="628.6875" y="-459.90625"/>
      <point x="717.59375" y="-415.34375" type="curve"/>
      <point x="718.6875" y="-267.84375" type="line"/>
      <point x="626.6875" y="-311.9375"/>
      <point x="528.0" y="-352.71875"/>
      <point x="379.5625" y="-352.71875" type="curve" smooth="yes"/>
      <point x="213.59375" y="-352.71875"/>
      <point x="97.14062499999999" y="-250.0625"/>
      <point x="97.14062499999999" y="-70.0" type="curve" smooth="yes"/>
      <point x="97.14062499999999" y="196.0"/>
      <point x="291.140625" y="330.890625"/>
      <point x="568.0" y="330.890625" type="curve" smooth="yes"/>
      <point x="675.09375" y="330.890625" type="line"/>
      <point x="699.34375" y="447.140625" type="line"/>
      <point x="368.484375" y="955.625" type="line"/>
      <point x="940.4375" y="955.625" type="line"/>
      <point x="969.359375" y="1096.578125" type="line"/>
      <point x="219.0625" y="1096.578125" type="line"/>
      <point x="193.703125" y="974.328125" type="line"/>
      <point x="523.015625" y="463.828125" type="line"/>
      <point x="188.25" y="449.578125"/>
      <point x="-69.296875" y="268.125"/>
      <point x="-69.296875" y="-82.234375" type="curve" smooth="yes"/>
      <point x="-69.296875" y="-320.4375"/>
      <point x="84.921875" y="-492.0"/>
    </contour>
  </outline>
</glyph>
<glyph name="uni01BC" format="2">
  <advance width="1092.21875"/>
  <unicode hex="01BC"/>
  <anchor x="429.828125" y="0.0" name="bottom"/>
  <anchor x="740.828125" y="1462.0" name="top"/>
  <outline>
    <contour>
      <point x="398.1875" y="-20.0" type="curve" smooth="yes"/>
      <point x="778.015625" y="-20.0"/>
      <point x="977.4375" y="184.515625"/>
      <point x="977.4375" y="506.6875" type="curve" smooth="yes"/>
      <point x="977.4375" y="742.375"/>
      <point x="828.203125" y="898.953125"/>
      <point x="534.953125" y="898.953125" type="curve" smooth="yes"/>
      <point x="494.4375" y="898.953125" type="line"/>
      <point x="587.5" y="1310.359375" type="line"/>
      <point x="1080.296875" y="1310.359375" type="line"/>
      <point x="1112.671875" y="1462.0" type="line"/>
      <point x="293.96875" y="1462.0" type="line"/>
      <point x="261.59375" y="1310.359375" type="line"/>
      <point x="426.734375" y="1310.359375" type="line"/>
      <point x="305.078125" y="759.109375" type="line"/>
      <point x="502.015625" y="759.109375" type="line" smooth="yes"/>
      <point x="685.234375" y="759.109375"/>
      <point x="803.09375" y="674.265625"/>
      <point x="803.09375" y="489.765625" type="curve" smooth="yes"/>
      <point x="803.09375" y="255.953125"/>
      <point x="656.203125" y="120.06249999999999"/>
      <point x="395.5" y="120.06249999999999" type="curve" smooth="yes"/>
      <point x="265.65625" y="120.06249999999999"/>
      <point x="128.84375" y="157.5"/>
      <point x="26.359375000000014" y="215.1875" type="curve"/>
      <point x="26.359375000000014" y="58.34375" type="line"/>
      <point x="124.18750000000001" y="1.5312500000000018"/>
      <point x="261.109375" y="-20.0"/>
    </contour>
  </outline>
</glyph>
<glyph name="uni01E4" format="2">
  <advance width="1386.484375"/>
  <unicode hex="01E4"/>
  <anchor x="577.015625" y="0.0" name="bottom"/>
  <anchor x="888.125" y="1462.0" name="top"/>
  <outline>
    <contour>
      <point x="699.8125" y="-20.0" type="curve" smooth="yes"/>
      <point x="869.296875" y="-20.0"/>
      <point x="1005.015625" y="11.78125"/>
      <point x="1128.765625" y="57.078125" type="curve"/>
      <point x="1186.65625" y="321.953125" type="line"/>
      <point x="1313.140625" y="321.953125" type="line"/>
      <point x="1341.953125" y="457.5625" type="line"/>
      <point x="1215.578125" y="457.5625" type="line"/>
      <point x="1282.6875" y="764.203125" type="line"/>
      <point x="814.125" y="764.203125" type="line"/>
      <point x="781.640625" y="616.125" type="line"/>
      <point x="1082.203125" y="616.125" type="line"/>
      <point x="1046.578125" y="457.5625" type="line"/>
      <point x="758.140625" y="457.5625" type="line"/>
      <point x="729.4375" y="321.953125" type="line"/>
      <point x="1018.765625" y="321.953125" type="line"/>
      <point x="985.46875" y="170.453125" type="line"/>
      <point x="920.4375" y="147.609375"/>
      <point x="825.4375" y="128.96875"/>
      <point x="716.953125" y="128.96875" type="curve" smooth="yes"/>
      <point x="454.515625" y="128.96875"/>
      <point x="329.203125" y="302.3125"/>
      <point x="329.203125" y="543.4375" type="curve" smooth="yes"/>
      <point x="329.203125" y="1006.625"/>
      <point x="592.171875" y="1333.140625"/>
      <point x="935.53125" y="1333.140625" type="curve" smooth="yes"/>
      <point x="1074.53125" y="1333.140625"/>
      <point x="1191.609375" y="1294.796875"/>
      <point x="1295.140625" y="1248.921875" type="curve"/>
      <point x="1360.0" y="1397.0" type="line"/>
      <point x="1239.0" y="1450.0"/>
      <point x="1112.90625" y="1483.0"/>
      <point x="937.53125" y="1483.0" type="curve" smooth="yes"/>
      <point x="474.65625" y="1483.0"/>
      <point x="149.734375" y="1071.234375"/>
      <point x="149.734375" y="531.859375" type="curve" smooth="yes"/>
      <point x="149.734375" y="183.859375"/>
      <point x="354.0" y="-20.0"/>
    </contour>
  </outline>
</glyph>
<glyph name="uni01E5" format="2">
  <advance width="1035.09375"/>
  <unicode hex="01E5"/>
  <anchor x="297.65625" y="-492.0" name="bottom"/>
  <anchor x="635.21875" y="1096.140625" name="top"/>
  <outline>
    <contour>
      <point x="380.125" y="-492.0" type="curve" smooth="yes"/>
      <point x="593.765625" y="-492.0"/>
      <point x="736.609375" y="-412.203125"/>
      <point x="818.34375" y="-235.734375" type="curve"/>
      <point x="970.078125" y="-235.734375" type="line"/>
      <point x="997.21875" y="-100.125" type="line"/>
      <point x="865.078125" y="-100.125" type="line"/>
      <point x="1123.515625" y="1096.140625" type="line"/>
      <point x="996.578125" y="1096.140625" type="line"/>
      <point x="930.890625" y="917.71875" type="line"/>
      <point x="922.4375" y="917.71875" type="line"/>
      <point x="880.171875" y="1020.890625"/>
      <point x="793.1875" y="1116.25"/>
      <point x="640.171875" y="1116.25" type="curve" smooth="yes"/>
      <point x="301.03125" y="1116.25"/>
      <point x="102.21875" y="754.78125"/>
      <point x="102.21875" y="365.0" type="curve" smooth="yes"/>
      <point x="102.21875" y="120.53125"/>
      <point x="220.59375" y="-2.1875000000000036"/>
      <point x="402.421875" y="-2.1875000000000036" type="curve" smooth="yes"/>
      <point x="561.671875" y="-2.1875000000000036"/>
      <point x="682.25" y="106.703125"/>
      <point x="775.59375" y="230.875" type="curve"/>
      <point x="783.15625" y="230.875" type="line"/>
      <point x="761.375" y="154.875"/>
      <point x="738.15625" y="52.21875000000001"/>
      <point x="727.5" y="5.6093750000000036" type="curve" smooth="yes"/>
      <point x="702.53125" y="-100.125" type="line"/>
      <point x="381.96875" y="-100.125" type="line"/>
      <point x="352.9375" y="-235.734375" type="line"/>
      <point x="648.671875" y="-235.734375" type="line"/>
      <point x="600.328125" y="-316.171875"/>
      <point x="522.359375" y="-352.71875"/>
      <point x="375.0" y="-352.71875" type="curve" smooth="yes"/>
      <point x="256.90625" y="-352.71875"/>
      <point x="124.09375" y="-310.703125"/>
      <point x="51.21875" y="-267.921875" type="curve"/>
      <point x="51.21875" y="-422.21875" type="line"/>
      <point x="129.0" y="-462.5625"/>
      <point x="246.359375" y="-492.0"/>
    </contour>
    <contour>
      <point x="456.515625" y="136.984375" type="curve" smooth="yes"/>
      <point x="335.96875" y="136.984375"/>
      <point x="273.109375" y="207.203125"/>
      <point x="273.109375" y="360.546875" type="curve" smooth="yes"/>
      <point x="273.109375" y="669.96875"/>
      <point x="420.40625" y="976.1875"/>
      <point x="652.421875" y="976.1875" type="curve" smooth="yes"/>
      <point x="800.71875" y="976.1875"/>
      <point x="862.5" y="884.546875"/>
      <point x="862.5" y="743.6875" type="curve" smooth="yes"/>
      <point x="862.5" y="421.03125"/>
      <point x="647.734375" y="136.984375"/>
    </contour>
  </outline>
</glyph>
<glyph name="aringacute" format="2">
  <advance width="1158.296875"/>
  <unicode hex="01FB"/>
  <anchor x="462.921875" y="0.0" name="bottom"/>
  <anchor x="881.796875" y="1966.484375" name="top"/>
  <outline>
    <contour>
      <point x="395.875" y="-20.0" type="curve" smooth="yes"/>
      <point x="554.140625" y="-20.0"/>
      <point x="682.96875" y="90.53125000000001"/>
      <point x="774.234375" y="211.96875" type="curve"/>
      <point x="781.796875" y="211.96875" type="line"/>
      <point x="752.40625" y="0.0" type="line"/>
      <point x="884.6875" y="0.0" type="line"/>
      <point x="1117.359375" y="1096.140625" type="line"/>
      <point x="990.3125" y="1096.140625" type="line"/>
      <point x="926.40625" y="917.71875" type="line"/>
      <point x="916.171875" y="917.71875" type="line"/>
      <point x="873.90625" y="1019.6875"/>
      <point x="787.21875" y="1116.25"/>
      <point x="638.75" y="1116.25" type="curve" smooth="yes"/>
      <point x="318.609375" y="1116.25"/>
      <point x="98.65625" y="756.78125"/>
      <point x="98.65625" y="355.203125" type="curve" smooth="yes"/>
      <point x="98.65625" y="111.625"/>
      <point x="217.6875" y="-20.0"/>
    </contour>
    <contour>
      <point x="450.078125" y="118.28124999999999" type="curve" smooth="yes"/>
      <point x="334.625" y="118.28124999999999"/>
      <point x="269.546875" y="198.296875"/>
      <point x="269.546875" y="351.640625" type="curve" smooth="yes"/>
      <point x="269.546875" y="675.53125"/>
      <point x="429.96875" y="976.1875"/>
      <point x="654.5625" y="976.1875" type="curve" smooth="yes"/>
      <point x="779.609375" y="976.1875"/>
      <point x="857.796875" y="883.453125"/>
      <point x="857.796875" y="746.359375" type="curve" smooth="yes"/>
      <point x="857.796875" y="689.125"/>
      <point x="851.578125" y="623.21875"/>
      <point x="831.125" y="544.5625" type="curve" smooth="yes"/>
      <point x="766.890625" y="302.765625"/>
      <point x="603.125" y="118.28124999999999"/>
    </contour>
    <contour>
      <point x="725.875" y="1196.90625" type="curve" smooth="yes"/>
      <point x="851.34375" y="1196.90625"/>
      <point x="945.125" y="1275.5625"/>
      <point x="945.125" y="1410.8125" type="curve" smooth="yes"/>
      <point x="945.125" y="1543.296875"/>
      <point x="851.34375" y="1622.828125"/>
      <point x="725.875" y="1622.828125" type="curve" smooth="yes"/>
      <point x="604.078125" y="1622.828125"/>
      <point x="504.625" y="1543.734375"/>
      <point x="504.625" y="1409.03125" type="curve" smooth="yes"/>
      <point x="504.625" y="1277.125"/>
      <point x="595.390625" y="1196.90625"/>
    </contour>
    <contour>
      <point x="725.875" y="1291.328125" type="curve" smooth="yes"/>
      <point x="648.125" y="1291.328125"/>
      <point x="607.953125" y="1339.0625"/>
      <point x="607.953125" y="1409.03125" type="curve" smooth="yes"/>
      <point x="607.953125" y="1482.5625"/>
      <point x="655.46875" y="1526.625"/>
      <point x="725.875" y="1526.625" type="curve" smooth="yes"/>
      <point x="791.171875" y="1526.625"/>
      <point x="843.578125" y="1482.5625"/>
      <point x="843.578125" y="1409.03125" type="curve" smooth="yes"/>
      <point x="843.578125" y="1339.0625"/>
      <point x="792.046875" y="1291.328125"/>
    </contour>
    <contour>
      <point x="666.921875" y="1697.265625" type="line"/>
      <point x="782.0625" y="1697.265625" type="line"/>
      <point x="890.953125" y="1763.21875"/>
      <point x="1048.6875" y="1888.875"/>
      <point x="1105.546875" y="1948.921875" type="curve"/>
      <point x="1105.546875" y="1966.484375" type="line"/>
      <point x="898.375" y="1966.484375" type="line"/>
      <point x="838.484375" y="1890.953125"/>
      <point x="740.21875" y="1782.359375"/>
      <point x="666.921875" y="1714.71875" type="curve"/>
    </contour>
  </outline>
</glyph>
<glyph name="uni0220" format="2">
  <advance width="1408.625"/>
  <unicode hex="0220"/>
  <anchor x="483.640625" y="-492.0" name="bottom"/>
  <anchor x="898.75" y="1462.0" name="top"/>
  <outline>
    <contour>
      <point x="846.765625" y="-492.0" type="line"/>
      <point x="1016.546875" y="-492.0" type="line"/>
      <point x="1322.40625" y="946.078125" type="line" smooth="yes"/>
      <point x="1334.625" y="1006.40625"/>
      <point x="1341.609375" y="1063.234375"/>
      <point x="1341.609375" y="1115.40625" type="curve" smooth="yes"/>
      <point x="1341.609375" y="1360.40625"/>
      <point x="1205.671875" y="1484.5625"/>
      <point x="959.71875" y="1484.5625" type="curve" smooth="yes"/>
      <point x="758.09375" y="1484.5625"/>
      <point x="601.96875" y="1381.859375"/>
      <point x="514.015625" y="1232.40625" type="curve"/>
      <point x="504.5625" y="1232.40625" type="line"/>
      <point x="536.25" y="1462.0" type="line"/>
      <point x="396.390625" y="1462.0" type="line"/>
      <point x="87.390625" y="0.0" type="line"/>
      <point x="255.28125" y="0.0" type="line"/>
      <point x="423.078125" y="798.90625" type="line" smooth="yes"/>
      <point x="485.0625" y="1096.390625"/>
      <point x="667.25" y="1336.484375"/>
      <point x="925.453125" y="1336.484375" type="curve" smooth="yes"/>
      <point x="1099.203125" y="1336.484375"/>
      <point x="1171.609375" y="1249.359375"/>
      <point x="1171.609375" y="1098.046875" type="curve" smooth="yes"/>
      <point x="1171.609375" y="1051.65625"/>
      <point x="1165.171875" y="1000.90625"/>
      <point x="1153.40625" y="946.078125" type="curve" smooth="yes"/>
    </contour>
  </outline>
</glyph>
<glyph name="uni0221" format="2">
  <advance width="1255.671875"/>
  <unicode hex="0221"/>
  <anchor x="467.00000000000006" y="-215.0" name="bottom"/>
  <anchor x="843.671875" y="1556.0" name="top"/>
  <outline>
    <contour>
      <point x="984.078125" y="-215.0" type="line"/>
      <point x="998.75" y="-146.125"/>
      <point x="1024.640625" y="-49.90625"/>
      <point x="1045.859375" y="1.5312500000000018" type="curve"/>
      <point x="1086.171875" y="-8.468749999999998"/>
      <point x="1151.6875" y="-18.90625"/>
      <point x="1232.828125" y="-18.90625" type="curve" smooth="yes"/>
      <point x="1429.3125" y="-18.90625"/>
      <point x="1559.65625" y="44.828125"/>
      <point x="1559.65625" y="210.09375" type="curve" smooth="yes"/>
      <point x="1559.65625" y="325.53125"/>
      <point x="1486.109375" y="411.34375"/>
      <point x="1333.53125" y="411.34375" type="curve" smooth="yes"/>
      <point x="1140.984375" y="411.34375"/>
      <point x="1048.75" y="290.5625"/>
      <point x="981.90625" y="160.375" type="curve"/>
      <point x="967.390625" y="178.375"/>
      <point x="955.53125" y="207.15625"/>
      <point x="955.75" y="250.859375" type="curve" smooth="yes"/>
      <point x="955.96875" y="291.859375"/>
      <point x="965.640625" y="358.4375"/>
      <point x="978.078125" y="417.515625" type="curve" smooth="yes"/>
      <point x="1219.171875" y="1556.0" type="line"/>
      <point x="1053.953125" y="1556.0" type="line"/>
      <point x="976.765625" y="1188.59375" type="line" smooth="yes"/>
      <point x="954.3125" y="1091.90625"/>
      <point x="943.109375" y="1009.71875"/>
      <point x="930.890625" y="917.71875" type="curve"/>
      <point x="920.65625" y="917.71875" type="line"/>
      <point x="878.609375" y="1020.34375"/>
      <point x="793.40625" y="1114.46875"/>
      <point x="639.953125" y="1114.46875" type="curve" smooth="yes"/>
      <point x="302.8125" y="1114.46875"/>
      <point x="98.65625" y="749.4375"/>
      <point x="98.65625" y="355.203125" type="curve" smooth="yes"/>
      <point x="98.65625" y="107.171875"/>
      <point x="217.03125" y="-20.0"/>
      <point x="396.859375" y="-20.0" type="curve" smooth="yes"/>
      <point x="556.875" y="-20.0"/>
      <point x="738.140625" y="110.484375"/>
      <point x="825.921875" y="277.421875" type="curve"/>
      <point x="831.703125" y="277.421875" type="line"/>
      <point x="829.078125" y="164.6875"/>
      <point x="863.09375" y="88.25"/>
      <point x="932.40625" y="45.46875" type="curve"/>
      <point x="907.078125" y="-16.953125000000004"/>
      <point x="877.171875" y="-117.875"/>
      <point x="861.171875" y="-192.734375" type="curve"/>
    </contour>
    <contour>
      <point x="452.515625" y="118.28124999999999" type="curve" smooth="yes"/>
      <point x="331.28125" y="118.28124999999999"/>
      <point x="269.546875" y="197.640625"/>
      <point x="269.546875" y="351.640625" type="curve" smooth="yes"/>
      <point x="269.546875" y="660.171875"/>
      <point x="420.40625" y="976.1875"/>
      <point x="650.421875" y="976.1875" type="curve" smooth="yes"/>
      <point x="798.71875" y="976.1875"/>
      <point x="864.28125" y="884.546875"/>
      <point x="864.28125" y="743.6875" type="curve" smooth="yes"/>
      <point x="864.28125" y="412.78125"/>
      <point x="641.265625" y="118.28124999999999"/>
    </contour>
    <contour>
      <point x="1243.296875" y="91.765625" type="curve" smooth="yes"/>
      <point x="1176.578125" y="91.765625"/>
      <point x="1121.296875" y="98.421875"/>
      <point x="1086.5625" y="109.640625" type="curve"/>
      <point x="1134.078125" y="223.0"/>
      <point x="1206.4375" y="305.015625"/>
      <point x="1321.28125" y="305.015625" type="curve" smooth="yes"/>
      <point x="1398.4375" y="305.015625"/>
      <point x="1436.96875" y="268.046875"/>
      <point x="1436.96875" y="210.09375" type="curve" smooth="yes"/>
      <point x="1436.96875" y="141.71875"/>
      <point x="1386.359375" y="91.765625"/>
    </contour>
  </outline>
</glyph>
<glyph name="uni0223" format="2">
  <advance width="1178.09375"/>
  <unicode hex="0223"/>
  <anchor x="472.375" y="0.0" name="bottom"/>
  <anchor x="705.828125" y="1096.140625" name="top"/>
  <outline>
    <contour>
      <point x="512.40625" y="-19.5625" type="curve" smooth="yes"/>
      <point x="894.6875" y="-19.5625"/>
      <point x="1061.890625" y="265.578125"/>
      <point x="1061.890625" y="579.515625" type="curve" smooth="yes"/>
      <point x="1061.890625" y="751.71875"/>
      <point x="981.546875" y="858.296875"/>
      <point x="875.078125" y="910.5625" type="curve"/>
      <point x="1021.0625" y="954.0625"/>
      <point x="1111.46875" y="1063.640625"/>
      <point x="1159.453125" y="1289.8125" type="curve" smooth="yes"/>
      <point x="1216.21875" y="1556.0" type="line"/>
      <point x="1047.4375" y="1556.0" type="line"/>
      <point x="991.78125" y="1296.46875" type="line" smooth="yes"/>
      <point x="945.578125" y="1076.734375"/>
      <point x="864.703125" y="987.421875"/>
      <point x="694.03125" y="987.421875" type="curve" smooth="yes"/>
      <point x="561.203125" y="987.421875"/>
      <point x="484.59375" y="1043.171875"/>
      <point x="484.59375" y="1168.125" type="curve" smooth="yes"/>
      <point x="484.59375" y="1206.4375"/>
      <point x="490.59375" y="1249.4375"/>
      <point x="501.03125" y="1300.078125" type="curve" smooth="yes"/>
      <point x="555.59375" y="1556.0" type="line"/>
      <point x="387.703125" y="1556.0" type="line"/>
      <point x="333.140625" y="1294.734375" type="line" smooth="yes"/>
      <point x="323.703125" y="1249.65625"/>
      <point x="319.265625" y="1211.5625"/>
      <point x="319.265625" y="1175.921875" type="curve" smooth="yes"/>
      <point x="319.265625" y="1053.609375"/>
      <point x="363.4375" y="977.03125"/>
      <point x="443.0" y="927.78125" type="curve"/>
      <point x="210.890625" y="862.265625"/>
      <point x="85.140625" y="656.1875"/>
      <point x="85.140625" y="385.875" type="curve" smooth="yes"/>
      <point x="85.140625" y="132.5625"/>
      <point x="253.390625" y="-19.5625"/>
    </contour>
    <contour>
      <point x="526.65625" y="118.71874999999999" type="curve" smooth="yes"/>
      <point x="355.84375" y="118.71874999999999"/>
      <point x="260.375" y="226.8125"/>
      <point x="260.375" y="398.34375" type="curve" smooth="yes"/>
      <point x="260.375" y="653.015625"/>
      <point x="388.515625" y="849.140625"/>
      <point x="630.921875" y="849.140625" type="curve" smooth="yes"/>
      <point x="793.40625" y="849.140625"/>
      <point x="886.546875" y="748.390625"/>
      <point x="886.546875" y="581.078125" type="curve" smooth="yes"/>
      <point x="886.546875" y="326.59375"/>
      <point x="764.234375" y="118.71874999999999"/>
    </contour>
  </outline>
</glyph>
<glyph name="uni0224" format="2">
  <advance width="1088.640625"/>
  <unicode hex="0224"/>
  <anchor x="342.875" y="-406.0" name="bottom"/>
  <anchor x="739.984375" y="1462.0" name="top"/>
  <outline>
    <contour>
      <point x="607.578125" y="-406.0" type="curve" smooth="yes"/>
      <point x="724.609375" y="-406.0"/>
      <point x="814.34375" y="-351.125"/>
      <point x="849.484375" y="-180.3125" type="curve" smooth="yes"/>
      <point x="918.828125" y="151.640625" type="line"/>
      <point x="217.84374999999997" y="151.640625" type="line"/>
      <point x="1148.53125" y="1328.8125" type="line"/>
      <point x="1173.453125" y="1462.0" type="line"/>
      <point x="311.078125" y="1462.0" type="line"/>
      <point x="278.703125" y="1310.359375" type="line"/>
      <point x="937.828125" y="1310.359375" type="line"/>
      <point x="6.0312499999999964" y="131.40625" type="line"/>
      <point x="-19.5625" y="0.0" type="line"/>
      <point x="739.9375" y="0.0" type="line"/>
      <point x="708.53125" y="-146.046875" type="line" smooth="yes"/>
      <point x="690.75" y="-230.625"/>
      <point x="656.1875" y="-263.15625"/>
      <point x="594.3125" y="-263.15625" type="curve" smooth="yes"/>
      <point x="559.671875" y="-263.15625"/>
      <point x="528.5625" y="-254.28125"/>
      <point x="499.984375" y="-243.390625" type="curve"/>
      <point x="499.984375" y="-383.21875" type="line"/>
      <point x="521.65625" y="-395.0"/>
      <point x="562.796875" y="-406.0"/>
    </contour>
  </outline>
</glyph>
<glyph name="uni0236" format="2">
  <advance width="702.25"/>
  <unicode hex="0236"/>
  <anchor x="235.734375" y="0.0" name="bottom"/>
  <anchor x="521.734375" y="1348.21875" name="top"/>
  <outline>
    <contour>
      <point x="22.453125" y="-57.46875" type="line"/>
      <point x="51.03125" y="7.312500000000002"/>
      <point x="86.6875" y="74.921875"/>
      <point x="126.125" y="119.234375" type="curve"/>
      <point x="158.609375" y="32.96875"/>
      <point x="239.515625" y="-20.0"/>
      <point x="353.734375" y="-20.0" type="curve" smooth="yes"/>
      <point x="526.609375" y="-20.0"/>
      <point x="644.234375" y="77.265625"/>
      <point x="644.234375" y="239.21875" type="curve" smooth="yes"/>
      <point x="644.234375" y="357.125"/>
      <point x="570.6875" y="458.203125"/>
      <point x="424.15625" y="458.203125" type="curve" smooth="yes"/>
      <point x="384.890625" y="458.203125"/>
      <point x="345.046875" y="449.03125"/>
      <point x="316.28125" y="436.84375" type="curve"/>
      <point x="429.75" y="968.546875" type="line"/>
      <point x="711.203125" y="968.546875" type="line"/>
      <point x="737.453125" y="1096.140625" type="line"/>
      <point x="455.109375" y="1096.140625" type="line"/>
      <point x="510.328125" y="1348.21875" type="line"/>
      <point x="411.21875" y="1348.21875" type="line"/>
      <point x="290.5625" y="1115.734375" type="line"/>
      <point x="108.515625" y="1045.609375" type="line"/>
      <point x="93.171875" y="968.546875" type="line"/>
      <point x="261.75" y="968.546875" type="line"/>
      <point x="142.8125" y="397.390625" type="line" smooth="yes"/>
      <point x="135.25" y="363.8125"/>
      <point x="127.6875" y="328.125"/>
      <point x="122.125" y="296.328125" type="curve"/>
      <point x="45.21875" y="220.328125"/>
      <point x="-31.609374999999996" y="111.421875"/>
      <point x="-91.109375" y="-15.640625000000002" type="curve"/>
    </contour>
    <contour>
      <point x="372.4375" y="109.37499999999999" type="curve" smooth="yes"/>
      <point x="294.90625" y="109.37499999999999"/>
      <point x="268.421875" y="172.8125"/>
      <point x="268.421875" y="262.640625" type="curve"/>
      <point x="299.1875" y="302.296875"/>
      <point x="342.15625" y="328.828125"/>
      <point x="399.0" y="328.828125" type="curve" smooth="yes"/>
      <point x="450.953125" y="328.828125"/>
      <point x="494.828125" y="292.078125"/>
      <point x="494.828125" y="231.875" type="curve" smooth="yes"/>
      <point x="494.828125" y="151.90625"/>
      <point x="440.9375" y="109.37499999999999"/>
    </contour>
  </outline>
</glyph>
<glyph name="uni023D" format="2">
  <advance width="981.953125"/>
  <unicode hex="023D"/>
  <anchor x="374.75" y="0.0" name="bottom"/>
  <anchor x="685.75" y="1462.0" name="top"/>
  <outline>
    <contour>
      <point x="85.96875" y="0.0" type="line"/>
      <point x="825.65625" y="0.0" type="line"/>
      <point x="858.03125" y="151.640625" type="line"/>
      <point x="284.671875" y="151.640625" type="line"/>
      <point x="396.515625" y="681.3125" type="line"/>
      <point x="719.8125" y="681.3125" type="line"/>
      <point x="748.734375" y="816.03125" type="line"/>
      <point x="424.546875" y="816.03125" type="line"/>
      <point x="563.1875" y="1462.0" type="line"/>
      <point x="395.078125" y="1462.0" type="line"/>
      <point x="258.21875" y="816.03125" type="line"/>
      <point x="92.25" y="816.03125" type="line"/>
      <point x="63.546875" y="681.3125" type="line"/>
      <point x="229.296875" y="681.3125" type="line"/>
    </contour>
  </outline>
</glyph>
<glyph name="uni0240" format="2">
  <advance width="880.953125"/>
  <unicode hex="0240"/>
  <anchor x="219.25" y="-492.0" name="bottom"/>
  <anchor x="556.8125" y="1096.140625" name="top"/>
  <outline>
    <contour>
      <point x="510.171875" y="-492.0" type="curve" smooth="yes"/>
      <point x="573.953125" y="-492.0"/>
      <point x="627.859375" y="-477.0"/>
      <point x="659.65625" y="-463.4375" type="curve"/>
      <point x="659.65625" y="-324.265625" type="line"/>
      <point x="621.3125" y="-339.15625"/>
      <point x="582.421875" y="-352.71875"/>
      <point x="533.3125" y="-352.71875" type="curve" smooth="yes"/>
      <point x="434.015625" y="-352.71875"/>
      <point x="396.265625" y="-300.625"/>
      <point x="380.0625" y="-174.046875" type="curve" smooth="yes"/>
      <point x="359.296875" y="0.8593749999999929"/>
      <point x="310.296875" y="87.515625"/>
      <point x="181.6875" y="122.24999999999999" type="curve"/>
      <point x="871.859375" y="962.828125" type="line"/>
      <point x="898.34375" y="1096.140625" type="line"/>
      <point x="233.0" y="1096.140625" type="line"/>
      <point x="206.75" y="970.328125" type="line"/>
      <point x="689.671875" y="970.328125" type="line"/>
      <point x="-7.859375000000002" y="113.37499999999999" type="line"/>
      <point x="-30.78125" y="0.0" type="line"/>
      <point x="44.34375" y="0.0" type="line" smooth="yes"/>
      <point x="169.09375" y="0.0"/>
      <point x="211.4375" y="-53.296875"/>
      <point x="222.859375" y="-175.359375" type="curve" smooth="yes"/>
      <point x="242.84375" y="-385.1875"/>
      <point x="311.734375" y="-492.0"/>
    </contour>
  </outline>
</glyph>
<glyph name="uni0241" format="2">
  <advance width="901.15625"/>
  <unicode hex="0241"/>
  <anchor x="333.90625" y="0.0" name="bottom"/>
  <anchor x="645.015625" y="1462.0" name="top"/>
  <outline>
    <contour>
      <point x="135.03125" y="0.0" type="line"/>
      <point x="305.59375" y="0.0" type="line"/>
      <point x="423.234375" y="558.171875" type="line"/>
      <point x="717.859375" y="668.9375"/>
      <point x="938.53125" y="829.59375"/>
      <point x="938.53125" y="1110.53125" type="curve" smooth="yes"/>
      <point x="938.53125" y="1331.265625"/>
      <point x="799.359375" y="1483.0"/>
      <point x="552.5" y="1483.0" type="curve" smooth="yes"/>
      <point x="402.375" y="1483.0"/>
      <point x="272.21875" y="1437.78125"/>
      <point x="161.953125" y="1369.3125" type="curve"/>
      <point x="224.359375" y="1233.46875" type="line"/>
      <point x="318.296875" y="1291.15625"/>
      <point x="431.96875" y="1333.140625"/>
      <point x="533.8125" y="1333.140625" type="curve" smooth="yes"/>
      <point x="675.515625" y="1333.140625"/>
      <point x="759.734375" y="1240.375"/>
      <point x="759.734375" y="1104.96875" type="curve" smooth="yes"/>
      <point x="759.734375" y="861.25"/>
      <point x="514.125" y="749.984375"/>
      <point x="273.59375" y="653.859375" type="curve"/>
    </contour>
  </outline>
</glyph>
<glyph name="uni0242" format="2">
  <advance width="877.578125"/>
  <unicode hex="0242"/>
  <anchor x="322.5625" y="0.0" name="bottom"/>
  <anchor x="555.234375" y="1096.140625" name="top"/>
  <outline>
    <contour>
      <point x="125.609375" y="0.0" type="line"/>
      <point x="290.046875" y="0.0" type="line"/>
      <point x="332.546875" y="202.796875" type="line"/>
      <point x="634.46875" y="305.8125"/>
      <point x="817.21875" y="475.515625"/>
      <point x="817.21875" y="749.75" type="curve" smooth="yes"/>
      <point x="817.21875" y="970.5"/>
      <point x="674.15625" y="1116.25"/>
      <point x="439.328125" y="1116.25" type="curve" smooth="yes"/>
      <point x="290.078125" y="1116.25"/>
      <point x="182.5" y="1086.828125"/>
      <point x="74.4375" y="1014.65625" type="curve"/>
      <point x="139.640625" y="883.046875" type="line"/>
      <point x="233.46875" y="947.65625"/>
      <point x="314.5625" y="972.625"/>
      <point x="423.984375" y="972.625" type="curve" smooth="yes"/>
      <point x="557.875" y="972.625"/>
      <point x="647.21875" y="874.828125"/>
      <point x="647.21875" y="740.40625" type="curve" smooth="yes"/>
      <point x="647.21875" y="501.1875"/>
      <point x="422.328125" y="383.765625"/>
      <point x="188.46875" y="300.140625" type="curve"/>
    </contour>
  </outline>
</glyph>
<glyph name="uni024B" format="2">
  <advance width="1183.484375"/>
  <unicode hex="024B"/>
  <anchor x="371.796875" y="-492.0" name="bottom"/>
  <anchor x="709.359375" y="1096.140625" name="top"/>
  <outline>
    <contour>
      <point x="888.984375" y="-492.0" type="curve" smooth="yes"/>
      <point x="949.578125" y="-492.0"/>
      <point x="1006.078125" y="-477.4375"/>
      <point x="1035.984375" y="-460.3125" type="curve"/>
      <point x="1035.984375" y="-332.71875" type="line"/>
      <point x="1013.203125" y="-342.71875"/>
      <point x="975.1875" y="-354.5"/>
      <point x="925.5" y="-354.5" type="curve" smooth="yes"/>
      <point x="875.8125" y="-354.5"/>
      <point x="839.0" y="-327.609375"/>
      <point x="839.0" y="-260.984375" type="curve" smooth="yes"/>
      <point x="839.0" y="-234.203125"/>
      <point x="845.0" y="-200.18750000000003"/>
      <point x="852.890625" y="-164.06250000000003" type="curve" smooth="yes"/>
      <point x="1121.734375" y="1096.140625" type="line"/>
      <point x="996.578125" y="1096.140625" type="line"/>
      <point x="930.890625" y="917.71875" type="line"/>
      <point x="920.65625" y="917.71875" type="line"/>
      <point x="880.171875" y="1020.671875"/>
      <point x="793.40625" y="1116.25"/>
      <point x="641.953125" y="1116.25" type="curve" smooth="yes"/>
      <point x="302.8125" y="1116.25"/>
      <point x="98.65625" y="745.875"/>
      <point x="98.65625" y="355.203125" type="curve" smooth="yes"/>
      <point x="98.65625" y="108.953125"/>
      <point x="217.25" y="-20.0"/>
      <point x="398.859375" y="-20.0" type="curve" smooth="yes"/>
      <point x="558.328125" y="-20.0"/>
      <point x="680.109375" y="90.31250000000001"/>
      <point x="772.03125" y="213.28125" type="curve"/>
      <point x="779.59375" y="213.28125" type="line"/>
      <point x="756.265625" y="134.21875"/>
      <point x="729.71875" y="29.843750000000004"/>
      <point x="718.84375" y="-21.203125" type="curve" smooth="yes"/>
      <point x="686.671875" y="-166.51562500000003" type="line" smooth="yes"/>
      <point x="678.890625" y="-207.984375"/>
      <point x="674.671875" y="-245.875"/>
      <point x="674.671875" y="-279.015625" type="curve" smooth="yes"/>
      <point x="674.671875" y="-433.859375"/>
      <point x="764.21875" y="-492.0"/>
    </contour>
    <contour>
      <point x="452.953125" y="118.28124999999999" type="curve" smooth="yes"/>
      <point x="330.40625" y="118.28124999999999"/>
      <point x="269.546875" y="198.296875"/>
      <point x="269.546875" y="351.640625" type="curve" smooth="yes"/>
      <point x="269.546875" y="660.171875"/>
      <point x="422.1875" y="976.1875"/>
      <point x="652.421875" y="976.1875" type="curve" smooth="yes"/>
      <point x="797.15625" y="976.1875"/>
      <point x="862.5" y="874.75"/>
      <point x="862.5" y="743.6875" type="curve" smooth="yes"/>
      <point x="862.5" y="422.203125"/>
      <point x="644.359375" y="118.28124999999999"/>
    </contour>
  </outline>
</glyph>
<glyph name="uni024C" format="2">
  <advance width="1171.484375"/>
  <unicode hex="024C"/>
  <anchor x="469.90625" y="0.0" name="bottom"/>
  <anchor x="780.90625" y="1462.0" name="top"/>
  <outline>
    <contour>
      <point x="85.96875" y="0.0" type="line"/>
      <point x="254.1875" y="0.0" type="line"/>
      <point x="382.5" y="609.578125" type="line"/>
      <point x="638.140625" y="609.578125" type="line"/>
      <point x="849.765625" y="0.0" type="line"/>
      <point x="1034.453125" y="0.0" type="line"/>
      <point x="793.5625" y="647.296875" type="line"/>
      <point x="1057.5625" y="718.125"/>
      <point x="1162.59375" y="878.921875"/>
      <point x="1162.59375" y="1095.5" type="curve" smooth="yes"/>
      <point x="1162.59375" y="1336.859375"/>
      <point x="1013.921875" y="1462.0"/>
      <point x="714.78125" y="1462.0" type="curve" smooth="yes"/>
      <point x="395.078125" y="1462.0" type="line"/>
      <point x="244.875" y="754.203125" type="line"/>
      <point x="77.921875" y="754.203125" type="line"/>
      <point x="47.4375" y="609.578125" type="line"/>
      <point x="214.390625" y="609.578125" type="line"/>
    </contour>
    <contour>
      <point x="412.984375" y="754.203125" type="line"/>
      <point x="533.59375" y="1314.8125" type="line"/>
      <point x="698.21875" y="1314.8125" type="line" smooth="yes"/>
      <point x="891.75" y="1314.8125"/>
      <point x="989.03125" y="1252.875"/>
      <point x="989.03125" y="1083.703125" type="curve" smooth="yes"/>
      <point x="989.03125" y="884.21875"/>
      <point x="860.078125" y="754.203125"/>
      <point x="589.5" y="754.203125" type="curve" smooth="yes"/>
    </contour>
  </outline>
</glyph>
<glyph name="uni024F" format="2">
  <advance width="943.3125"/>
  <unicode hex="024F"/>
  <anchor x="251.546875" y="-492.65625" name="bottom"/>
  <anchor x="554.59375" y="1096.140625" name="top"/>
  <outline>
    <contour>
      <point x="12.078125000000004" y="593.828125" type="line"/>
      <point x="948.203125" y="593.828125" type="line"/>
      <point x="976.015625" y="728.546875" type="line"/>
      <point x="40.78125" y="728.546875" type="line"/>
    </contour>
    <component base="y"/>
  </outline>
</glyph>
<glyph name="uni0250" format="2">
  <advance width="1111.921875"/>
  <unicode hex="0250"/>
  <anchor x="441.125" y="0.0" name="bottom"/>
  <anchor x="673.6875" y="1096.140625" name="top"/>
  <outline>
    <contour>
      <point x="456.9375" y="-19.78125" type="curve" smooth="yes"/>
      <point x="592.84375" y="-19.78125"/>
      <point x="711.796875" y="17.125"/>
      <point x="813.109375" y="68.796875" type="curve"/>
      <point x="764.671875" y="195.59375" type="line"/>
      <point x="669.90625" y="151.9375"/>
      <point x="571.25" y="114.93749999999999"/>
      <point x="464.28125" y="114.93749999999999" type="curve" smooth="yes"/>
      <point x="355.90625" y="114.93749999999999"/>
      <point x="280.890625" y="161.21875"/>
      <point x="280.890625" y="277.53125" type="curve" smooth="yes"/>
      <point x="280.890625" y="304.15625"/>
      <point x="285.109375" y="336.90625"/>
      <point x="291.765625" y="370.75" type="curve" smooth="yes"/>
      <point x="306.3125" y="438.046875" type="line"/>
      <point x="475.59375" y="443.828125" type="line" smooth="yes"/>
      <point x="770.234375" y="454.5"/>
      <point x="1052.015625" y="531.0625"/>
      <point x="1052.015625" y="825.046875" type="curve" smooth="yes"/>
      <point x="1052.015625" y="1011.78125"/>
      <point x="922.15625" y="1114.90625"/>
      <point x="741.03125" y="1114.90625" type="curve" smooth="yes"/>
      <point x="600.328125" y="1114.90625"/>
      <point x="490.578125" y="1055.203125"/>
      <point x="397.421875" y="933.546875" type="curve"/>
      <point x="388.96875" y="933.546875" type="line"/>
      <point x="392.796875" y="1094.359375" type="line"/>
      <point x="276.765625" y="1094.359375" type="line"/>
      <point x="125.65625" y="379.65625" type="line" smooth="yes"/>
      <point x="117.21875" y="336.90625"/>
      <point x="113.0" y="298.046875"/>
      <point x="113.0" y="261.953125" type="curve" smooth="yes"/>
      <point x="113.0" y="74.4375"/>
      <point x="228.625" y="-19.78125"/>
    </contour>
    <contour>
      <point x="333.234375" y="554.953125" type="line"/>
      <point x="354.671875" y="654.375" type="line" smooth="yes"/>
      <point x="400.546875" y="870.21875"/>
      <point x="533.078125" y="980.1875"/>
      <point x="696.28125" y="980.1875" type="curve" smooth="yes"/>
      <point x="803.65625" y="980.1875"/>
      <point x="876.671875" y="921.5625"/>
      <point x="876.671875" y="821.484375" type="curve" smooth="yes"/>
      <point x="876.671875" y="621.84375"/>
      <point x="696.359375" y="568.84375"/>
      <point x="477.59375" y="560.734375" type="curve" smooth="yes"/>
    </contour>
  </outline>
</glyph>
<glyph name="uni0255" format="2">
  <advance width="978.546875"/>
  <unicode hex="0255"/>
  <anchor x="373.828125" y="0.0" name="bottom"/>
  <anchor x="606.5" y="1096.140625" name="top"/>
  <outline>
    <contour>
      <point x="94.265625" y="-106.78125" type="line"/>
      <point x="129.265625" y="-36.609375"/>
      <point x="170.484375" y="33.140625"/>
      <point x="207.265625" y="84.6875" type="curve"/>
      <point x="278.078125" y="14.984375000000002"/>
      <point x="381.65625" y="-19.78125"/>
      <point x="501.5625" y="-19.78125" type="curve" smooth="yes"/>
      <point x="719.890625" y="-19.78125"/>
      <point x="869.515625" y="75.484375"/>
      <point x="869.515625" y="264.8125" type="curve" smooth="yes"/>
      <point x="869.515625" y="390.96875"/>
      <point x="789.375" y="501.84375"/>
      <point x="614.5" y="501.84375" type="curve" smooth="yes"/>
      <point x="483.640625" y="501.84375"/>
      <point x="376.984375" y="446.109375"/>
      <point x="276.296875" y="347.921875" type="curve"/>
      <point x="271.046875" y="372.84375"/>
      <point x="268.640625" y="402.515625"/>
      <point x="268.640625" y="430.390625" type="curve" smooth="yes"/>
      <point x="268.640625" y="708.34375"/>
      <point x="432.015625" y="976.1875"/>
      <point x="675.3125" y="976.1875" type="curve" smooth="yes"/>
      <point x="761.78125" y="976.1875"/>
      <point x="839.75" y="950.5"/>
      <point x="896.171875" y="924.40625" type="curve"/>
      <point x="943.34375" y="1063.6875" type="line"/>
      <point x="866.65625" y="1096.578125"/>
      <point x="769.09375" y="1116.25"/>
      <point x="673.53125" y="1116.25" type="curve" smooth="yes"/>
      <point x="319.0" y="1116.25"/>
      <point x="99.640625" y="780.90625"/>
      <point x="99.640625" y="389.875" type="curve" smooth="yes"/>
      <point x="99.640625" y="315.28125"/>
      <point x="114.9375" y="241.0"/>
      <point x="139.09375" y="194.9375" type="curve"/>
      <point x="88.09375000000001" y="124.28124999999999"/>
      <point x="34.625000000000014" y="38.062499999999986"/>
      <point x="-9.499999999999986" y="-48.593750000000014" type="curve"/>
    </contour>
    <contour>
      <point x="513.125" y="118.49999999999999" type="curve" smooth="yes"/>
      <point x="418.90625" y="118.49999999999999"/>
      <point x="352.28125" y="160.84375"/>
      <point x="318.3125" y="216.96875" type="curve"/>
      <point x="403.21875" y="313.171875"/>
      <point x="504.78125" y="363.5625"/>
      <point x="596.25" y="363.5625" type="curve" smooth="yes"/>
      <point x="675.78125" y="363.5625"/>
      <point x="721.0" y="321.6875"/>
      <point x="721.0" y="255.46875" type="curve" smooth="yes"/>
      <point x="721.0" y="183.296875"/>
      <point x="649.6875" y="118.49999999999999"/>
    </contour>
  </outline>
</glyph>
<glyph name="uni0260" format="2">
  <advance width="1183.484375"/>
  <unicode hex="0260"/>
  <anchor x="371.796875" y="-492.0" name="bottom"/>
  <anchor x="809.90625" y="1568.09375" name="top"/>
  <outline>
    <contour>
      <point x="377.828125" y="-492.0" type="curve" smooth="yes"/>
      <point x="643.875" y="-492.0"/>
      <point x="810.59375" y="-367.09375"/>
      <point x="875.390625" y="-62.34375" type="curve" smooth="yes"/>
      <point x="1165.03125" y="1303.1875" type="line" smooth="yes"/>
      <point x="1183.921875" y="1385.84375"/>
      <point x="1221.609375" y="1423.578125"/>
      <point x="1280.4375" y="1423.578125" type="curve" smooth="yes"/>
      <point x="1323.65625" y="1423.578125"/>
      <point x="1364.0" y="1412.8125"/>
      <point x="1385.78125" y="1402.15625" type="curve"/>
      <point x="1386.984375" y="1540.65625" type="line"/>
      <point x="1365.09375" y="1552.984375"/>
      <point x="1317.625" y="1568.09375"/>
      <point x="1270.1875" y="1568.09375" type="curve" smooth="yes"/>
      <point x="1103.984375" y="1568.09375"/>
      <point x="1036.5" y="1470.046875"/>
      <point x="997.359375" y="1289.59375" type="curve" smooth="yes"/>
      <point x="974.328125" y="1179.859375" type="line" smooth="yes"/>
      <point x="953.875" y="1085.390625"/>
      <point x="943.109375" y="1007.28125"/>
      <point x="930.890625" y="917.71875" type="curve"/>
      <point x="920.65625" y="917.71875" type="line"/>
      <point x="878.390625" y="1020.890625"/>
      <point x="793.1875" y="1114.46875"/>
      <point x="640.171875" y="1114.46875" type="curve" smooth="yes"/>
      <point x="302.8125" y="1114.46875"/>
      <point x="98.65625" y="749.4375"/>
      <point x="98.65625" y="355.203125" type="curve" smooth="yes"/>
      <point x="98.65625" y="107.171875"/>
      <point x="217.03125" y="-20.0"/>
      <point x="397.078125" y="-20.0" type="curve" smooth="yes"/>
      <point x="556.328125" y="-20.0"/>
      <point x="675.125" y="87.109375"/>
      <point x="772.03125" y="213.0625" type="curve"/>
      <point x="779.59375" y="213.0625" type="line"/>
      <point x="764.9375" y="159.328125"/>
      <point x="741.71875" y="68.25"/>
      <point x="727.5" y="5.6093750000000036" type="curve" smooth="yes"/>
      <point x="708.609375" y="-73.046875" type="line" smooth="yes"/>
      <point x="664.625" y="-268.296875"/>
      <point x="552.765625" y="-352.71875"/>
      <point x="372.703125" y="-352.71875" type="curve" smooth="yes"/>
      <point x="256.90625" y="-352.71875"/>
      <point x="124.09375" y="-310.703125"/>
      <point x="51.21875" y="-267.921875" type="curve"/>
      <point x="51.21875" y="-422.21875" type="line"/>
      <point x="129.0" y="-462.5625"/>
      <point x="246.359375" y="-492.0"/>
    </contour>
    <contour>
      <point x="452.953125" y="118.28124999999999" type="curve" smooth="yes"/>
      <point x="330.625" y="118.28124999999999"/>
      <point x="269.546875" y="198.296875"/>
      <point x="269.546875" y="351.640625" type="curve" smooth="yes"/>
      <point x="269.546875" y="660.171875"/>
      <point x="420.40625" y="976.1875"/>
      <point x="650.640625" y="976.1875" type="curve" smooth="yes"/>
      <point x="798.9375" y="976.1875"/>
      <point x="864.28125" y="884.546875"/>
      <point x="864.28125" y="743.6875" type="curve" smooth="yes"/>
      <point x="864.28125" y="412.125"/>
      <point x="640.609375" y="118.28124999999999"/>
    </contour>
  </outline>
</glyph>
<glyph name="uni0265" format="2">
  <advance width="1180.203125"/>
  <unicode hex="0265"/>
  <anchor x="370.703125" y="-490.140625" name="bottom"/>
  <anchor x="707.828125" y="1096.140625" name="top"/>
  <outline>
    <contour>
      <point x="618.09375" y="-490.140625" type="line"/>
      <point x="782.421875" y="-490.140625" type="line"/>
      <point x="1119.546875" y="1096.140625" type="line"/>
      <point x="955.21875" y="1096.140625" type="line"/>
      <point x="853.140625" y="613.515625" type="line" smooth="yes"/>
      <point x="777.875" y="264.21875"/>
      <point x="584.234375" y="118.28124999999999"/>
      <point x="434.71875" y="118.28124999999999" type="curve" smooth="yes"/>
      <point x="327.90625" y="118.28124999999999"/>
      <point x="281.984375" y="173.03125"/>
      <point x="281.984375" y="268.25" type="curve" smooth="yes"/>
      <point x="281.984375" y="303.25"/>
      <point x="287.765625" y="346.03125"/>
      <point x="299.546875" y="404.390625" type="curve" smooth="yes"/>
      <point x="447.765625" y="1096.140625" type="line"/>
      <point x="279.875" y="1096.140625" type="line"/>
      <point x="135.4375" y="422.859375" type="line" smooth="yes"/>
      <point x="123.65625" y="363.390625"/>
      <point x="114.09375" y="309.9375"/>
      <point x="114.09375" y="251.34375" type="curve" smooth="yes"/>
      <point x="114.09375" y="73.78125"/>
      <point x="221.0" y="-20.0"/>
      <point x="388.3125" y="-20.0" type="curve" smooth="yes"/>
      <point x="570.796875" y="-20.0"/>
      <point x="690.5" y="107.6875"/>
      <point x="767.84375" y="211.96875" type="curve"/>
      <point x="777.1875" y="211.96875" type="line"/>
      <point x="758.203125" y="139.703125"/>
      <point x="727.53125" y="30.062500000000004"/>
      <point x="715.890625" y="-28.718750000000004" type="curve" smooth="yes"/>
    </contour>
  </outline>
</glyph>
<glyph name="uni0267" format="2">
  <advance width="1178.78125"/>
  <unicode hex="0267"/>
  <anchor x="369.609375" y="-492.0" name="bottom"/>
  <anchor x="807.609375" y="1568.09375" name="top"/>
  <outline>
    <contour>
      <point x="538.53125" y="-492.0" type="curve" smooth="yes"/>
      <point x="734.765625" y="-492.0"/>
      <point x="821.453125" y="-367.46875"/>
      <point x="863.578125" y="-169.1875" type="curve" smooth="yes"/>
      <point x="1042.875" y="671.5" type="line" smooth="yes"/>
      <point x="1054.765625" y="731.078125"/>
      <point x="1064.328125" y="783.640625"/>
      <point x="1064.328125" y="836.0" type="curve" smooth="yes"/>
      <point x="1064.328125" y="1020.6875"/>
      <point x="959.09375" y="1114.46875"/>
      <point x="788.21875" y="1114.46875" type="curve" smooth="yes"/>
      <point x="606.625" y="1114.46875"/>
      <point x="487.8125" y="987.671875"/>
      <point x="410.578125" y="882.5" type="curve"/>
      <point x="401.234375" y="882.5" type="line"/>
      <point x="421.890625" y="958.21875"/>
      <point x="441.984375" y="1036.6875"/>
      <point x="458.859375" y="1115.171875" type="curve" smooth="yes"/>
      <point x="499.0625" y="1297.84375" type="line" smooth="yes"/>
      <point x="517.0625" y="1383.84375"/>
      <point x="554.75" y="1423.578125"/>
      <point x="614.46875" y="1423.578125" type="curve" smooth="yes"/>
      <point x="657.6875" y="1423.578125"/>
      <point x="698.03125" y="1412.8125"/>
      <point x="719.8125" y="1402.15625" type="curve"/>
      <point x="720.90625" y="1540.65625" type="line"/>
      <point x="699.125" y="1552.984375"/>
      <point x="650.765625" y="1568.09375"/>
      <point x="603.328125" y="1568.09375" type="curve" smooth="yes"/>
      <point x="437.125" y="1568.09375"/>
      <point x="368.75" y="1470.046875"/>
      <point x="331.28125" y="1289.59375" type="curve" smooth="yes"/>
      <point x="57.984375" y="0.0" type="line"/>
      <point x="224.984375" y="0.0" type="line"/>
      <point x="327.0625" y="482.625" type="line" smooth="yes"/>
      <point x="400.546875" y="831.921875"/>
      <point x="592.40625" y="976.1875"/>
      <point x="742.8125" y="976.1875" type="curve" smooth="yes"/>
      <point x="848.625" y="976.1875"/>
      <point x="896.328125" y="920.4375"/>
      <point x="896.328125" y="823.4375" type="curve" smooth="yes"/>
      <point x="896.328125" y="791.21875"/>
      <point x="890.546875" y="750.21875"/>
      <point x="877.875" y="690.078125" type="curve" smooth="yes"/>
      <point x="699.359375" y="-149.609375" type="line" smooth="yes"/>
      <point x="671.578125" y="-283.953125"/>
      <point x="615.90625" y="-352.71875"/>
      <point x="530.515625" y="-352.71875" type="curve" smooth="yes"/>
      <point x="486.828125" y="-352.71875"/>
      <point x="448.515625" y="-343.15625"/>
      <point x="412.84375" y="-329.828125" type="curve"/>
      <point x="412.84375" y="-471.0" type="line"/>
      <point x="446.078125" y="-482.78125"/>
      <point x="489.953125" y="-492.0"/>
    </contour>
  </outline>
</glyph>
<glyph name="uni026A" format="2">
  <advance width="581.0"/>
  <unicode hex="026A"/>
  <anchor x="173.71875" y="0.0" name="bottom"/>
  <anchor x="407.171875" y="1096.140625" name="top"/>
  <outline>
    <contour>
      <point x="-54.09375" y="0.0" type="line"/>
      <point x="404.3125" y="0.0" type="line"/>
      <point x="424.78125" y="98.890625" type="line"/>
      <point x="283.96875" y="130.5" type="line"/>
      <point x="462.015625" y="962.96875" type="line"/>
      <point x="614.84375" y="996.359375" type="line"/>
      <point x="635.3125" y="1096.140625" type="line"/>
      <point x="176.6875" y="1096.140625" type="line"/>
      <point x="156.21875" y="996.359375" type="line"/>
      <point x="299.46875" y="962.96875" type="line"/>
      <point x="121.421875" y="130.5" type="line"/>
      <point x="-33.625" y="98.890625" type="line"/>
    </contour>
  </outline>
</glyph>
<glyph name="uni026B" format="2">
  <advance width="681.390625"/>
  <unicode hex="026B"/>
  <anchor x="224.46875" y="0.0" name="bottom"/>
  <anchor x="555.359375" y="1556.0" name="top"/>
  <outline>
    <contour>
      <point x="138.140625" y="0.0" type="line"/>
      <point x="305.140625" y="0.0" type="line"/>
      <point x="450.4375" y="686.28125" type="line"/>
      <point x="473.984375" y="674.96875"/>
      <point x="498.75" y="666.65625"/>
      <point x="525.0625" y="666.65625" type="curve" smooth="yes"/>
      <point x="638.65625" y="666.65625"/>
      <point x="713.484375" y="756.265625"/>
      <point x="756.953125" y="919.703125" type="curve"/>
      <point x="655.625" y="919.703125" type="line"/>
      <point x="622.625" y="835.078125"/>
      <point x="593.875" y="803.171875"/>
      <point x="535.96875" y="803.171875" type="curve" smooth="yes"/>
      <point x="518.328125" y="803.171875"/>
      <point x="498.34375" y="811.03125"/>
      <point x="479.140625" y="821.0" type="curve"/>
      <point x="636.03125" y="1556.0" type="line"/>
      <point x="469.8125" y="1556.0" type="line"/>
      <point x="331.71875" y="901.859375" type="line"/>
      <point x="310.734375" y="911.5"/>
      <point x="282.859375" y="917.921875"/>
      <point x="257.890625" y="917.921875" type="curve" smooth="yes"/>
      <point x="142.953125" y="917.921875"/>
      <point x="66.5625" y="828.859375"/>
      <point x="30.437499999999993" y="664.875" type="curve"/>
      <point x="129.546875" y="664.875" type="line"/>
      <point x="158.984375" y="744.265625"/>
      <point x="189.515625" y="781.40625"/>
      <point x="245.203125" y="781.40625" type="curve" smooth="yes"/>
      <point x="263.5" y="781.40625"/>
      <point x="283.59375" y="775.4375"/>
      <point x="301.234375" y="767.140625" type="curve"/>
    </contour>
  </outline>
</glyph>
<glyph name="uni026C" format="2">
  <advance width="659.796875"/>
  <unicode hex="026C"/>
  <anchor x="214.0625" y="0.0" name="bottom"/>
  <anchor x="545.84375" y="1556.0" name="top"/>
  <outline>
    <contour>
      <point x="163.265625" y="0.0" type="line"/>
      <point x="329.484375" y="0.0" type="line"/>
      <point x="460.015625" y="615.4375" type="line"/>
      <point x="654.96875" y="615.4375" type="line"/>
      <point x="683.890625" y="752.828125" type="line"/>
      <point x="488.9375" y="752.828125" type="line"/>
      <point x="661.59375" y="1556.0" type="line"/>
      <point x="495.484375" y="1556.0" type="line"/>
      <point x="373.640625" y="982.75" type="line"/>
      <point x="345.953125" y="1008.15625"/>
      <point x="308.296875" y="1028.015625"/>
      <point x="260.890625" y="1028.015625" type="curve" smooth="yes"/>
      <point x="113.0" y="1028.015625"/>
      <point x="28.968750000000004" y="935.296875"/>
      <point x="28.968750000000004" y="810.78125" type="curve" smooth="yes"/>
      <point x="28.968750000000004" y="700.296875"/>
      <point x="102.4375" y="615.4375"/>
      <point x="253.734375" y="615.4375" type="curve" smooth="yes"/>
      <point x="293.90625" y="615.4375" type="line"/>
    </contour>
    <contour>
      <point x="259.515625" y="752.828125" type="line" smooth="yes"/>
      <point x="208.46875" y="752.828125"/>
      <point x="179.9375" y="773.8125"/>
      <point x="179.9375" y="817.90625" type="curve" smooth="yes"/>
      <point x="179.9375" y="857.75"/>
      <point x="206.6875" y="891.40625"/>
      <point x="257.546875" y="891.40625" type="curve" smooth="yes"/>
      <point x="308.953125" y="891.40625"/>
      <point x="332.828125" y="854.4375"/>
      <point x="332.828125" y="808.34375" type="curve" smooth="yes"/>
      <point x="332.828125" y="794.921875"/>
      <point x="330.609375" y="781.59375"/>
      <point x="328.171875" y="769.734375" type="curve" smooth="yes"/>
      <point x="324.390625" y="752.828125" type="line"/>
    </contour>
  </outline>
</glyph>
<glyph name="uni026D" format="2">
  <advance width="517.578125"/>
  <unicode hex="026D"/>
  <anchor x="38.95312499999999" y="-491.671875" name="bottom"/>
  <anchor x="474.734375" y="1556.0" name="top"/>
  <outline>
    <contour>
      <point x="261.515625" y="-491.671875" type="curve" smooth="yes"/>
      <point x="322.640625" y="-491.671875"/>
      <point x="399.25" y="-471.65625"/>
      <point x="433.03125" y="-456.09375" type="curve"/>
      <point x="433.03125" y="-327.609375" type="line"/>
      <point x="380.765625" y="-344.0625"/>
      <point x="338.890625" y="-354.28125"/>
      <point x="292.6875" y="-354.28125" type="curve" smooth="yes"/>
      <point x="212.6875" y="-354.28125"/>
      <point x="184.859375" y="-305.71875"/>
      <point x="184.859375" y="-234.90625" type="curve" smooth="yes"/>
      <point x="184.859375" y="-193.171875"/>
      <point x="193.296875" y="-141.4375"/>
      <point x="202.28125" y="-100.28125" type="curve" smooth="yes"/>
      <point x="555.625" y="1556.0" type="line"/>
      <point x="389.515625" y="1556.0" type="line"/>
      <point x="37.84375" y="-91.375" type="line" smooth="yes"/>
      <point x="25.406250000000004" y="-151.78125"/>
      <point x="16.078125000000004" y="-212.09375"/>
      <point x="16.078125000000004" y="-255.828125" type="curve" smooth="yes"/>
      <point x="16.078125000000004" y="-428.46875"/>
      <point x="120.921875" y="-491.671875"/>
    </contour>
  </outline>
</glyph>
<glyph name="uni0271" format="2">
  <advance width="1784.5625"/>
  <unicode hex="0271"/>
  <anchor x="672.390625" y="-492.0" name="bottom"/>
  <anchor x="1009.953125" y="1096.140625" name="top"/>
  <anchor x="1860.34375" y="1096.140625" name="topright"/>
  <outline>
    <contour>
      <point x="1143.0" y="-492.0" type="curve" smooth="yes"/>
      <point x="1340.125" y="-492.0"/>
      <point x="1426.8125" y="-367.46875"/>
      <point x="1468.828125" y="-169.1875" type="curve" smooth="yes"/>
      <point x="1647.34375" y="671.5" type="line" smooth="yes"/>
      <point x="1660.90625" y="731.078125"/>
      <point x="1668.796875" y="783.640625"/>
      <point x="1668.796875" y="846.6875" type="curve" smooth="yes"/>
      <point x="1668.796875" y="1020.6875"/>
      <point x="1573.125" y="1116.25"/>
      <point x="1404.109375" y="1116.25" type="curve" smooth="yes"/>
      <point x="1232.0625" y="1116.25"/>
      <point x="1103.421875" y="987.890625"/>
      <point x="1023.28125" y="865.578125" type="curve"/>
      <point x="1015.9375" y="865.578125" type="line"/>
      <point x="1002.78125" y="1020.859375"/>
      <point x="922.421875" y="1116.25"/>
      <point x="768.375" y="1116.25" type="curve" smooth="yes"/>
      <point x="596.109375" y="1116.25"/>
      <point x="483.375" y="987.671875"/>
      <point x="410.578125" y="884.28125" type="curve"/>
      <point x="401.234375" y="884.28125" type="line"/>
      <point x="427.28125" y="1096.140625" type="line"/>
      <point x="291.4375" y="1096.140625" type="line"/>
      <point x="57.984375" y="0.0" type="line"/>
      <point x="224.984375" y="0.0" type="line"/>
      <point x="327.0625" y="482.625" type="line" smooth="yes"/>
      <point x="400.328125" y="830.828125"/>
      <point x="578.984375" y="976.1875"/>
      <point x="719.859375" y="976.1875" type="curve" smooth="yes"/>
      <point x="819.6875" y="976.1875"/>
      <point x="860.953125" y="919.34375"/>
      <point x="860.953125" y="824.203125" type="curve" smooth="yes"/>
      <point x="860.953125" y="791.65625"/>
      <point x="855.171875" y="748.140625"/>
      <point x="843.0625" y="686.6875" type="curve" smooth="yes"/>
      <point x="697.171875" y="0.0" type="line"/>
      <point x="863.28125" y="0.0" type="line"/>
      <point x="969.8125" y="503.328125" type="line" smooth="yes"/>
      <point x="1037.734375" y="823.03125"/>
      <point x="1214.609375" y="976.1875"/>
      <point x="1355.703125" y="976.1875" type="curve" smooth="yes"/>
      <point x="1455.53125" y="976.1875"/>
      <point x="1502.578125" y="920.4375"/>
      <point x="1502.578125" y="830.5625" type="curve" smooth="yes"/>
      <point x="1502.578125" y="791.21875"/>
      <point x="1496.796875" y="750.21875"/>
      <point x="1485.015625" y="690.078125" type="curve" smooth="yes"/>
      <point x="1303.828125" y="-149.609375" type="line" smooth="yes"/>
      <point x="1276.046875" y="-283.953125"/>
      <point x="1221.15625" y="-352.71875"/>
      <point x="1135.875" y="-352.71875" type="curve" smooth="yes"/>
      <point x="1092.1875" y="-352.71875"/>
      <point x="1053.875" y="-343.15625"/>
      <point x="1017.3125" y="-329.828125" type="curve"/>
      <point x="1017.3125" y="-471.0" type="line"/>
      <point x="1051.4375" y="-482.78125"/>
      <point x="1095.3125" y="-492.0"/>
    </contour>
  </outline>
</glyph>
<glyph name="uni0272" format="2">
  <advance width="1180.203125"/>
  <unicode hex="0272"/>
  <anchor x="370.265625" y="-492.0" name="bottom"/>
  <anchor x="707.828125" y="1096.140625" name="top"/>
  <anchor x="1255.875" y="1096.140625" name="topright"/>
  <outline>
    <contour>
      <point x="-99.40625000000001" y="-492.0" type="curve" smooth="yes"/>
      <point x="68.32812499999999" y="-492.0"/>
      <point x="142.546875" y="-395.078125"/>
      <point x="181.109375" y="-209.265625" type="curve" smooth="yes"/>
      <point x="327.0625" y="482.625" type="line" smooth="yes"/>
      <point x="400.546875" y="831.921875"/>
      <point x="594.1875" y="976.1875"/>
      <point x="742.8125" y="976.1875" type="curve" smooth="yes"/>
      <point x="848.625" y="976.1875"/>
      <point x="898.109375" y="920.4375"/>
      <point x="898.109375" y="828.78125" type="curve" smooth="yes"/>
      <point x="898.109375" y="791.21875"/>
      <point x="890.546875" y="750.21875"/>
      <point x="877.875" y="690.078125" type="curve" smooth="yes"/>
      <point x="732.4375" y="0.0" type="line"/>
      <point x="898.546875" y="0.0" type="line"/>
      <point x="1042.875" y="671.5" type="line" smooth="yes"/>
      <point x="1052.984375" y="720.390625"/>
      <point x="1064.328125" y="785.421875"/>
      <point x="1064.328125" y="846.6875" type="curve" smooth="yes"/>
      <point x="1064.328125" y="1022.46875"/>
      <point x="957.3125" y="1116.25"/>
      <point x="788.21875" y="1116.25" type="curve" smooth="yes"/>
      <point x="606.625" y="1116.25"/>
      <point x="487.59375" y="987.453125"/>
      <point x="410.796875" y="884.28125" type="curve"/>
      <point x="401.453125" y="884.28125" type="line"/>
      <point x="427.28125" y="1096.140625" type="line"/>
      <point x="291.4375" y="1096.140625" type="line"/>
      <point x="10.65625" y="-219.078125" type="line" smooth="yes"/>
      <point x="-8.21875" y="-309.78125"/>
      <point x="-48.75" y="-347.375"/>
      <point x="-110.09375000000001" y="-347.375" type="curve" smooth="yes"/>
      <point x="-152.0" y="-347.375"/>
      <point x="-193.875" y="-337.8125"/>
      <point x="-217.96875" y="-326.265625" type="curve"/>
      <point x="-217.96875" y="-465.65625" type="line"/>
      <point x="-194.53125" y="-477.4375"/>
      <point x="-145.3125" y="-492.0"/>
    </contour>
  </outline>
</glyph>
<glyph name="uni0274" format="2">
  <advance width="1235.609375"/>
  <unicode hex="0274"/>
  <anchor x="501.46875" y="0.0" name="bottom"/>
  <anchor x="734.140625" y="1096.140625" name="top"/>
  <anchor x="1233.546875" y="1081.0" name="topright"/>
  <outline>
    <contour>
      <point x="56.78125" y="0.0" type="line"/>
      <point x="217.65625" y="0.0" type="line"/>
      <point x="347.3125" y="616.515625" type="line" smooth="yes"/>
      <point x="363.515625" y="687.40625"/>
      <point x="391.1875" y="836.0"/>
      <point x="398.953125" y="892.84375" type="curve"/>
      <point x="752.796875" y="0.0" type="line"/>
      <point x="941.421875" y="0.0" type="line"/>
      <point x="1172.09375" y="1096.140625" type="line"/>
      <point x="1011.21875" y="1096.140625" type="line"/>
      <point x="876.0" y="460.046875" type="line" smooth="yes"/>
      <point x="863.359375" y="400.953125"/>
      <point x="842.59375" y="257.28125"/>
      <point x="834.15625" y="201.296875" type="curve"/>
      <point x="478.421875" y="1096.140625" type="line"/>
      <point x="288.34375" y="1096.140625" type="line"/>
    </contour>
  </outline>
</glyph>
<glyph name="uni0276" format="2">
  <advance width="1647.984375"/>
  <unicode hex="0276"/>
  <anchor x="708.65625" y="0.0" name="bottom"/>
  <anchor x="941.328125" y="1096.140625" name="top"/>
  <outline>
    <contour>
      <point x="498.8125" y="-16.765625" type="curve" smooth="yes"/>
      <point x="604.0" y="-16.765625"/>
      <point x="699.390625" y="34.10937500000001"/>
      <point x="775.390625" y="109.92187500000001" type="curve"/>
      <point x="753.09375" y="0.0" type="line"/>
      <point x="1415.375" y="0.0" type="line"/>
      <point x="1444.84375" y="140.046875" type="line"/>
      <point x="936.984375" y="140.046875" type="line"/>
      <point x="1015.03125" y="508.5" type="line"/>
      <point x="1492.109375" y="508.5" type="line"/>
      <point x="1522.8125" y="647.4375" type="line"/>
      <point x="1045.734375" y="647.4375" type="line"/>
      <point x="1109.71875" y="956.53125" type="line"/>
      <point x="1617.46875" y="956.53125" type="line"/>
      <point x="1646.71875" y="1096.140625" type="line"/>
      <point x="982.5625" y="1096.140625" type="line"/>
      <point x="950.25" y="945.71875" type="line"/>
      <point x="892.390625" y="1043.953125"/>
      <point x="800.328125" y="1111.34375"/>
      <point x="645.25" y="1111.34375" type="curve" smooth="yes"/>
      <point x="295.9375" y="1111.34375"/>
      <point x="98.65625" y="752.921875"/>
      <point x="98.65625" y="408.625" type="curve" smooth="yes"/>
      <point x="98.65625" y="138.984375"/>
      <point x="250.609375" y="-16.765625"/>
    </contour>
    <contour>
      <point x="508.15625" y="122.06249999999999" type="curve" smooth="yes"/>
      <point x="354.859375" y="122.06249999999999"/>
      <point x="268.421875" y="220.03125"/>
      <point x="268.421875" y="402.171875" type="curve" smooth="yes"/>
      <point x="268.421875" y="711.015625"/>
      <point x="416.203125" y="972.625"/>
      <point x="646.8125" y="972.625" type="curve" smooth="yes"/>
      <point x="811.6875" y="972.625"/>
      <point x="876.484375" y="844.9375"/>
      <point x="874.515625" y="698.0625" type="curve" smooth="yes"/>
      <point x="870.6875" y="350.5625"/>
      <point x="713.8125" y="122.06249999999999"/>
    </contour>
  </outline>
</glyph>
<glyph name="omegaclosed" format="2">
  <advance width="1525.84375"/>
  <unicode hex="0277"/>
  <anchor x="646.25" y="0.0" name="bottom"/>
  <anchor x="879.8125" y="1096.140625" name="top"/>
  <outline>
    <contour>
      <point x="394.984375" y="-20.0" type="curve" smooth="yes"/>
      <point x="530.390625" y="-20.0"/>
      <point x="625.296875" y="39.828125"/>
      <point x="690.40625" y="162.90625" type="curve"/>
      <point x="698.640625" y="162.90625" type="line"/>
      <point x="719.1875" y="43.65625"/>
      <point x="803.40625" y="-20.0"/>
      <point x="949.5" y="-20.0" type="curve" smooth="yes"/>
      <point x="1268.0625" y="-20.0"/>
      <point x="1411.765625" y="293.78125"/>
      <point x="1411.765625" y="587.921875" type="curve" smooth="yes"/>
      <point x="1411.765625" y="894.5625"/>
      <point x="1219.28125" y="1116.25"/>
      <point x="869.25" y="1116.25" type="curve" smooth="yes"/>
      <point x="384.265625" y="1116.25"/>
      <point x="92.0" y="784.046875"/>
      <point x="92.0" y="354.046875" type="curve" smooth="yes"/>
      <point x="92.0" y="120.296875"/>
      <point x="198.09375" y="-20.0"/>
    </contour>
    <contour>
      <point x="414.78125" y="118.71874999999999" type="curve" smooth="yes"/>
      <point x="313.421875" y="118.71874999999999"/>
      <point x="258.328125" y="194.953125"/>
      <point x="258.328125" y="349.140625" type="curve" smooth="yes"/>
      <point x="258.328125" y="739.734375"/>
      <point x="508.609375" y="977.53125"/>
      <point x="851.75" y="977.53125" type="curve" smooth="yes"/>
      <point x="1109.984375" y="977.53125"/>
      <point x="1240.984375" y="824.421875"/>
      <point x="1240.984375" y="589.546875" type="curve" smooth="yes"/>
      <point x="1240.984375" y="352.765625"/>
      <point x="1160.453125" y="118.71874999999999"/>
      <point x="950.8125" y="118.71874999999999" type="curve" smooth="yes"/>
      <point x="858.546875" y="118.71874999999999"/>
      <point x="803.96875" y="172.640625"/>
      <point x="803.96875" y="277.78125" type="curve" smooth="yes"/>
      <point x="803.96875" y="307.234375"/>
      <point x="808.625" y="351.515625"/>
      <point x="817.84375" y="393.03125" type="curve" smooth="yes"/>
      <point x="874.59375" y="668.703125" type="line"/>
      <point x="713.609375" y="668.703125" type="line"/>
      <point x="653.203125" y="389.203125" type="line" smooth="yes"/>
      <point x="620.515625" y="232.859375"/>
      <point x="544.5625" y="118.71874999999999"/>
    </contour>
  </outline>
</glyph>
<glyph name="uni027D" format="2">
  <advance width="804.5"/>
  <unicode hex="027D"/>
  <anchor x="181.078125" y="-492.0" name="bottom"/>
  <anchor x="518.640625" y="1096.140625" name="top"/>
  <outline>
    <contour>
      <point x="226.24999999999997" y="-492.0" type="curve" smooth="yes"/>
      <point x="286.84375" y="-492.0"/>
      <point x="343.453125" y="-477.4375"/>
      <point x="372.359375" y="-460.3125" type="curve"/>
      <point x="372.359375" y="-332.71875" type="line"/>
      <point x="350.578125" y="-342.71875"/>
      <point x="312.453125" y="-354.5"/>
      <point x="262.765625" y="-354.5" type="curve" smooth="yes"/>
      <point x="212.18749999999997" y="-354.5"/>
      <point x="176.37499999999997" y="-327.609375"/>
      <point x="176.37499999999997" y="-260.984375" type="curve" smooth="yes"/>
      <point x="176.37499999999997" y="-232.421875"/>
      <point x="182.37499999999997" y="-198.18750000000003"/>
      <point x="190.15624999999997" y="-162.06250000000003" type="curve" smooth="yes"/>
      <point x="331.859375" y="506.703125" type="line" smooth="yes"/>
      <point x="378.5" y="730.375"/>
      <point x="526.5" y="964.171875"/>
      <point x="729.859375" y="964.171875" type="curve" smooth="yes"/>
      <point x="765.953125" y="964.171875"/>
      <point x="799.390625" y="959.84375"/>
      <point x="835.296875" y="951.84375" type="curve"/>
      <point x="871.34375" y="1101.484375" type="line"/>
      <point x="834.78125" y="1111.59375"/>
      <point x="791.78125" y="1115.8125"/>
      <point x="752.125" y="1115.8125" type="curve" smooth="yes"/>
      <point x="592.40625" y="1115.8125"/>
      <point x="494.28125" y="997.828125"/>
      <point x="410.796875" y="884.28125" type="curve"/>
      <point x="401.453125" y="884.28125" type="line"/>
      <point x="427.28125" y="1096.140625" type="line"/>
      <point x="291.4375" y="1096.140625" type="line"/>
      <point x="24.265624999999996" y="-161.40625000000003" type="line" smooth="yes"/>
      <point x="13.812499999999996" y="-204.65625"/>
      <point x="9.374999999999996" y="-238.75000000000003"/>
      <point x="9.374999999999996" y="-279.015625" type="curve" smooth="yes"/>
      <point x="9.374999999999996" y="-433.859375"/>
      <point x="101.59374999999999" y="-492.0"/>
    </contour>
  </outline>
</glyph>
<glyph name="rfishhookreversed" format="2">
  <advance width="645.421875"/>
  <unicode hex="027F"/>
  <anchor x="101.59375" y="-492.0" name="bottom"/>
  <anchor x="439.15625" y="1096.140625" name="top"/>
  <outline>
    <contour>
      <point x="86.921875" y="-492.0" type="line"/>
      <point x="254.8125" y="-492.0" type="line"/>
      <point x="521.0625" y="753.25" type="line" smooth="yes"/>
      <point x="530.9375" y="796.734375"/>
      <point x="534.03125" y="844.6875"/>
      <point x="534.03125" y="879.40625" type="curve" smooth="yes"/>
      <point x="534.03125" y="1026.21875"/>
      <point x="449.5625" y="1116.25"/>
      <point x="286.703125" y="1116.25" type="curve" smooth="yes"/>
      <point x="227.46875" y="1116.25"/>
      <point x="158.875" y="1104.25"/>
      <point x="108.953125" y="1085.90625" type="curve"/>
      <point x="108.953125" y="944.0625" type="line"/>
      <point x="143.515625" y="956.0625"/>
      <point x="198.75" y="972.625"/>
      <point x="259.09375" y="972.625" type="curve" smooth="yes"/>
      <point x="330.1875" y="972.625"/>
      <point x="367.03125" y="936.53125"/>
      <point x="367.03125" y="858.484375" type="curve" smooth="yes"/>
      <point x="367.03125" y="831.0"/>
      <point x="362.046875" y="798.078125"/>
      <point x="354.953125" y="760.375" type="curve" smooth="yes"/>
    </contour>
  </outline>
</glyph>
<glyph name="uni0281" format="2">
  <advance width="1075.5625"/>
  <unicode hex="0281"/>
  <anchor x="421.890625" y="0.0" name="bottom"/>
  <anchor x="655.453125" y="1096.140625" name="top"/>
  <outline>
    <contour>
      <point x="57.0" y="0.0" type="line"/>
      <point x="522.109375" y="0.0" type="line" smooth="yes"/>
      <point x="773.046875" y="0.0"/>
      <point x="946.78125" y="128.046875"/>
      <point x="946.78125" y="366.4375" type="curve" smooth="yes"/>
      <point x="946.78125" y="512.453125"/>
      <point x="861.65625" y="595.90625"/>
      <point x="752.875" y="627.15625" type="curve"/>
      <point x="1158.21875" y="1096.140625" type="line"/>
      <point x="954.390625" y="1096.140625" type="line"/>
      <point x="579.421875" y="650.515625" type="line"/>
      <point x="360.59375" y="650.515625" type="line"/>
      <point x="458.671875" y="1096.140625" type="line"/>
      <point x="290.78125" y="1096.140625" type="line"/>
    </contour>
    <contour>
      <point x="251.70312499999997" y="139.171875" type="line"/>
      <point x="331.890625" y="511.34375" type="line"/>
      <point x="567.8125" y="511.34375" type="line" smooth="yes"/>
      <point x="707.328125" y="511.34375"/>
      <point x="780.453125" y="463.390625"/>
      <point x="780.453125" y="362.4375" type="curve" smooth="yes"/>
      <point x="780.453125" y="222.0625"/>
      <point x="679.046875" y="139.171875"/>
      <point x="517.890625" y="139.171875" type="curve" smooth="yes"/>
    </contour>
  </outline>
</glyph>
<glyph name="eshcurl" format="2">
  <advance width="525.296875"/>
  <unicode hex="0286"/>
  <anchor x="42.8125" y="-492.0" name="bottom"/>
  <anchor x="480.59375" y="1567.0" name="top"/>
  <outline>
    <contour>
      <point x="-136.09375" y="-492.0" type="curve" smooth="yes"/>
      <point x="26.5625" y="-492.0"/>
      <point x="137.59375" y="-411.078125"/>
      <point x="198.28125" y="-146.34375" type="curve"/>
      <point x="349.09375" y="-146.34375" type="line"/>
      <point x="379.578125" y="-9.843750000000014" type="line"/>
      <point x="226.984375" y="-9.843750000000014" type="line"/>
      <point x="480.796875" y="1195.375" type="line" smooth="yes"/>
      <point x="513.6875" y="1348.484375"/>
      <point x="571.875" y="1427.828125"/>
      <point x="667.484375" y="1427.828125" type="curve" smooth="yes"/>
      <point x="711.796875" y="1427.828125"/>
      <point x="747.671875" y="1417.9375"/>
      <point x="782.984375" y="1405.28125" type="curve"/>
      <point x="782.984375" y="1544.0" type="line"/>
      <point x="750.875" y="1556.0"/>
      <point x="701.640625" y="1567.0"/>
      <point x="649.0" y="1567.0" type="curve" smooth="yes"/>
      <point x="447.140625" y="1567.0"/>
      <point x="362.265625" y="1427.046875"/>
      <point x="316.578125" y="1214.0625" type="curve" smooth="yes"/>
      <point x="56.421875" y="-9.843750000000014" type="line"/>
      <point x="-44.5625" y="-9.843750000000014" type="line" smooth="yes"/>
      <point x="-265.953125" y="-9.843750000000014"/>
      <point x="-389.15625" y="-103.48437500000001"/>
      <point x="-389.15625" y="-273.90625" type="curve" smooth="yes"/>
      <point x="-389.15625" y="-404.171875"/>
      <point x="-296.328125" y="-492.0"/>
    </contour>
    <contour>
      <point x="-133.65625" y="-354.5" type="curve" smooth="yes"/>
      <point x="-200.53125" y="-354.5"/>
      <point x="-229.953125" y="-321.53125"/>
      <point x="-229.953125" y="-268.015625" type="curve" smooth="yes"/>
      <point x="-229.953125" y="-175.359375"/>
      <point x="-156.015625" y="-146.34375"/>
      <point x="-62.828125" y="-146.34375" type="curve" smooth="yes"/>
      <point x="26.718750000000004" y="-146.34375" type="line"/>
      <point x="-7.5937499999999964" y="-299.890625"/>
      <point x="-47.9375" y="-354.5"/>
    </contour>
  </outline>
</glyph>
<glyph name="uni028A" format="2">
  <advance width="1151.25"/>
  <unicode hex="028A"/>
  <anchor x="460.34375" y="0.0" name="bottom"/>
  <anchor x="692.90625" y="1096.140625" name="top"/>
  <outline>
    <contour>
      <point x="501.046875" y="-16.4375" type="curve" smooth="yes"/>
      <point x="866.25" y="-16.4375"/>
      <point x="1057.140625" y="284.3125"/>
      <point x="1057.140625" y="625.359375" type="curve" smooth="yes"/>
      <point x="1057.140625" y="757.546875"/>
      <point x="1006.640625" y="873.84375"/>
      <point x="919.90625" y="957.1875" type="curve"/>
      <point x="1160.3125" y="957.1875" type="line"/>
      <point x="1189.125" y="1096.140625" type="line"/>
      <point x="743.78125" y="1096.140625" type="line"/>
      <point x="717.640625" y="964.09375" type="line"/>
      <point x="821.0625" y="914.828125"/>
      <point x="886.359375" y="794.28125"/>
      <point x="886.359375" y="642.515625" type="curve" smooth="yes"/>
      <point x="886.359375" y="288.28125"/>
      <point x="720.15625" y="121.84374999999999"/>
      <point x="510.171875" y="121.84374999999999" type="curve" smooth="yes"/>
      <point x="338.59375" y="121.84374999999999"/>
      <point x="250.765625" y="240.375"/>
      <point x="250.765625" y="415.515625" type="curve" smooth="yes"/>
      <point x="250.765625" y="695.203125"/>
      <point x="366.65625" y="891.1875"/>
      <point x="571.4375" y="964.09375" type="curve"/>
      <point x="598.46875" y="1096.140625" type="line"/>
      <point x="150.46875" y="1096.140625" type="line"/>
      <point x="122.765625" y="957.1875" type="line"/>
      <point x="330.25" y="957.1875" type="line"/>
      <point x="156.40625" y="826.84375"/>
      <point x="82.65625" y="640.140625"/>
      <point x="82.65625" y="420.859375" type="curve" smooth="yes"/>
      <point x="82.65625" y="161.953125"/>
      <point x="227.21875" y="-16.4375"/>
    </contour>
  </outline>
</glyph>
<glyph name="uni0290" format="2">
  <advance width="909.03125"/>
  <unicode hex="0290"/>
  <anchor x="235.015625" y="-492.0" name="bottom"/>
  <anchor x="571.6875" y="1096.140625" name="top"/>
  <outline>
    <contour>
      <point x="701.171875" y="-492.0" type="curve" smooth="yes"/>
      <point x="758.203125" y="-492.0"/>
      <point x="813.8125" y="-477.4375"/>
      <point x="843.71875" y="-460.3125" type="curve"/>
      <point x="843.71875" y="-332.71875" type="line"/>
      <point x="817.375" y="-344.5"/>
      <point x="775.796875" y="-354.5"/>
      <point x="739.46875" y="-354.5" type="curve" smooth="yes"/>
      <point x="683.546875" y="-354.5"/>
      <point x="646.734375" y="-329.390625"/>
      <point x="646.734375" y="-259.203125" type="curve" smooth="yes"/>
      <point x="646.734375" y="-234.203125"/>
      <point x="654.515625" y="-192.84375000000003"/>
      <point x="661.515625" y="-162.06250000000003" type="curve" smooth="yes"/>
      <point x="720.265625" y="125.81249999999999" type="line"/>
      <point x="185.24999999999997" y="125.81249999999999" type="line"/>
      <point x="871.859375" y="962.828125" type="line"/>
      <point x="898.34375" y="1096.140625" type="line"/>
      <point x="233.0" y="1096.140625" type="line"/>
      <point x="206.75" y="970.328125" type="line"/>
      <point x="689.671875" y="970.328125" type="line"/>
      <point x="-7.859375000000002" y="113.37499999999999" type="line"/>
      <point x="-30.78125" y="0.0" type="line"/>
      <point x="530.796875" y="0.0" type="line"/>
      <point x="496.40625" y="-157.84375000000003" type="line" smooth="yes"/>
      <point x="488.625" y="-195.75000000000003"/>
      <point x="482.40625" y="-233.40625000000003"/>
      <point x="482.40625" y="-277.234375" type="curve" smooth="yes"/>
      <point x="482.40625" y="-439.203125"/>
      <point x="577.296875" y="-492.0"/>
    </contour>
  </outline>
</glyph>
<glyph name="uni0294" format="2">
  <advance width="825.203125"/>
  <unicode hex="0294"/>
  <anchor x="296.265625" y="0.0" name="bottom"/>
  <anchor x="630.046875" y="1567.0" name="top"/>
  <anchor x="1067.453125" y="1566.5625" name="topright"/>
  <outline>
    <contour>
      <point x="136.359375" y="0.0" type="line"/>
      <point x="304.25" y="0.0" type="line"/>
      <point x="441.8125" y="644.296875" type="line"/>
      <point x="799.15625" y="781.609375"/>
      <point x="919.65625" y="1018.25"/>
      <point x="919.65625" y="1232.3125" type="curve" smooth="yes"/>
      <point x="919.65625" y="1429.953125"/>
      <point x="783.296875" y="1567.0"/>
      <point x="555.609375" y="1567.0" type="curve" smooth="yes"/>
      <point x="419.765625" y="1567.0"/>
      <point x="291.609375" y="1521.78125"/>
      <point x="191.359375" y="1453.3125" type="curve"/>
      <point x="253.765625" y="1328.15625" type="line"/>
      <point x="341.46875" y="1387.625"/>
      <point x="446.90625" y="1427.828125"/>
      <point x="538.703125" y="1427.828125" type="curve" smooth="yes"/>
      <point x="659.5625" y="1427.828125"/>
      <point x="745.3125" y="1346.1875"/>
      <point x="745.3125" y="1216.953125" type="curve" smooth="yes"/>
      <point x="745.3125" y="997.34375"/>
      <point x="566.03125" y="831.484375"/>
      <point x="292.0625" y="731.1875" type="curve"/>
    </contour>
  </outline>
</glyph>
<glyph name="uni0299" format="2">
  <advance width="1081.0625"/>
  <unicode hex="0299"/>
  <anchor x="463.4375" y="0.0" name="bottom"/>
  <anchor x="696.0" y="1096.140625" name="top"/>
  <outline>
    <contour>
      <point x="85.75" y="0.0" type="line"/>
      <point x="496.359375" y="0.0" type="line" smooth="yes"/>
      <point x="760.640625" y="0.0"/>
      <point x="940.890625" y="109.65625"/>
      <point x="940.890625" y="347.59375" type="curve" smooth="yes"/>
      <point x="940.890625" y="428.046875"/>
      <point x="893.15625" y="527.203125"/>
      <point x="763.25" y="563.0" type="curve"/>
      <point x="763.25" y="570.5625" type="line"/>
      <point x="932.125" y="607.15625"/>
      <point x="1013.546875" y="702.328125"/>
      <point x="1013.546875" y="845.78125" type="curve" smooth="yes"/>
      <point x="1013.546875" y="1002.578125"/>
      <point x="899.640625" y="1095.921875"/>
      <point x="655.078125" y="1095.921875" type="curve" smooth="yes"/>
      <point x="317.953125" y="1095.921875" type="line"/>
    </contour>
    <contour>
      <point x="282.671875" y="132.9375" type="line"/>
      <point x="363.953125" y="506.265625" type="line"/>
      <point x="566.515625" y="506.265625" type="line" smooth="yes"/>
      <point x="716.359375" y="506.265625"/>
      <point x="767.328125" y="453.21875"/>
      <point x="767.328125" y="362.515625" type="curve" smooth="yes"/>
      <point x="767.328125" y="223.59375"/>
      <point x="675.09375" y="132.9375"/>
      <point x="500.578125" y="132.9375" type="curve" smooth="yes"/>
    </contour>
    <contour>
      <point x="390.3125" y="637.421875" type="line"/>
      <point x="459.8125" y="960.3125" type="line"/>
      <point x="631.84375" y="960.3125" type="line" smooth="yes"/>
      <point x="779.4375" y="960.3125"/>
      <point x="839.09375" y="905.234375"/>
      <point x="839.09375" y="826.640625" type="curve" smooth="yes"/>
      <point x="839.09375" y="693.734375"/>
      <point x="760.0" y="637.421875"/>
      <point x="597.296875" y="637.421875" type="curve" smooth="yes"/>
    </contour>
  </outline>
</glyph>
<glyph name="tcligcurl" format="2">
  <advance width="1562.171875"/>
  <unicode hex="02A8"/>
  <anchor x="665.640625" y="0.0" name="bottom"/>
  <anchor x="952.640625" y="1348.21875" name="top"/>
  <outline>
    <contour>
      <point x="370.25" y="-20.0" type="curve" smooth="yes"/>
      <point x="502.8125" y="-20.0"/>
      <point x="606.625" y="16.078125000000004"/>
      <point x="760.140625" y="126.5625" type="curve"/>
      <point x="826.03125" y="36.78125"/>
      <point x="933.484375" y="-19.78125"/>
      <point x="1085.1875" y="-19.78125" type="curve" smooth="yes"/>
      <point x="1303.515625" y="-19.78125"/>
      <point x="1453.140625" y="75.484375"/>
      <point x="1453.140625" y="264.8125" type="curve" smooth="yes"/>
      <point x="1453.140625" y="390.96875"/>
      <point x="1373.0" y="501.84375"/>
      <point x="1199.015625" y="501.84375" type="curve" smooth="yes"/>
      <point x="1068.15625" y="501.84375"/>
      <point x="959.953125" y="446.65625"/>
      <point x="857.1875" y="361.09375" type="curve"/>
      <point x="854.78125" y="380.84375"/>
      <point x="852.265625" y="404.296875"/>
      <point x="852.265625" y="430.390625" type="curve" smooth="yes"/>
      <point x="852.265625" y="708.34375"/>
      <point x="1015.640625" y="976.1875"/>
      <point x="1258.9375" y="976.1875" type="curve" smooth="yes"/>
      <point x="1345.40625" y="976.1875"/>
      <point x="1423.375" y="950.5"/>
      <point x="1479.796875" y="924.40625" type="curve"/>
      <point x="1526.96875" y="1063.6875" type="line"/>
      <point x="1450.390625" y="1096.578125"/>
      <point x="1352.71875" y="1116.25"/>
      <point x="1257.15625" y="1116.25" type="curve" smooth="yes"/>
      <point x="903.625" y="1116.25"/>
      <point x="683.265625" y="780.90625"/>
      <point x="683.265625" y="389.875" type="curve" smooth="yes"/>
      <point x="683.265625" y="338.390625"/>
      <point x="691.6875" y="289.5625"/>
      <point x="704.640625" y="244.15625" type="curve"/>
      <point x="580.734375" y="152.59375"/>
      <point x="481.453125" y="116.49999999999999"/>
      <point x="394.515625" y="116.49999999999999" type="curve" smooth="yes"/>
      <point x="314.109375" y="116.49999999999999"/>
      <point x="282.015625" y="165.71875"/>
      <point x="282.015625" y="232.5625" type="curve" smooth="yes"/>
      <point x="282.015625" y="271.125"/>
      <point x="291.359375" y="317.46875"/>
      <point x="299.578125" y="354.453125" type="curve" smooth="yes"/>
      <point x="429.75" y="968.546875" type="line"/>
      <point x="711.203125" y="968.546875" type="line"/>
      <point x="737.453125" y="1096.140625" type="line"/>
      <point x="455.109375" y="1096.140625" type="line"/>
      <point x="510.328125" y="1348.21875" type="line"/>
      <point x="411.21875" y="1348.21875" type="line"/>
      <point x="290.5625" y="1115.734375" type="line"/>
      <point x="108.515625" y="1045.609375" type="line"/>
      <point x="93.171875" y="968.546875" type="line"/>
      <point x="261.75" y="968.546875" type="line"/>
      <point x="133.25" y="356.46875" type="line" smooth="yes"/>
      <point x="121.46875" y="303.671875"/>
      <point x="115.578125" y="253.765625"/>
      <point x="115.578125" y="213.421875" type="curve" smooth="yes"/>
      <point x="115.578125" y="41.875"/>
      <point x="223.671875" y="-20.0"/>
    </contour>
    <contour>
      <point x="1096.75" y="118.49999999999999" type="curve" smooth="yes"/>
      <point x="999.359375" y="118.49999999999999"/>
      <point x="927.171875" y="165.9375"/>
      <point x="893.09375" y="224.578125" type="curve"/>
      <point x="978.1875" y="298.6875"/>
      <point x="1088.296875" y="363.5625"/>
      <point x="1179.875" y="363.5625" type="curve" smooth="yes"/>
      <point x="1259.40625" y="363.5625"/>
      <point x="1304.625" y="321.6875"/>
      <point x="1304.625" y="255.46875" type="curve" smooth="yes"/>
      <point x="1304.625" y="183.296875"/>
      <point x="1233.3125" y="118.49999999999999"/>
    </contour>
  </outline>
</glyph>
<glyph name="uni02A9" format="2">
  <advance width="1628.84375"/>
  <unicode hex="02A9"/>
  <anchor x="593.25" y="-492.0" name="bottom"/>
  <anchor x="1031.03125" y="1567.0" name="top"/>
  <outline>
    <contour>
      <point x="-103.140625" y="-492.0" type="curve" smooth="yes"/>
      <point x="84.10937499999999" y="-492.0"/>
      <point x="177.46875" y="-363.0"/>
      <point x="225.15624999999997" y="-141.796875" type="curve" smooth="yes"/>
      <point x="458.859375" y="968.546875" type="line"/>
      <point x="713.15625" y="968.546875" type="line"/>
      <point x="506.625" y="0.0" type="line"/>
      <point x="672.734375" y="0.0" type="line"/>
      <point x="775.703125" y="482.625" type="line" smooth="yes"/>
      <point x="848.296875" y="831.921875"/>
      <point x="1042.828125" y="976.1875"/>
      <point x="1191.453125" y="976.1875" type="curve" smooth="yes"/>
      <point x="1297.375" y="976.1875"/>
      <point x="1346.859375" y="920.4375"/>
      <point x="1346.859375" y="828.78125" type="curve" smooth="yes"/>
      <point x="1346.859375" y="791.21875"/>
      <point x="1338.296875" y="750.21875"/>
      <point x="1326.515625" y="690.078125" type="curve" smooth="yes"/>
      <point x="1147.890625" y="-149.828125" type="line" smooth="yes"/>
      <point x="1119.109375" y="-283.953125"/>
      <point x="1062.90625" y="-352.71875"/>
      <point x="978.71875" y="-352.71875" type="curve" smooth="yes"/>
      <point x="934.375" y="-352.71875"/>
      <point x="896.71875" y="-343.15625"/>
      <point x="860.15625" y="-329.828125" type="curve"/>
      <point x="860.15625" y="-471.0" type="line"/>
      <point x="894.5" y="-483.0"/>
      <point x="936.84375" y="-492.0"/>
      <point x="985.625" y="-492.0" type="curve" smooth="yes"/>
      <point x="1181.65625" y="-492.0"/>
      <point x="1269.875" y="-367.46875"/>
      <point x="1312.0" y="-169.40625" type="curve" smooth="yes"/>
      <point x="1490.625" y="671.5" type="line" smooth="yes"/>
      <point x="1503.40625" y="731.078125"/>
      <point x="1512.96875" y="785.421875"/>
      <point x="1512.96875" y="846.6875" type="curve" smooth="yes"/>
      <point x="1512.96875" y="1022.46875"/>
      <point x="1405.171875" y="1116.25"/>
      <point x="1235.96875" y="1116.25" type="curve" smooth="yes"/>
      <point x="1055.265625" y="1116.25"/>
      <point x="936.234375" y="987.453125"/>
      <point x="859.4375" y="884.28125" type="curve"/>
      <point x="850.09375" y="884.28125" type="line"/>
      <point x="875.921875" y="1096.140625" type="line"/>
      <point x="484.109375" y="1096.140625" type="line"/>
      <point x="508.984375" y="1206.046875" type="line" smooth="yes"/>
      <point x="546.203125" y="1378.34375"/>
      <point x="605.71875" y="1429.609375"/>
      <point x="719.171875" y="1429.609375" type="curve" smooth="yes"/>
      <point x="771.734375" y="1429.609375"/>
      <point x="817.171875" y="1416.15625"/>
      <point x="856.609375" y="1401.71875" type="curve"/>
      <point x="900.328125" y="1529.3125" type="line"/>
      <point x="855.984375" y="1548.65625"/>
      <point x="778.9375" y="1567.0"/>
      <point x="712.265625" y="1567.0" type="curve" smooth="yes"/>
      <point x="509.484375" y="1567.0"/>
      <point x="404.796875" y="1479.171875"/>
      <point x="343.09375" y="1206.921875" type="curve" smooth="yes"/>
      <point x="318.78125" y="1101.484375" type="line"/>
      <point x="115.875" y="1040.265625" type="line"/>
      <point x="101.640625" y="968.546875" type="line"/>
      <point x="292.53125" y="968.546875" type="line"/>
      <point x="62.828125" y="-123.10937500000001" type="line" smooth="yes"/>
      <point x="30.265624999999996" y="-271.921875"/>
      <point x="-19.828125000000004" y="-352.71875"/>
      <point x="-118.28125" y="-352.71875" type="curve" smooth="yes"/>
      <point x="-160.625" y="-352.71875"/>
      <point x="-197.15625" y="-342.9375"/>
      <point x="-233.484375" y="-329.828125" type="curve"/>
      <point x="-233.484375" y="-471.0" type="line"/>
      <point x="-200.359375" y="-482.78125"/>
      <point x="-155.28125" y="-492.0"/>
    </contour>
  </outline>
</glyph>
<glyph name="uni02AA" format="2">
  <advance width="1265.0625"/>
  <unicode hex="02AA"/>
  <anchor x="516.640625" y="0.0" name="bottom"/>
  <anchor x="848.421875" y="1556.0" name="top"/>
  <outline>
    <contour>
      <point x="702.0" y="-20.0" type="curve" smooth="yes"/>
      <point x="960.21875" y="-20.0"/>
      <point x="1121.984375" y="98.078125"/>
      <point x="1121.984375" y="313.0625" type="curve" smooth="yes"/>
      <point x="1121.984375" y="468.8125"/>
      <point x="1014.140625" y="539.828125"/>
      <point x="876.234375" y="620.515625" type="curve" smooth="yes"/>
      <point x="733.1875" y="698.65625"/>
      <point x="690.984375" y="739.859375"/>
      <point x="690.984375" y="817.4375" type="curve" smooth="yes"/>
      <point x="690.984375" y="913.53125"/>
      <point x="770.109375" y="976.1875"/>
      <point x="894.6875" y="976.1875" type="curve" smooth="yes"/>
      <point x="1012.375" y="976.1875"/>
      <point x="1098.5625" y="942.0625"/>
      <point x="1170.34375" y="908.84375" type="curve"/>
      <point x="1223.078125" y="1041.78125" type="line"/>
      <point x="1142.28125" y="1080.125"/>
      <point x="1027.25" y="1116.25"/>
      <point x="894.90625" y="1116.25" type="curve" smooth="yes"/>
      <point x="671.515625" y="1116.25"/>
      <point x="523.765625" y="995.515625"/>
      <point x="523.765625" y="808.09375" type="curve" smooth="yes"/>
      <point x="523.765625" y="667.78125"/>
      <point x="608.03125" y="588.40625"/>
      <point x="761.734375" y="502.046875" type="curve" smooth="yes"/>
      <point x="900.109375" y="423.796875"/>
      <point x="951.203125" y="383.265625"/>
      <point x="951.203125" y="296.8125" type="curve" smooth="yes"/>
      <point x="951.203125" y="190.21875"/>
      <point x="864.65625" y="116.49999999999999"/>
      <point x="695.984375" y="116.49999999999999" type="curve" smooth="yes"/>
      <point x="508.609375" y="116.49999999999999"/>
      <point x="374.21875" y="170.1875"/>
      <point x="271.328125" y="228.078125" type="curve"/>
      <point x="554.09375" y="1556.0" type="line"/>
      <point x="387.875" y="1556.0" type="line"/>
      <point x="56.203125" y="0.0" type="line"/>
      <point x="223.203125" y="0.0" type="line"/>
      <point x="242.296875" y="87.796875" type="line"/>
      <point x="367.8125" y="14.078125000000004"/>
      <point x="505.765625" y="-20.0"/>
    </contour>
  </outline>
</glyph>
<glyph name="uni02AE" format="2">
  <advance width="1199.796875"/>
  <unicode hex="02AE"/>
  <anchor x="379.609375" y="-490.140625" name="bottom"/>
  <anchor x="716.734375" y="1096.140625" name="top"/>
  <outline>
    <contour>
      <point x="639.890625" y="-490.140625" type="line"/>
      <point x="804.328125" y="-490.140625" type="line"/>
      <point x="1141.34375" y="1096.140625" type="line"/>
      <point x="977.015625" y="1096.140625" type="line"/>
      <point x="874.046875" y="613.515625" type="line" smooth="yes"/>
      <point x="799.671875" y="264.21875"/>
      <point x="605.140625" y="118.28124999999999"/>
      <point x="456.515625" y="118.28124999999999" type="curve" smooth="yes"/>
      <point x="348.8125" y="118.28124999999999"/>
      <point x="302.890625" y="173.03125"/>
      <point x="302.890625" y="268.25" type="curve" smooth="yes"/>
      <point x="302.890625" y="303.25"/>
      <point x="309.671875" y="346.03125"/>
      <point x="321.453125" y="404.390625" type="curve" smooth="yes"/>
      <point x="401.171875" y="780.765625" type="line" smooth="yes"/>
      <point x="410.734375" y="824.015625"/>
      <point x="415.28125" y="863.453125"/>
      <point x="415.28125" y="903.71875" type="curve" smooth="yes"/>
      <point x="415.28125" y="1058.5625"/>
      <point x="323.953125" y="1115.8125"/>
      <point x="199.1875" y="1115.8125" type="curve" smooth="yes"/>
      <point x="137.703125" y="1115.8125"/>
      <point x="81.98437500000001" y="1102.140625"/>
      <point x="52.187500000000014" y="1084.125" type="curve"/>
      <point x="52.187500000000014" y="956.53125" type="line"/>
      <point x="74.85937500000001" y="966.53125"/>
      <point x="112.09375000000001" y="979.3125"/>
      <point x="162.671875" y="979.3125" type="curve" smooth="yes"/>
      <point x="212.359375" y="979.3125"/>
      <point x="249.0625" y="952.3125"/>
      <point x="249.0625" y="884.796875" type="curve" smooth="yes"/>
      <point x="249.0625" y="857.234375"/>
      <point x="243.0625" y="822.890625"/>
      <point x="234.390625" y="786.765625" type="curve" smooth="yes"/>
      <point x="157.34375" y="422.859375" type="line" smooth="yes"/>
      <point x="144.5625" y="363.390625"/>
      <point x="135.0" y="309.9375"/>
      <point x="135.0" y="251.34375" type="curve" smooth="yes"/>
      <point x="135.0" y="73.78125"/>
      <point x="242.796875" y="-20.0"/>
      <point x="410.21875" y="-20.0" type="curve" smooth="yes"/>
      <point x="592.703125" y="-20.0"/>
      <point x="711.40625" y="107.6875"/>
      <point x="788.75" y="211.96875" type="curve"/>
      <point x="798.984375" y="211.96875" type="line"/>
      <point x="779.21875" y="139.703125"/>
      <point x="748.4375" y="30.062500000000004"/>
      <point x="736.796875" y="-28.718750000000004" type="curve" smooth="yes"/>
    </contour>
  </outline>
</glyph>
<glyph name="uni02BE" format="2">
  <advance width="346.6875"/>
  <unicode hex="02BE"/>
  <outline>
    <contour>
      <point x="199.4375" y="1186.140625" type="line"/>
      <point x="348.0" y="1186.140625"/>
      <point x="465.6875" y="1270.4375"/>
      <point x="465.6875" y="1425.0" type="curve" smooth="yes"/>
      <point x="465.6875" y="1541.3125"/>
      <point x="388.5625" y="1618.6875"/>
      <point x="290.78125" y="1618.6875" type="curve"/>
      <point x="269.203125" y="1521.140625" type="line"/>
      <point x="324.03125" y="1521.140625"/>
      <point x="359.90625" y="1483.484375"/>
      <point x="359.90625" y="1423.4375" type="curve" smooth="yes"/>
      <point x="359.90625" y="1334.984375"/>
      <point x="299.40625" y="1282.234375"/>
      <point x="218.125" y="1282.234375" type="curve"/>
    </contour>
  </outline>
</glyph>
<glyph name="uni02C0" format="2">
  <advance width="547.828125"/>
  <unicode hex="02C0"/>
  <outline>
    <contour>
      <point x="250.703125" y="949.5625" type="line"/>
      <point x="364.265625" y="949.5625" type="line"/>
      <point x="387.03125" y="1059.84375" type="line"/>
      <point x="592.421875" y="1110.6875"/>
      <point x="691.375" y="1206.90625"/>
      <point x="691.15625" y="1353.09375" type="curve" smooth="yes"/>
      <point x="690.9375" y="1472.078125"/>
      <point x="603.953125" y="1569.0"/>
      <point x="438.4375" y="1569.0" type="curve" smooth="yes"/>
      <point x="343.125" y="1569.0"/>
      <point x="261.78125" y="1539.34375"/>
      <point x="197.4375" y="1499.90625" type="curve"/>
      <point x="241.921875" y="1404.140625" type="line"/>
      <point x="300.375" y="1439.796875"/>
      <point x="368.484375" y="1464.5625"/>
      <point x="430.4375" y="1464.5625" type="curve" smooth="yes"/>
      <point x="514.046875" y="1464.5625"/>
      <point x="561.015625" y="1412.359375"/>
      <point x="561.234375" y="1347.09375" type="curve" smooth="yes"/>
      <point x="561.453125" y="1237.171875"/>
      <point x="471.734375" y="1165.0625"/>
      <point x="289.484375" y="1129.5625" type="curve"/>
    </contour>
  </outline>
</glyph>
<glyph name="uni02C4" format="2">
  <advance width="584.0"/>
  <unicode hex="02C4"/>
  <outline>
    <contour>
      <point x="224.125" y="1118.65625" type="line"/>
      <point x="300.953125" y="1118.65625" type="line"/>
      <point x="466.125" y="1503.875" type="line"/>
      <point x="649.0" y="1118.65625" type="line"/>
      <point x="726.375" y="1118.65625" type="line"/>
      <point x="486.59375" y="1598.34375" type="line"/>
      <point x="439.203125" y="1598.34375" type="line"/>
    </contour>
  </outline>
</glyph>
<glyph name="circumflex" format="2">
  <advance width="786.8125"/>
  <unicode hex="02C6"/>
  <outline>
    <contour>
      <point x="235.453125" y="1241.0" type="line"/>
      <point x="345.796875" y="1241.0" type="line"/>
      <point x="419.328125" y="1291.171875"/>
      <point x="506.640625" y="1361.109375"/>
      <point x="587.546875" y="1434.65625" type="curve"/>
      <point x="640.46875" y="1361.109375"/>
      <point x="698.25" y="1287.609375"/>
      <point x="748.125" y="1241.0" type="curve"/>
      <point x="851.921875" y="1241.0" type="line"/>
      <point x="852.359375" y="1266.359375" type="line"/>
      <point x="800.703125" y="1346.796875"/>
      <point x="721.578125" y="1463.859375"/>
      <point x="681.890625" y="1568.34375" type="curve"/>
      <point x="522.0" y="1568.34375" type="line"/>
      <point x="464.125" y="1477.0"/>
      <point x="306.859375" y="1331.65625"/>
      <point x="235.671875" y="1266.359375" type="curve"/>
    </contour>
  </outline>
</glyph>
<glyph name="macron" format="2">
  <advance width="709.203125"/>
  <unicode hex="02C9"/>
  <outline>
    <contour>
      <point x="229.765625" y="1242.75" type="line"/>
      <point x="774.640625" y="1242.75" type="line"/>
      <point x="803.34375" y="1377.578125" type="line"/>
      <point x="258.46875" y="1377.578125" type="line"/>
    </contour>
  </outline>
</glyph>
<glyph name="uni02D0" format="2">
  <advance width="614.96875"/>
  <unicode hex="02D0"/>
  <outline>
    <contour>
      <point x="353.0" y="813.0" type="line"/>
      <point x="596.890625" y="1098.0" type="line"/>
      <point x="234.0" y="1098.0" type="line"/>
    </contour>
    <contour>
      <point x="0.8906250000000071" y="0.0" type="line"/>
      <point x="363.0" y="0.0" type="line"/>
      <point x="242.890625" y="285.0" type="line"/>
    </contour>
  </outline>
</glyph>
<glyph name="dotaccent" format="2">
  <advance width="366.859375"/>
  <unicode hex="02D9"/>
  <outline>
    <contour>
      <point x="354.859375" y="1287.65625" type="curve" smooth="yes"/>
      <point x="410.78125" y="1287.65625"/>
      <point x="465.625" y="1338.0"/>
      <point x="465.625" y="1416.859375" type="curve" smooth="yes"/>
      <point x="465.625" y="1470.921875"/>
      <point x="436.59375" y="1503.71875"/>
      <point x="376.984375" y="1503.71875" type="curve" smooth="yes"/>
      <point x="304.8125" y="1503.71875"/>
      <point x="262.4375" y="1444.46875"/>
      <point x="262.4375" y="1378.078125" type="curve" smooth="yes"/>
      <point x="262.4375" y="1320.578125"/>
      <point x="302.8125" y="1287.65625"/>
    </contour>
  </outline>
</glyph>
<glyph name="hungarumlaut" format="2">
  <advance width="854.375"/>
  <unicode hex="02DD"/>
  <outline>
    <contour>
      <point x="579.703125" y="1241.0" type="line"/>
      <point x="668.34375" y="1241.0" type="line"/>
      <point x="772.890625" y="1316.75"/>
      <point x="928.84375" y="1475.359375"/>
      <point x="985.59375" y="1548.65625" type="curve"/>
      <point x="985.59375" y="1569.0" type="line"/>
      <point x="815.046875" y="1569.0" type="line"/>
      <point x="757.71875" y="1477.4375"/>
      <point x="653.0" y="1344.796875"/>
      <point x="579.703125" y="1266.359375" type="curve"/>
    </contour>
    <contour>
      <point x="235.671875" y="1241.0" type="line"/>
      <point x="324.421875" y="1241.0" type="line"/>
      <point x="428.859375" y="1316.75"/>
      <point x="584.8125" y="1475.359375"/>
      <point x="641.671875" y="1548.65625" type="curve"/>
      <point x="641.671875" y="1569.0" type="line"/>
      <point x="471.015625" y="1569.0" type="line"/>
      <point x="413.796875" y="1477.4375"/>
      <point x="309.078125" y="1344.796875"/>
      <point x="235.671875" y="1266.359375" type="curve"/>
    </contour>
  </outline>
</glyph>
